M48
; DRILL file {KiCad 6.0.7-1.fc36} date Wed 12 Oct 2022 09:36:48 PM CDT
; FORMAT={-:-/ absolute / metric / decimal}
; #@! TF.CreationDate,2022-10-12T21:36:48-05:00
; #@! TF.GenerationSoftware,Kicad,Pcbnew,6.0.7-1.fc36
; #@! TF.FileFunction,NonPlated,1,4,NPTH
FMAT,2
METRIC
; #@! TA.AperFunction,NonPlated,NPTH,ComponentDrill
T1C0.650
; #@! TA.AperFunction,NonPlated,NPTH,ComponentDrill
T2C0.700
; #@! TA.AperFunction,NonPlated,NPTH,ComponentDrill
T3C1.700
; #@! TA.AperFunction,NonPlated,NPTH,ComponentDrill
T4C1.900
; #@! TA.AperFunction,NonPlated,NPTH,ComponentDrill
T5C4.000
%
G90
G05
T1
X70.712Y-17.992
X76.492Y-17.992
T2
X85.85Y-16.488
X88.75Y-16.488
T3
X22.113Y-38.982
X22.113Y-59.182
X32.273Y-38.982
X32.273Y-59.182
X42.313Y-35.172
X42.313Y-55.372
X52.473Y-35.172
X52.473Y-55.372
X62.348Y-33.902
X62.348Y-54.102
X72.508Y-33.902
X72.508Y-54.102
X82.668Y-36.442
X82.668Y-56.642
X92.828Y-36.442
X92.828Y-56.642
T4
X21.693Y-38.982
X21.693Y-59.182
X32.693Y-38.982
X32.693Y-59.182
X41.893Y-35.172
X41.893Y-55.372
X52.893Y-35.172
X52.893Y-55.372
X61.928Y-33.902
X61.928Y-54.102
X72.928Y-33.902
X72.928Y-54.102
X82.248Y-36.442
X82.248Y-56.642
X93.248Y-36.442
X93.248Y-56.642
T5
X27.193Y-38.982
X27.193Y-59.182
X47.393Y-35.172
X47.393Y-55.372
X67.428Y-33.902
X67.428Y-54.102
X87.748Y-36.442
X87.748Y-56.642
T0
M30
