G04 #@! TF.GenerationSoftware,KiCad,Pcbnew,6.0.7-1.fc36*
G04 #@! TF.CreationDate,2022-10-12T21:36:36-05:00*
G04 #@! TF.ProjectId,ardux_mini,61726475-785f-46d6-996e-692e6b696361,rev?*
G04 #@! TF.SameCoordinates,Original*
G04 #@! TF.FileFunction,Profile,NP*
%FSLAX46Y46*%
G04 Gerber Fmt 4.6, Leading zero omitted, Abs format (unit mm)*
G04 Created by KiCad (PCBNEW 6.0.7-1.fc36) date 2022-10-12 21:36:36*
%MOMM*%
%LPD*%
G01*
G04 APERTURE LIST*
G04 #@! TA.AperFunction,Profile*
%ADD10C,0.100000*%
G04 #@! TD*
G04 APERTURE END LIST*
D10*
X39487974Y-65531974D02*
G75*
G03*
X38217974Y-66802000I26J-1270026D01*
G01*
X36947974Y-69341974D02*
G75*
G03*
X38217974Y-68072000I26J1269974D01*
G01*
X79228000Y-32766000D02*
G75*
G03*
X79228000Y-32766000I-1250000J0D01*
G01*
X77587974Y-64262000D02*
X77587974Y-65532000D01*
X38217974Y-68072000D02*
X38217974Y-66802000D01*
X97811980Y-14455013D02*
G75*
G03*
X96541954Y-13185013I-1270000J0D01*
G01*
X15357974Y-69342000D02*
X36947974Y-69342000D01*
X96541954Y-13185013D02*
X15320000Y-13200000D01*
X57267974Y-65531974D02*
G75*
G03*
X58537974Y-64262000I26J1269974D01*
G01*
X15320000Y-13199974D02*
G75*
G03*
X14050000Y-14470000I26J-1270026D01*
G01*
X77588000Y-65532000D02*
G75*
G03*
X78857974Y-66802000I1270000J0D01*
G01*
X20554000Y-53086000D02*
G75*
G03*
X20554000Y-53086000I-1250000J0D01*
G01*
X58537974Y-64262000D02*
X77587974Y-64262000D01*
X14088000Y-68072000D02*
G75*
G03*
X15357974Y-69342000I1270000J0D01*
G01*
X39487974Y-65532000D02*
X57267974Y-65532000D01*
X78720000Y-53086000D02*
G75*
G03*
X78720000Y-53086000I-1250000J0D01*
G01*
X78857974Y-66802000D02*
X96637974Y-66802000D01*
X96637974Y-66801974D02*
G75*
G03*
X97907974Y-65532000I26J1269974D01*
G01*
X97907974Y-65532000D02*
X97811954Y-14455013D01*
X14050000Y-14470000D02*
X14087974Y-68072000D01*
X20602000Y-32766000D02*
G75*
G03*
X20602000Y-32766000I-1250000J0D01*
G01*
M02*
