M48
; DRILL file {KiCad 6.0.7-1.fc36} date Wed 12 Oct 2022 09:36:48 PM CDT
; FORMAT={-:-/ absolute / metric / decimal}
; #@! TF.CreationDate,2022-10-12T21:36:48-05:00
; #@! TF.GenerationSoftware,Kicad,Pcbnew,6.0.7-1.fc36
; #@! TF.FileFunction,Plated,1,4,PTH
FMAT,2
METRIC
; #@! TA.AperFunction,Plated,PTH,ViaDrill
T1C0.200
; #@! TA.AperFunction,Plated,PTH,ComponentDrill
T2C0.300
; #@! TA.AperFunction,Plated,PTH,ComponentDrill
T3C0.600
; #@! TA.AperFunction,Plated,PTH,ComponentDrill
T4C0.750
; #@! TA.AperFunction,Plated,PTH,ComponentDrill
T5C0.800
%
G90
G05
T1
X41.642Y-17.658
X41.642Y-21.458
X44.042Y-17.658
X44.142Y-21.458
X52.0Y-22.1
X53.9Y-23.0
X54.6Y-30.6
X56.0Y-27.7
X56.0Y-28.8
X56.49Y-19.8
X56.865Y-25.274
X57.7Y-27.0
X57.9Y-23.511
X58.5Y-18.1
X58.512Y-23.375
X58.951Y-21.23
X59.0Y-21.8
X59.04Y-23.7
X59.1Y-18.5
X59.1Y-28.7
X59.2Y-26.6
X59.3Y-25.6
X59.7Y-24.9
X59.78Y-15.52
X59.8Y-17.2
X59.9Y-24.039
X60.2Y-19.6
X60.2Y-21.3
X60.2Y-23.0
X60.596Y-24.986
X61.4Y-25.0
X61.8Y-19.6
X61.8Y-21.287
X61.8Y-23.0
X61.812Y-17.614
X62.0Y-25.0
X62.08Y-15.52
X62.12Y-16.48
X62.6Y-25.0
X62.7Y-17.614
X63.1Y-18.536
X63.2Y-25.0
X63.28Y-15.52
X63.3Y-19.6
X63.3Y-21.3
X63.3Y-23.0
X63.8Y-24.4
X64.196Y-18.497
X64.543Y-19.7
X64.62Y-16.48
X65.0Y-18.8
X65.1Y-18.0
X65.116Y-24.5
X65.5Y-23.7
X65.567Y-19.19
X65.6Y-22.7
X66.026Y-21.274
X66.9Y-27.6
X67.6Y-18.4
X68.251Y-21.2
X68.3Y-24.7
X70.2Y-16.7
X70.831Y-20.48
X70.951Y-22.1
X75.951Y-22.2
X76.151Y-20.5
X76.6Y-23.4
X78.551Y-21.2
X78.9Y-19.5
X81.3Y-19.5
X81.4Y-24.1
X83.7Y-19.5
X83.8Y-22.8
X84.7Y-26.9
X85.3Y-20.8
X85.8Y-25.1
X85.9Y-23.9
X86.095Y-21.405
X87.8Y-18.4
X88.3Y-21.1
X90.6Y-21.4
X91.2Y-26.9
X92.3Y-18.4
X93.0Y-21.4
T2
X16.54Y-22.141
X18.13Y-22.141
X21.34Y-22.141
X22.94Y-22.141
X24.54Y-22.141
X26.14Y-22.141
X27.74Y-22.141
X29.34Y-22.141
X30.94Y-22.141
T4
X95.35Y-19.9
X95.35Y-21.9
T3
X69.282Y-14.642G85X69.282Y-14.042
G05
X69.282Y-19.072G85X69.282Y-17.972
G05
X77.922Y-14.642G85X77.922Y-14.042
G05
X77.922Y-19.072G85X77.922Y-17.972
G05
T5
X21.893Y-42.882G85X22.293Y-42.882
G05
X21.893Y-63.082G85X22.293Y-63.082
G05
X23.183Y-36.442G85X23.583Y-36.442
G05
X23.183Y-56.642G85X23.583Y-56.642
G05
X24.453Y-33.902G85X24.853Y-33.902
G05
X24.453Y-54.102G85X24.853Y-54.102
G05
X26.993Y-44.882G85X27.393Y-44.882
G05
X26.993Y-65.082G85X27.393Y-65.082
G05
X29.533Y-33.902G85X29.933Y-33.902
G05
X29.533Y-54.102G85X29.933Y-54.102
G05
X30.803Y-36.442G85X31.203Y-36.442
G05
X30.803Y-56.642G85X31.203Y-56.642
G05
X32.093Y-42.882G85X32.493Y-42.882
G05
X32.093Y-63.082G85X32.493Y-63.082
G05
X42.093Y-39.072G85X42.493Y-39.072
G05
X42.093Y-59.272G85X42.493Y-59.272
G05
X43.383Y-32.632G85X43.783Y-32.632
G05
X43.383Y-52.832G85X43.783Y-52.832
G05
X44.653Y-30.092G85X45.053Y-30.092
G05
X44.653Y-50.292G85X45.053Y-50.292
G05
X47.193Y-41.072G85X47.593Y-41.072
G05
X47.193Y-61.272G85X47.593Y-61.272
G05
X49.733Y-30.092G85X50.133Y-30.092
G05
X49.733Y-50.292G85X50.133Y-50.292
G05
X51.003Y-32.632G85X51.403Y-32.632
G05
X51.003Y-52.832G85X51.403Y-52.832
G05
X52.293Y-39.072G85X52.693Y-39.072
G05
X52.293Y-59.272G85X52.693Y-59.272
G05
X62.128Y-37.802G85X62.528Y-37.802
G05
X62.128Y-58.002G85X62.528Y-58.002
G05
X63.418Y-31.362G85X63.818Y-31.362
G05
X63.418Y-51.562G85X63.818Y-51.562
G05
X64.688Y-28.822G85X65.088Y-28.822
G05
X64.688Y-49.022G85X65.088Y-49.022
G05
X67.228Y-39.802G85X67.628Y-39.802
G05
X67.228Y-60.002G85X67.628Y-60.002
G05
X69.768Y-28.822G85X70.168Y-28.822
G05
X69.768Y-49.022G85X70.168Y-49.022
G05
X71.038Y-31.362G85X71.438Y-31.362
G05
X71.038Y-51.562G85X71.438Y-51.562
G05
X72.328Y-37.802G85X72.728Y-37.802
G05
X72.328Y-58.002G85X72.728Y-58.002
G05
X82.448Y-40.342G85X82.848Y-40.342
G05
X82.448Y-60.542G85X82.848Y-60.542
G05
X83.738Y-33.902G85X84.138Y-33.902
G05
X83.738Y-54.102G85X84.138Y-54.102
G05
X85.008Y-31.362G85X85.408Y-31.362
G05
X85.008Y-51.562G85X85.408Y-51.562
G05
X87.548Y-42.342G85X87.948Y-42.342
G05
X87.548Y-62.542G85X87.948Y-62.542
G05
X90.088Y-31.362G85X90.488Y-31.362
G05
X90.088Y-51.562G85X90.488Y-51.562
G05
X91.358Y-33.902G85X91.758Y-33.902
G05
X91.358Y-54.102G85X91.758Y-54.102
G05
X92.648Y-40.342G85X93.048Y-40.342
G05
X92.648Y-60.542G85X93.048Y-60.542
G05
T0
M30
