G04 #@! TF.GenerationSoftware,KiCad,Pcbnew,6.0.7-1.fc36*
G04 #@! TF.CreationDate,2022-10-12T21:36:36-05:00*
G04 #@! TF.ProjectId,ardux_mini,61726475-785f-46d6-996e-692e6b696361,rev?*
G04 #@! TF.SameCoordinates,Original*
G04 #@! TF.FileFunction,Paste,Top*
G04 #@! TF.FilePolarity,Positive*
%FSLAX46Y46*%
G04 Gerber Fmt 4.6, Leading zero omitted, Abs format (unit mm)*
G04 Created by KiCad (PCBNEW 6.0.7-1.fc36) date 2022-10-12 21:36:36*
%MOMM*%
%LPD*%
G01*
G04 APERTURE LIST*
G04 Aperture macros list*
%AMRoundRect*
0 Rectangle with rounded corners*
0 $1 Rounding radius*
0 $2 $3 $4 $5 $6 $7 $8 $9 X,Y pos of 4 corners*
0 Add a 4 corners polygon primitive as box body*
4,1,4,$2,$3,$4,$5,$6,$7,$8,$9,$2,$3,0*
0 Add four circle primitives for the rounded corners*
1,1,$1+$1,$2,$3*
1,1,$1+$1,$4,$5*
1,1,$1+$1,$6,$7*
1,1,$1+$1,$8,$9*
0 Add four rect primitives between the rounded corners*
20,1,$1+$1,$2,$3,$4,$5,0*
20,1,$1+$1,$4,$5,$6,$7,0*
20,1,$1+$1,$6,$7,$8,$9,0*
20,1,$1+$1,$8,$9,$2,$3,0*%
G04 Aperture macros list end*
%ADD10RoundRect,0.135000X0.135000X0.185000X-0.135000X0.185000X-0.135000X-0.185000X0.135000X-0.185000X0*%
%ADD11RoundRect,0.218750X0.218750X0.256250X-0.218750X0.256250X-0.218750X-0.256250X0.218750X-0.256250X0*%
%ADD12RoundRect,0.140000X0.170000X-0.140000X0.170000X0.140000X-0.170000X0.140000X-0.170000X-0.140000X0*%
%ADD13RoundRect,0.140000X-0.140000X-0.170000X0.140000X-0.170000X0.140000X0.170000X-0.140000X0.170000X0*%
%ADD14RoundRect,0.140000X0.140000X0.170000X-0.140000X0.170000X-0.140000X-0.170000X0.140000X-0.170000X0*%
%ADD15RoundRect,0.218750X0.381250X-0.218750X0.381250X0.218750X-0.381250X0.218750X-0.381250X-0.218750X0*%
%ADD16RoundRect,0.160000X-0.160000X-0.160000X0.160000X-0.160000X0.160000X0.160000X-0.160000X0.160000X0*%
%ADD17RoundRect,0.062500X-0.375000X-0.062500X0.375000X-0.062500X0.375000X0.062500X-0.375000X0.062500X0*%
%ADD18RoundRect,0.062500X-0.062500X-0.375000X0.062500X-0.375000X0.062500X0.375000X-0.062500X0.375000X0*%
%ADD19R,1.700000X1.000000*%
%ADD20RoundRect,0.135000X-0.185000X0.135000X-0.185000X-0.135000X0.185000X-0.135000X0.185000X0.135000X0*%
%ADD21R,2.000000X2.000000*%
%ADD22C,0.250000*%
%ADD23R,1.066800X1.397000*%
%ADD24R,0.600000X1.000000*%
%ADD25R,1.100000X0.600000*%
%ADD26R,1.000000X0.600000*%
%ADD27R,0.600000X1.450000*%
%ADD28R,0.300000X1.450000*%
%ADD29RoundRect,0.147500X-0.147500X-0.172500X0.147500X-0.172500X0.147500X0.172500X-0.147500X0.172500X0*%
%ADD30RoundRect,0.140000X-0.170000X0.140000X-0.170000X-0.140000X0.170000X-0.140000X0.170000X0.140000X0*%
%ADD31RoundRect,0.135000X0.185000X-0.135000X0.185000X0.135000X-0.185000X0.135000X-0.185000X-0.135000X0*%
%ADD32RoundRect,0.150000X-0.512500X-0.150000X0.512500X-0.150000X0.512500X0.150000X-0.512500X0.150000X0*%
%ADD33R,0.700000X0.750000*%
%ADD34C,0.400000*%
G04 APERTURE END LIST*
D10*
X86684000Y-26925000D03*
X85664000Y-26925000D03*
D11*
X89711500Y-26925000D03*
X88136500Y-26925000D03*
D10*
X85510000Y-19500000D03*
X84490000Y-19500000D03*
D12*
X59100000Y-15520000D03*
X59100000Y-16480000D03*
D13*
X67680000Y-24700000D03*
X66720000Y-24700000D03*
D14*
X80480000Y-19500000D03*
X79520000Y-19500000D03*
D15*
X67300000Y-16462500D03*
X67300000Y-14337500D03*
D16*
X87846000Y-21555000D03*
X87846000Y-20755000D03*
X88646000Y-21555000D03*
X88646000Y-20755000D03*
D17*
X86808500Y-20405000D03*
X86808500Y-20905000D03*
X86808500Y-21405000D03*
X86808500Y-21905000D03*
D18*
X87496000Y-22592500D03*
X87996000Y-22592500D03*
X88496000Y-22592500D03*
X88996000Y-22592500D03*
D17*
X89683500Y-21905000D03*
X89683500Y-21405000D03*
X89683500Y-20905000D03*
X89683500Y-20405000D03*
D18*
X88996000Y-19717500D03*
X88496000Y-19717500D03*
X87996000Y-19717500D03*
X87496000Y-19717500D03*
D10*
X87990000Y-23900000D03*
X89010000Y-23900000D03*
D19*
X46076000Y-21458000D03*
X39776000Y-21458000D03*
X46076000Y-17658000D03*
X39776000Y-17658000D03*
D20*
X18796000Y-24001000D03*
X18796000Y-25021000D03*
D12*
X62765552Y-16474829D03*
X62765552Y-15514829D03*
D10*
X80710000Y-24100000D03*
X79690000Y-24100000D03*
D12*
X60497000Y-16480000D03*
X60497000Y-15520000D03*
D15*
X60400000Y-27837500D03*
X60400000Y-29962500D03*
D21*
X63004000Y-20075000D03*
X63004000Y-22500000D03*
X60579000Y-22500000D03*
X60579000Y-20075000D03*
D22*
X63041500Y-24537500D03*
X62541500Y-24537500D03*
X62041500Y-24537500D03*
X61541500Y-24537500D03*
X61041500Y-24537500D03*
X60541500Y-24537500D03*
X60041500Y-24537500D03*
X59541500Y-24537500D03*
X59041500Y-24537500D03*
X58541500Y-19037500D03*
X64541500Y-18787500D03*
X63791500Y-18537500D03*
X62791500Y-18537500D03*
X62291500Y-18537500D03*
X61791500Y-18537500D03*
X61291500Y-18537500D03*
X60791500Y-18537500D03*
X60291500Y-18537500D03*
X59791500Y-18537500D03*
X58541500Y-18537500D03*
X64541500Y-18037500D03*
X64041500Y-18037500D03*
X63541500Y-18037500D03*
X63041500Y-18037500D03*
X62541500Y-18037500D03*
X62041500Y-18037500D03*
X61541500Y-18037500D03*
X61041500Y-18037500D03*
X60541500Y-18037500D03*
X60041500Y-18037500D03*
X59541500Y-18037500D03*
X59041500Y-18037500D03*
X65041500Y-24037500D03*
X64291500Y-24037500D03*
X63791500Y-24037500D03*
X63291500Y-24037500D03*
X62791500Y-24037500D03*
X62291500Y-24037500D03*
X61791500Y-24037500D03*
X61291500Y-24037500D03*
X60791500Y-24037500D03*
X60291500Y-24037500D03*
X58541500Y-24037500D03*
X65041500Y-23537500D03*
X64541500Y-23287500D03*
X59041500Y-23287500D03*
X58541500Y-23037500D03*
X64541500Y-22787500D03*
X59041500Y-22787500D03*
X65041500Y-22537500D03*
X64541500Y-22287500D03*
X59041500Y-22287500D03*
X65041500Y-22037500D03*
X58541500Y-22037500D03*
X64541500Y-21787500D03*
X65041500Y-21537500D03*
X58541500Y-21537500D03*
X64541500Y-21287500D03*
X65041500Y-21037500D03*
X58541500Y-21037500D03*
X64541500Y-20787500D03*
X59041500Y-20787500D03*
X65041500Y-20537500D03*
X58541500Y-20537500D03*
X64541500Y-20287500D03*
X59041500Y-20287500D03*
X65041500Y-20037500D03*
X58541500Y-20037500D03*
X59041500Y-19787500D03*
X65041500Y-19537500D03*
X58541500Y-19537500D03*
X64541500Y-19287500D03*
X59041500Y-19287500D03*
D13*
X20094000Y-24003000D03*
X21054000Y-24003000D03*
D11*
X88112500Y-25200000D03*
X89687500Y-25200000D03*
D14*
X57580000Y-27700000D03*
X56620000Y-27700000D03*
D13*
X92180000Y-21400000D03*
X91220000Y-21400000D03*
D12*
X63926000Y-16452000D03*
X63926000Y-15492000D03*
D20*
X71900000Y-22160049D03*
X71900000Y-21140049D03*
D23*
X65377800Y-26200000D03*
X67222200Y-26200000D03*
D24*
X85100000Y-18337500D03*
X86600000Y-18337500D03*
X89500000Y-18337500D03*
D25*
X83700000Y-15344500D03*
D26*
X90900000Y-15344500D03*
D25*
X90900000Y-17630500D03*
D26*
X83700000Y-17630500D03*
D13*
X76770753Y-21200000D03*
X77730753Y-21200000D03*
D12*
X58500000Y-25620000D03*
X58500000Y-26580000D03*
D27*
X76852292Y-19436870D03*
X76052292Y-19436870D03*
D28*
X75352292Y-19436870D03*
X74352292Y-19436870D03*
X72852292Y-19436870D03*
X71852292Y-19436870D03*
D27*
X71152292Y-19436870D03*
X70352292Y-19436870D03*
X70352292Y-19436870D03*
X71152292Y-19436870D03*
D28*
X72352292Y-19436870D03*
X73352292Y-19436870D03*
X73852292Y-19436870D03*
X74852292Y-19436870D03*
D27*
X76052292Y-19436870D03*
X76852292Y-19436870D03*
D12*
X61513000Y-15520000D03*
X61513000Y-16480000D03*
D14*
X56240000Y-23500000D03*
X57200000Y-23500000D03*
D13*
X60880000Y-25700000D03*
X59920000Y-25700000D03*
D14*
X84680000Y-20800000D03*
X83720000Y-20800000D03*
D12*
X65196000Y-16480000D03*
X65196000Y-15520000D03*
D29*
X58585000Y-30000000D03*
X57615000Y-30000000D03*
D30*
X22100000Y-26700000D03*
X22100000Y-27660000D03*
D13*
X66280000Y-27700000D03*
X65320000Y-27700000D03*
D12*
X22402982Y-23953916D03*
X22402982Y-24913916D03*
X86674000Y-23895000D03*
X86674000Y-24855000D03*
D13*
X69150753Y-21200000D03*
X70110753Y-21200000D03*
D31*
X84574000Y-22916000D03*
X84574000Y-21896000D03*
D32*
X82237500Y-20850000D03*
X82237500Y-22750000D03*
X79962500Y-22750000D03*
X79962500Y-21800000D03*
X79962500Y-20850000D03*
D30*
X85574000Y-21926000D03*
X85574000Y-22886000D03*
D12*
X66300000Y-22020000D03*
X66300000Y-22980000D03*
D33*
X57300000Y-24653000D03*
X57300000Y-26003000D03*
X56300000Y-26003000D03*
X56300000Y-24653000D03*
D29*
X18815000Y-26700000D03*
X19785000Y-26700000D03*
D14*
X57580000Y-28800000D03*
X56620000Y-28800000D03*
D20*
X74964753Y-21154000D03*
X74964753Y-22174000D03*
D12*
X57290000Y-19820000D03*
X57290000Y-20780000D03*
D34*
X19679974Y-22611000D03*
M02*
