G04 #@! TF.GenerationSoftware,KiCad,Pcbnew,6.0.7-1.fc36*
G04 #@! TF.CreationDate,2022-10-12T21:36:36-05:00*
G04 #@! TF.ProjectId,ardux_mini,61726475-785f-46d6-996e-692e6b696361,rev?*
G04 #@! TF.SameCoordinates,Original*
G04 #@! TF.FileFunction,Copper,L3,Inr*
G04 #@! TF.FilePolarity,Positive*
%FSLAX46Y46*%
G04 Gerber Fmt 4.6, Leading zero omitted, Abs format (unit mm)*
G04 Created by KiCad (PCBNEW 6.0.7-1.fc36) date 2022-10-12 21:36:36*
%MOMM*%
%LPD*%
G01*
G04 APERTURE LIST*
G04 Aperture macros list*
%AMRoundRect*
0 Rectangle with rounded corners*
0 $1 Rounding radius*
0 $2 $3 $4 $5 $6 $7 $8 $9 X,Y pos of 4 corners*
0 Add a 4 corners polygon primitive as box body*
4,1,4,$2,$3,$4,$5,$6,$7,$8,$9,$2,$3,0*
0 Add four circle primitives for the rounded corners*
1,1,$1+$1,$2,$3*
1,1,$1+$1,$4,$5*
1,1,$1+$1,$6,$7*
1,1,$1+$1,$8,$9*
0 Add four rect primitives between the rounded corners*
20,1,$1+$1,$2,$3,$4,$5,0*
20,1,$1+$1,$4,$5,$6,$7,0*
20,1,$1+$1,$6,$7,$8,$9,0*
20,1,$1+$1,$8,$9,$2,$3,0*%
G04 Aperture macros list end*
G04 #@! TA.AperFunction,ComponentPad*
%ADD10RoundRect,0.250000X0.625000X-0.350000X0.625000X0.350000X-0.625000X0.350000X-0.625000X-0.350000X0*%
G04 #@! TD*
G04 #@! TA.AperFunction,ComponentPad*
%ADD11O,1.750000X1.200000*%
G04 #@! TD*
G04 #@! TA.AperFunction,WasherPad*
%ADD12C,2.100000*%
G04 #@! TD*
G04 #@! TA.AperFunction,WasherPad*
%ADD13C,1.900000*%
G04 #@! TD*
G04 #@! TA.AperFunction,ComponentPad*
%ADD14O,2.500000X2.000000*%
G04 #@! TD*
G04 #@! TA.AperFunction,ComponentPad*
%ADD15O,1.000000X1.600000*%
G04 #@! TD*
G04 #@! TA.AperFunction,ComponentPad*
%ADD16O,1.000000X2.100000*%
G04 #@! TD*
G04 #@! TA.AperFunction,ComponentPad*
%ADD17C,0.500000*%
G04 #@! TD*
G04 #@! TA.AperFunction,ViaPad*
%ADD18C,0.400000*%
G04 #@! TD*
G04 #@! TA.AperFunction,Conductor*
%ADD19C,0.293370*%
G04 #@! TD*
G04 #@! TA.AperFunction,Conductor*
%ADD20C,0.400000*%
G04 #@! TD*
G04 APERTURE END LIST*
D10*
X95350000Y-21900000D03*
D11*
X95350000Y-19900000D03*
D12*
X52892974Y-55372000D03*
X41892974Y-55372000D03*
D13*
X52472974Y-55372000D03*
X42312974Y-55372000D03*
D14*
X43582974Y-52832000D03*
X42292974Y-59272000D03*
X52492974Y-59272000D03*
X51202974Y-52832000D03*
X44852974Y-50292000D03*
X49932974Y-50292000D03*
X47392974Y-61272000D03*
D13*
X82667974Y-56642000D03*
D12*
X82247974Y-56642000D03*
X93247974Y-56642000D03*
D13*
X92827974Y-56642000D03*
D14*
X92847974Y-60542000D03*
X83937974Y-54102000D03*
X82647974Y-60542000D03*
X91557974Y-54102000D03*
X87747974Y-62542000D03*
X90287974Y-51562000D03*
X85207974Y-51562000D03*
D12*
X21692974Y-59182000D03*
D13*
X22112974Y-59182000D03*
X32272974Y-59182000D03*
D12*
X32692974Y-59182000D03*
D14*
X22092974Y-63082000D03*
X31002974Y-56642000D03*
X23382974Y-56642000D03*
X32292974Y-63082000D03*
X27192974Y-65082000D03*
X24652974Y-54102000D03*
X29732974Y-54102000D03*
D13*
X62347974Y-54102000D03*
D12*
X61927974Y-54102000D03*
X72927974Y-54102000D03*
D13*
X72507974Y-54102000D03*
D14*
X63617974Y-51562000D03*
X62327974Y-58002000D03*
X72527974Y-58002000D03*
X71237974Y-51562000D03*
X64887974Y-49022000D03*
X67427974Y-60002000D03*
X69967974Y-49022000D03*
D13*
X52472974Y-35172000D03*
X42312974Y-35172000D03*
D12*
X41892974Y-35172000D03*
X52892974Y-35172000D03*
D14*
X52492974Y-39072000D03*
X43582974Y-32632000D03*
X51202974Y-32632000D03*
X42292974Y-39072000D03*
X47392974Y-41072000D03*
X44852974Y-30092000D03*
X49932974Y-30092000D03*
D15*
X69282292Y-14341870D03*
D16*
X69282292Y-18521870D03*
D15*
X77922292Y-14341870D03*
D16*
X77922292Y-18521870D03*
D12*
X72927974Y-33902000D03*
X61927974Y-33902000D03*
D13*
X62347974Y-33902000D03*
X72507974Y-33902000D03*
D14*
X71237974Y-31362000D03*
X72527974Y-37802000D03*
X62327974Y-37802000D03*
X63617974Y-31362000D03*
X67427974Y-39802000D03*
X64887974Y-28822000D03*
X69967974Y-28822000D03*
D13*
X92827974Y-36442000D03*
X82667974Y-36442000D03*
D12*
X93247974Y-36442000D03*
X82247974Y-36442000D03*
D14*
X92847974Y-40342000D03*
X83937974Y-33902000D03*
X82647974Y-40342000D03*
X91557974Y-33902000D03*
X90287974Y-31362000D03*
X87747974Y-42342000D03*
X85207974Y-31362000D03*
D12*
X32692974Y-38982000D03*
X21692974Y-38982000D03*
D13*
X22112974Y-38982000D03*
X32272974Y-38982000D03*
D14*
X22092974Y-42882000D03*
X23382974Y-36442000D03*
X31002974Y-36442000D03*
X32292974Y-42882000D03*
X27192974Y-44882000D03*
X29732974Y-33902000D03*
X24652974Y-33902000D03*
D17*
X18129974Y-22141000D03*
X27739974Y-22141000D03*
X26139974Y-22141000D03*
X22939974Y-22141000D03*
X30939974Y-22141000D03*
X24539974Y-22141000D03*
X21339974Y-22141000D03*
X16539974Y-22141000D03*
X29339974Y-22141000D03*
D18*
X70200000Y-16700000D03*
X66025772Y-21274228D03*
X68300000Y-24700000D03*
X65500000Y-23700000D03*
X65600000Y-22700000D03*
X65566731Y-19189543D03*
X54600000Y-30600000D03*
X59100000Y-28700000D03*
X56490000Y-19800000D03*
X58951500Y-21229941D03*
X53900000Y-23000000D03*
X56000000Y-28800000D03*
X56000000Y-27700000D03*
X63800000Y-24400000D03*
X63200000Y-25000000D03*
X62600000Y-25000000D03*
X62000000Y-25000000D03*
X61400000Y-25000000D03*
X60595578Y-24986418D03*
X59900000Y-24039002D03*
X59700000Y-24900000D03*
X65116000Y-24500000D03*
X78900000Y-19500000D03*
X57700000Y-27000000D03*
X58511740Y-23375306D03*
X59300000Y-25600000D03*
X59039998Y-23700000D03*
X66900000Y-27600000D03*
X64543002Y-19700000D03*
X65000000Y-18800000D03*
X67600000Y-18400000D03*
X84700000Y-26900000D03*
X76600000Y-23400000D03*
X61811869Y-17614003D03*
X63100000Y-18535998D03*
X62700000Y-17614003D03*
X64196102Y-18496718D03*
X59800000Y-17200000D03*
X59100000Y-18500000D03*
X58500000Y-18100000D03*
X44142000Y-21458000D03*
X41642000Y-21458000D03*
X44042000Y-17658000D03*
X41642000Y-17658000D03*
X59000000Y-21800000D03*
X52000000Y-22100000D03*
X65100000Y-18000000D03*
X61800000Y-23000000D03*
X60200000Y-23000000D03*
X60200000Y-21300000D03*
X61800000Y-21287500D03*
X63300000Y-23000000D03*
X63300000Y-21300000D03*
X63300000Y-19600000D03*
X61800000Y-19600000D03*
X60200000Y-19600000D03*
X59200000Y-26600000D03*
X57900000Y-23510500D03*
X56864597Y-25274071D03*
X92300000Y-18400000D03*
X64620000Y-16480000D03*
X62120000Y-16480000D03*
X62080000Y-15520000D03*
X63280000Y-15520000D03*
X59780000Y-15520000D03*
X68250753Y-21200000D03*
X70830753Y-20480000D03*
X70950753Y-22100000D03*
X75950753Y-22200000D03*
X78550753Y-21200000D03*
X76150753Y-20500000D03*
X87800000Y-18400000D03*
X86095000Y-21405000D03*
X85800000Y-25100000D03*
X91200000Y-26900000D03*
X93000000Y-21400000D03*
X90600000Y-21400000D03*
X85900000Y-23900000D03*
X83700000Y-19500000D03*
X83800000Y-22800000D03*
X88300000Y-21100000D03*
X85300000Y-20800000D03*
X81300000Y-19500000D03*
X81400000Y-24100000D03*
D19*
X83937974Y-33902000D02*
X83764660Y-34075314D01*
X83764660Y-34075314D02*
X83764660Y-39225314D01*
X83764660Y-39225314D02*
X82647974Y-40342000D01*
X91557974Y-33902000D02*
X83937974Y-33902000D01*
X92847974Y-40342000D02*
X91557974Y-39052000D01*
X91557974Y-39052000D02*
X91557974Y-33902000D01*
X91557974Y-54102000D02*
X91557974Y-59252000D01*
X91557974Y-59252000D02*
X92847974Y-60542000D01*
X83937974Y-54102000D02*
X91557974Y-54102000D01*
X83937974Y-54102000D02*
X83937974Y-59252000D01*
X83937974Y-59252000D02*
X82647974Y-60542000D01*
X72527974Y-58002000D02*
X71237974Y-56712000D01*
X71237974Y-56712000D02*
X71237974Y-51562000D01*
X63617974Y-51562000D02*
X63617974Y-56712000D01*
X63617974Y-56712000D02*
X62327974Y-58002000D01*
X71237974Y-51562000D02*
X63617974Y-51562000D01*
X71237974Y-31362000D02*
X71237974Y-36512000D01*
X71237974Y-36512000D02*
X72527974Y-37802000D01*
X63617974Y-31362000D02*
X71237974Y-31362000D01*
X62327974Y-37802000D02*
X63617974Y-36512000D01*
X63617974Y-36512000D02*
X63617974Y-31362000D01*
X52492974Y-39072000D02*
X52492974Y-37192974D01*
X52492974Y-37192974D02*
X51202974Y-35902974D01*
X51202974Y-35902974D02*
X51202974Y-32632000D01*
D20*
X78501130Y-19898870D02*
X78900000Y-19500000D01*
X64741872Y-19898870D02*
X78501130Y-19898870D01*
X64543002Y-19700000D02*
X64741872Y-19898870D01*
G04 #@! TA.AperFunction,Conductor*
G36*
X96533134Y-13314647D02*
G01*
X96534008Y-13314881D01*
X96534010Y-13314881D01*
X96541959Y-13317011D01*
X96549908Y-13314881D01*
X96558136Y-13314881D01*
X96558136Y-13315233D01*
X96565592Y-13314580D01*
X96734910Y-13329388D01*
X96745631Y-13331277D01*
X96844176Y-13357679D01*
X96927444Y-13379988D01*
X96937682Y-13383714D01*
X97108264Y-13463253D01*
X97117700Y-13468700D01*
X97271884Y-13576657D01*
X97280230Y-13583660D01*
X97363806Y-13667233D01*
X97413322Y-13716748D01*
X97420325Y-13725094D01*
X97528288Y-13879278D01*
X97533729Y-13888704D01*
X97585832Y-14000436D01*
X97613277Y-14059292D01*
X97617000Y-14069518D01*
X97665717Y-14251338D01*
X97667607Y-14262061D01*
X97682412Y-14431285D01*
X97681751Y-14438837D01*
X97682086Y-14438837D01*
X97682086Y-14447064D01*
X97679956Y-14455012D01*
X97682085Y-14462958D01*
X97682085Y-14462962D01*
X97682371Y-14464029D01*
X97684500Y-14480085D01*
X97713642Y-29981679D01*
X97695419Y-30025907D01*
X97651050Y-30044296D01*
X70627881Y-30004380D01*
X70583714Y-29986009D01*
X70565473Y-29941788D01*
X70583844Y-29897621D01*
X70610379Y-29881908D01*
X70635740Y-29874468D01*
X70635741Y-29874467D01*
X70638596Y-29873630D01*
X70829866Y-29775120D01*
X70999057Y-29642218D01*
X71001001Y-29639978D01*
X71001005Y-29639974D01*
X71138113Y-29481970D01*
X71140065Y-29479721D01*
X71164862Y-29436859D01*
X71246310Y-29296070D01*
X71246312Y-29296067D01*
X71247801Y-29293492D01*
X71254561Y-29274026D01*
X71317401Y-29093067D01*
X71317402Y-29093065D01*
X71318379Y-29090250D01*
X71319094Y-29085323D01*
X71336572Y-28964777D01*
X71349251Y-28877329D01*
X71348582Y-28862869D01*
X71339442Y-28665382D01*
X71339441Y-28665377D01*
X71339304Y-28662411D01*
X71312438Y-28550933D01*
X71289595Y-28456152D01*
X71289595Y-28456151D01*
X71288896Y-28453252D01*
X71199846Y-28257398D01*
X71075369Y-28081917D01*
X70919954Y-27933140D01*
X70917460Y-27931530D01*
X70917458Y-27931528D01*
X70818322Y-27867517D01*
X70739210Y-27816435D01*
X70539658Y-27736013D01*
X70328499Y-27694777D01*
X70322836Y-27694500D01*
X69664215Y-27694500D01*
X69586989Y-27701868D01*
X69506762Y-27709522D01*
X69506759Y-27709523D01*
X69503799Y-27709805D01*
X69297352Y-27770370D01*
X69106082Y-27868880D01*
X68936891Y-28001782D01*
X68934947Y-28004022D01*
X68934943Y-28004026D01*
X68846458Y-28105996D01*
X68795883Y-28164279D01*
X68794392Y-28166856D01*
X68794390Y-28166859D01*
X68730287Y-28277666D01*
X68688147Y-28350508D01*
X68617569Y-28553750D01*
X68586697Y-28766671D01*
X68586834Y-28769636D01*
X68586834Y-28769641D01*
X68596465Y-28977712D01*
X68596644Y-28981589D01*
X68597341Y-28984480D01*
X68597341Y-28984482D01*
X68635661Y-29143482D01*
X68647052Y-29190748D01*
X68736102Y-29386602D01*
X68751545Y-29408373D01*
X68834257Y-29524975D01*
X68860579Y-29562083D01*
X69015994Y-29710860D01*
X69018488Y-29712470D01*
X69018490Y-29712472D01*
X69039677Y-29726152D01*
X69196738Y-29827565D01*
X69307663Y-29872269D01*
X69331714Y-29881962D01*
X69365861Y-29915460D01*
X69366320Y-29963294D01*
X69332822Y-29997441D01*
X69308260Y-30002431D01*
X68571830Y-30001343D01*
X66432023Y-29998182D01*
X66387856Y-29979811D01*
X66369615Y-29935755D01*
X66369542Y-29873630D01*
X66368995Y-29407368D01*
X66367858Y-29390205D01*
X66367703Y-29389025D01*
X66366276Y-29378207D01*
X66365742Y-29374154D01*
X66339568Y-29310902D01*
X66310481Y-29272927D01*
X66309335Y-29271723D01*
X66295196Y-29256868D01*
X66295194Y-29256866D01*
X66290951Y-29252409D01*
X66249168Y-29233882D01*
X66216188Y-29199233D01*
X66215462Y-29156244D01*
X66237401Y-29093067D01*
X66237402Y-29093065D01*
X66238379Y-29090250D01*
X66239094Y-29085323D01*
X66256572Y-28964777D01*
X66269251Y-28877329D01*
X66268582Y-28862869D01*
X66259442Y-28665382D01*
X66259441Y-28665377D01*
X66259304Y-28662411D01*
X66213079Y-28470610D01*
X66220520Y-28423358D01*
X66249852Y-28398254D01*
X66267703Y-28390835D01*
X66292548Y-28377231D01*
X66339326Y-28319043D01*
X66357579Y-28274830D01*
X66367606Y-28224112D01*
X66366874Y-27600000D01*
X66567448Y-27600000D01*
X66587503Y-27713739D01*
X66590236Y-27718473D01*
X66590237Y-27718475D01*
X66619715Y-27769532D01*
X66645250Y-27813760D01*
X66649438Y-27817274D01*
X66709316Y-27867517D01*
X66733724Y-27887998D01*
X66782723Y-27905833D01*
X66837114Y-27925630D01*
X66837117Y-27925630D01*
X66842253Y-27927500D01*
X66957747Y-27927500D01*
X66962883Y-27925630D01*
X66962886Y-27925630D01*
X67017277Y-27905833D01*
X67066276Y-27887998D01*
X67090685Y-27867517D01*
X67150562Y-27817274D01*
X67154750Y-27813760D01*
X67180285Y-27769532D01*
X67209763Y-27718475D01*
X67209764Y-27718473D01*
X67212497Y-27713739D01*
X67232552Y-27600000D01*
X67212497Y-27486261D01*
X67154750Y-27386240D01*
X67066276Y-27312002D01*
X67017277Y-27294167D01*
X66962886Y-27274370D01*
X66962883Y-27274370D01*
X66957747Y-27272500D01*
X66842253Y-27272500D01*
X66837117Y-27274370D01*
X66837114Y-27274370D01*
X66782723Y-27294167D01*
X66733724Y-27312002D01*
X66645250Y-27386240D01*
X66587503Y-27486261D01*
X66567448Y-27600000D01*
X66366874Y-27600000D01*
X66363471Y-24700000D01*
X67967448Y-24700000D01*
X67987503Y-24813739D01*
X68045250Y-24913760D01*
X68133724Y-24987998D01*
X68182723Y-25005833D01*
X68237114Y-25025630D01*
X68237117Y-25025630D01*
X68242253Y-25027500D01*
X68357747Y-25027500D01*
X68362883Y-25025630D01*
X68362886Y-25025630D01*
X68417277Y-25005833D01*
X68466276Y-24987998D01*
X68554750Y-24913760D01*
X68612497Y-24813739D01*
X68632552Y-24700000D01*
X68612497Y-24586261D01*
X68554750Y-24486240D01*
X68466276Y-24412002D01*
X68417277Y-24394167D01*
X68362886Y-24374370D01*
X68362883Y-24374370D01*
X68357747Y-24372500D01*
X68242253Y-24372500D01*
X68237117Y-24374370D01*
X68237114Y-24374370D01*
X68182723Y-24394167D01*
X68133724Y-24412002D01*
X68045250Y-24486240D01*
X67987503Y-24586261D01*
X67967448Y-24700000D01*
X66363471Y-24700000D01*
X66362285Y-23689867D01*
X66361945Y-23400000D01*
X76267448Y-23400000D01*
X76287503Y-23513739D01*
X76345250Y-23613760D01*
X76433724Y-23687998D01*
X76482723Y-23705833D01*
X76537114Y-23725630D01*
X76537117Y-23725630D01*
X76542253Y-23727500D01*
X76657747Y-23727500D01*
X76662883Y-23725630D01*
X76662886Y-23725630D01*
X76717277Y-23705833D01*
X76766276Y-23687998D01*
X76854750Y-23613760D01*
X76912497Y-23513739D01*
X76932552Y-23400000D01*
X76912497Y-23286261D01*
X76854750Y-23186240D01*
X76766276Y-23112002D01*
X76717277Y-23094167D01*
X76662886Y-23074370D01*
X76662883Y-23074370D01*
X76657747Y-23072500D01*
X76542253Y-23072500D01*
X76537117Y-23074370D01*
X76537114Y-23074370D01*
X76482723Y-23094167D01*
X76433724Y-23112002D01*
X76345250Y-23186240D01*
X76287503Y-23286261D01*
X76267448Y-23400000D01*
X66361945Y-23400000D01*
X66360419Y-22100000D01*
X70618201Y-22100000D01*
X70638256Y-22213739D01*
X70696003Y-22313760D01*
X70784477Y-22387998D01*
X70833476Y-22405833D01*
X70887867Y-22425630D01*
X70887870Y-22425630D01*
X70893006Y-22427500D01*
X71008500Y-22427500D01*
X71013636Y-22425630D01*
X71013639Y-22425630D01*
X71068030Y-22405833D01*
X71117029Y-22387998D01*
X71205503Y-22313760D01*
X71263250Y-22213739D01*
X71265673Y-22200000D01*
X75618201Y-22200000D01*
X75638256Y-22313739D01*
X75640989Y-22318473D01*
X75640990Y-22318475D01*
X75662178Y-22355174D01*
X75696003Y-22413760D01*
X75700191Y-22417274D01*
X75765706Y-22472247D01*
X75784477Y-22487998D01*
X75823683Y-22502268D01*
X75887867Y-22525630D01*
X75887870Y-22525630D01*
X75893006Y-22527500D01*
X76008500Y-22527500D01*
X76013636Y-22525630D01*
X76013639Y-22525630D01*
X76077823Y-22502268D01*
X76117029Y-22487998D01*
X76135801Y-22472247D01*
X76201315Y-22417274D01*
X76205503Y-22413760D01*
X76239328Y-22355174D01*
X76260516Y-22318475D01*
X76260517Y-22318473D01*
X76263250Y-22313739D01*
X76283305Y-22200000D01*
X76263250Y-22086261D01*
X76205503Y-21986240D01*
X76123434Y-21917376D01*
X76121217Y-21915516D01*
X76117029Y-21912002D01*
X76068030Y-21894167D01*
X76013639Y-21874370D01*
X76013636Y-21874370D01*
X76008500Y-21872500D01*
X75893006Y-21872500D01*
X75887870Y-21874370D01*
X75887867Y-21874370D01*
X75833476Y-21894167D01*
X75784477Y-21912002D01*
X75780289Y-21915516D01*
X75778072Y-21917376D01*
X75696003Y-21986240D01*
X75638256Y-22086261D01*
X75618201Y-22200000D01*
X71265673Y-22200000D01*
X71283305Y-22100000D01*
X71263250Y-21986261D01*
X71247903Y-21959678D01*
X71223479Y-21917376D01*
X71205503Y-21886240D01*
X71135841Y-21827787D01*
X71121217Y-21815516D01*
X71117029Y-21812002D01*
X71044217Y-21785500D01*
X71013639Y-21774370D01*
X71013636Y-21774370D01*
X71008500Y-21772500D01*
X70893006Y-21772500D01*
X70887870Y-21774370D01*
X70887867Y-21774370D01*
X70857289Y-21785500D01*
X70784477Y-21812002D01*
X70780289Y-21815516D01*
X70765665Y-21827787D01*
X70696003Y-21886240D01*
X70678027Y-21917376D01*
X70653604Y-21959678D01*
X70638256Y-21986261D01*
X70618201Y-22100000D01*
X66360419Y-22100000D01*
X66359879Y-21639748D01*
X66359879Y-21639738D01*
X66359877Y-21638398D01*
X66357851Y-21615471D01*
X66354082Y-21594167D01*
X66352121Y-21590194D01*
X66352120Y-21590190D01*
X66323258Y-21531708D01*
X66323257Y-21531706D01*
X66321296Y-21527733D01*
X66313166Y-21518861D01*
X66296804Y-21473911D01*
X66305118Y-21445386D01*
X66335535Y-21392703D01*
X66335536Y-21392701D01*
X66338269Y-21387967D01*
X66358324Y-21274228D01*
X66345236Y-21200000D01*
X67918201Y-21200000D01*
X67938256Y-21313739D01*
X67940989Y-21318473D01*
X67940990Y-21318475D01*
X67955878Y-21344261D01*
X67996003Y-21413760D01*
X68084477Y-21487998D01*
X68133476Y-21505833D01*
X68187867Y-21525630D01*
X68187870Y-21525630D01*
X68193006Y-21527500D01*
X68308500Y-21527500D01*
X68313636Y-21525630D01*
X68313639Y-21525630D01*
X68368030Y-21505833D01*
X68417029Y-21487998D01*
X68505503Y-21413760D01*
X68545628Y-21344261D01*
X68560516Y-21318475D01*
X68560517Y-21318473D01*
X68563250Y-21313739D01*
X68583305Y-21200000D01*
X68563250Y-21086261D01*
X68505503Y-20986240D01*
X68417029Y-20912002D01*
X68355396Y-20889569D01*
X68313639Y-20874370D01*
X68313636Y-20874370D01*
X68308500Y-20872500D01*
X68193006Y-20872500D01*
X68187870Y-20874370D01*
X68187867Y-20874370D01*
X68146110Y-20889569D01*
X68084477Y-20912002D01*
X67996003Y-20986240D01*
X67938256Y-21086261D01*
X67918201Y-21200000D01*
X66345236Y-21200000D01*
X66338269Y-21160489D01*
X66335534Y-21155752D01*
X66335533Y-21155749D01*
X66304009Y-21101148D01*
X66297765Y-21053722D01*
X66309424Y-21030738D01*
X66330741Y-21004222D01*
X66348995Y-20960007D01*
X66349590Y-20956995D01*
X66349592Y-20956990D01*
X66358426Y-20912303D01*
X66358426Y-20912302D01*
X66359022Y-20909288D01*
X66358293Y-20288942D01*
X66376547Y-20244728D01*
X66420793Y-20226370D01*
X78361885Y-20226370D01*
X78406079Y-20244676D01*
X78424384Y-20289126D01*
X78423476Y-20511017D01*
X78422295Y-20799458D01*
X78422201Y-20799458D01*
X78422200Y-20799460D01*
X78422295Y-20799460D01*
X78422293Y-20800000D01*
X78422282Y-20800000D01*
X78422293Y-20800026D01*
X78422249Y-20810746D01*
X78422609Y-20813132D01*
X78422609Y-20813135D01*
X78427133Y-20843140D01*
X78415621Y-20889569D01*
X78393577Y-20906057D01*
X78394351Y-20907397D01*
X78389613Y-20910133D01*
X78384477Y-20912002D01*
X78296003Y-20986240D01*
X78238256Y-21086261D01*
X78218201Y-21200000D01*
X78238256Y-21313739D01*
X78240989Y-21318473D01*
X78240990Y-21318475D01*
X78255878Y-21344261D01*
X78296003Y-21413760D01*
X78384477Y-21487998D01*
X78389616Y-21489868D01*
X78394349Y-21492601D01*
X78392792Y-21495299D01*
X78420321Y-21520523D01*
X78424926Y-21559381D01*
X78419067Y-21588219D01*
X78419054Y-21591290D01*
X78419054Y-21591294D01*
X78414109Y-22799458D01*
X78414107Y-22800000D01*
X78414097Y-22800000D01*
X78414107Y-22800025D01*
X78410796Y-23609026D01*
X78404696Y-25099458D01*
X78404694Y-25100000D01*
X78404684Y-25100000D01*
X78404694Y-25100025D01*
X78397329Y-26899458D01*
X78397327Y-26900000D01*
X78397317Y-26900000D01*
X78397327Y-26900025D01*
X78388920Y-28954134D01*
X78388823Y-28977712D01*
X78398380Y-29027666D01*
X78415941Y-29071359D01*
X78416704Y-29072803D01*
X78424363Y-29087300D01*
X78428776Y-29095654D01*
X78486104Y-29143482D01*
X78529980Y-29162536D01*
X78549581Y-29166782D01*
X78577506Y-29172832D01*
X78577511Y-29172833D01*
X78580509Y-29173482D01*
X93412511Y-29425359D01*
X93438346Y-29420588D01*
X93461112Y-29416384D01*
X93461114Y-29416383D01*
X93464181Y-29415817D01*
X93509259Y-29397696D01*
X93534970Y-29383897D01*
X93560954Y-29351917D01*
X93579232Y-29329420D01*
X93582049Y-29325953D01*
X93589712Y-29307661D01*
X93599347Y-29284661D01*
X93599347Y-29284660D01*
X93600532Y-29281832D01*
X93610821Y-29231165D01*
X93632791Y-23727500D01*
X93641626Y-21514219D01*
X94347500Y-21514219D01*
X94347501Y-22285780D01*
X94358422Y-22359979D01*
X94360562Y-22364337D01*
X94360562Y-22364338D01*
X94403820Y-22452442D01*
X94413810Y-22472790D01*
X94417462Y-22476436D01*
X94417463Y-22476437D01*
X94499098Y-22557930D01*
X94499100Y-22557932D01*
X94502753Y-22561578D01*
X94615661Y-22616769D01*
X94620464Y-22617470D01*
X94620465Y-22617470D01*
X94642440Y-22620676D01*
X94689219Y-22627500D01*
X95348255Y-22627500D01*
X96010780Y-22627499D01*
X96084979Y-22616578D01*
X96089338Y-22614438D01*
X96193155Y-22563466D01*
X96193156Y-22563465D01*
X96197790Y-22561190D01*
X96201437Y-22557537D01*
X96282930Y-22475902D01*
X96282932Y-22475900D01*
X96286578Y-22472247D01*
X96317481Y-22409026D01*
X96339638Y-22363699D01*
X96339638Y-22363698D01*
X96341769Y-22359339D01*
X96352500Y-22285781D01*
X96352499Y-21514220D01*
X96341578Y-21440021D01*
X96330410Y-21417274D01*
X96288466Y-21331845D01*
X96288465Y-21331844D01*
X96286190Y-21327210D01*
X96277440Y-21318475D01*
X96200902Y-21242070D01*
X96200900Y-21242068D01*
X96197247Y-21238422D01*
X96129655Y-21205382D01*
X96088699Y-21185362D01*
X96088698Y-21185362D01*
X96084339Y-21183231D01*
X96079536Y-21182530D01*
X96079535Y-21182530D01*
X96057560Y-21179324D01*
X96010781Y-21172500D01*
X95351745Y-21172500D01*
X94689220Y-21172501D01*
X94615021Y-21183422D01*
X94610663Y-21185562D01*
X94610662Y-21185562D01*
X94506845Y-21236534D01*
X94506844Y-21236535D01*
X94502210Y-21238810D01*
X94498564Y-21242462D01*
X94498563Y-21242463D01*
X94417070Y-21324098D01*
X94417068Y-21324100D01*
X94413422Y-21327753D01*
X94411154Y-21332393D01*
X94360675Y-21435662D01*
X94358231Y-21440661D01*
X94357530Y-21445464D01*
X94357530Y-21445465D01*
X94354916Y-21463382D01*
X94347500Y-21514219D01*
X93641626Y-21514219D01*
X93647912Y-19939610D01*
X94343619Y-19939610D01*
X94372348Y-20106802D01*
X94438768Y-20262900D01*
X94539318Y-20399532D01*
X94668603Y-20509367D01*
X94742046Y-20546869D01*
X94816453Y-20584864D01*
X94816456Y-20584865D01*
X94819687Y-20586515D01*
X94984468Y-20626837D01*
X94991746Y-20627288D01*
X94994187Y-20627440D01*
X94994191Y-20627440D01*
X94995156Y-20627500D01*
X95667483Y-20627500D01*
X95669273Y-20627291D01*
X95669278Y-20627291D01*
X95717399Y-20621680D01*
X95793501Y-20612808D01*
X95863559Y-20587378D01*
X95949547Y-20556166D01*
X95949550Y-20556165D01*
X95952962Y-20554926D01*
X95955999Y-20552935D01*
X96091797Y-20463902D01*
X96091798Y-20463901D01*
X96094832Y-20461912D01*
X96211498Y-20338757D01*
X96296703Y-20192065D01*
X96345877Y-20029706D01*
X96356381Y-19860390D01*
X96327652Y-19693198D01*
X96261232Y-19537100D01*
X96160682Y-19400468D01*
X96031397Y-19290633D01*
X95942176Y-19245074D01*
X95883547Y-19215136D01*
X95883544Y-19215135D01*
X95880313Y-19213485D01*
X95715532Y-19173163D01*
X95708213Y-19172709D01*
X95705813Y-19172560D01*
X95705809Y-19172560D01*
X95704844Y-19172500D01*
X95032517Y-19172500D01*
X95030727Y-19172709D01*
X95030722Y-19172709D01*
X94982601Y-19178320D01*
X94906499Y-19187192D01*
X94903083Y-19188432D01*
X94750453Y-19243834D01*
X94750450Y-19243835D01*
X94747038Y-19245074D01*
X94744002Y-19247065D01*
X94744001Y-19247065D01*
X94673968Y-19292981D01*
X94605168Y-19338088D01*
X94488502Y-19461243D01*
X94403297Y-19607935D01*
X94354123Y-19770294D01*
X94343619Y-19939610D01*
X93647912Y-19939610D01*
X93651397Y-19066635D01*
X93651397Y-19066632D01*
X93651409Y-19063549D01*
X93641424Y-19012556D01*
X93623118Y-18968114D01*
X93618608Y-18959836D01*
X93612395Y-18948429D01*
X93612394Y-18948427D01*
X93609443Y-18943011D01*
X93594313Y-18930819D01*
X93554789Y-18898967D01*
X93554786Y-18898965D01*
X93551310Y-18896164D01*
X93507116Y-18877858D01*
X93504112Y-18877260D01*
X93504107Y-18877259D01*
X93459423Y-18868371D01*
X93459420Y-18868371D01*
X93456410Y-18867772D01*
X78624404Y-18867772D01*
X78621407Y-18868365D01*
X78618383Y-18868661D01*
X78572615Y-18854749D01*
X78550089Y-18812549D01*
X78549792Y-18806458D01*
X78549792Y-18400000D01*
X87467448Y-18400000D01*
X87487503Y-18513739D01*
X87545250Y-18613760D01*
X87633724Y-18687998D01*
X87682723Y-18705833D01*
X87737114Y-18725630D01*
X87737117Y-18725630D01*
X87742253Y-18727500D01*
X87857747Y-18727500D01*
X87862883Y-18725630D01*
X87862886Y-18725630D01*
X87917277Y-18705833D01*
X87966276Y-18687998D01*
X88054750Y-18613760D01*
X88112497Y-18513739D01*
X88132552Y-18400000D01*
X88112497Y-18286261D01*
X88054750Y-18186240D01*
X87966276Y-18112002D01*
X87910484Y-18091695D01*
X87862886Y-18074370D01*
X87862883Y-18074370D01*
X87857747Y-18072500D01*
X87742253Y-18072500D01*
X87737117Y-18074370D01*
X87737114Y-18074370D01*
X87689516Y-18091695D01*
X87633724Y-18112002D01*
X87545250Y-18186240D01*
X87487503Y-18286261D01*
X87467448Y-18400000D01*
X78549792Y-18400000D01*
X78549792Y-17932394D01*
X78545284Y-17896706D01*
X78535401Y-17818482D01*
X78534908Y-17814577D01*
X78532609Y-17808769D01*
X78477991Y-17670820D01*
X78476545Y-17667167D01*
X78472761Y-17661958D01*
X78385668Y-17542086D01*
X78385666Y-17542084D01*
X78383355Y-17538903D01*
X78380326Y-17536397D01*
X78380324Y-17536395D01*
X78268926Y-17444240D01*
X78261195Y-17437844D01*
X78117741Y-17370339D01*
X78106177Y-17368133D01*
X77965871Y-17341368D01*
X77965869Y-17341368D01*
X77962006Y-17340631D01*
X77958080Y-17340878D01*
X77807700Y-17350339D01*
X77807699Y-17350339D01*
X77803776Y-17350586D01*
X77800038Y-17351801D01*
X77800036Y-17351801D01*
X77737837Y-17372011D01*
X77652992Y-17399579D01*
X77519130Y-17484530D01*
X77516441Y-17487394D01*
X77516438Y-17487396D01*
X77451535Y-17556511D01*
X77410599Y-17600103D01*
X77334220Y-17739036D01*
X77294792Y-17892598D01*
X77294792Y-19111346D01*
X77295039Y-19113298D01*
X77295039Y-19113304D01*
X77299819Y-19151142D01*
X77309676Y-19229163D01*
X77311123Y-19232819D01*
X77311124Y-19232821D01*
X77316764Y-19247065D01*
X77368039Y-19376573D01*
X77370348Y-19379751D01*
X77370349Y-19379753D01*
X77437468Y-19472133D01*
X77448636Y-19518647D01*
X77423642Y-19559433D01*
X77386905Y-19571370D01*
X69818464Y-19571370D01*
X69774270Y-19553064D01*
X69755964Y-19508870D01*
X69772902Y-19466088D01*
X69793985Y-19443637D01*
X69870364Y-19304704D01*
X69909792Y-19151142D01*
X69909792Y-17955966D01*
X70256092Y-17955966D01*
X70265702Y-18091695D01*
X70314797Y-18218597D01*
X70399036Y-18325454D01*
X70402879Y-18328110D01*
X70402881Y-18328112D01*
X70466925Y-18372375D01*
X70510971Y-18402817D01*
X70640706Y-18443847D01*
X70644261Y-18444127D01*
X70644262Y-18444127D01*
X70646112Y-18444273D01*
X70646125Y-18444274D01*
X70647351Y-18444370D01*
X70746287Y-18444370D01*
X70806275Y-18435351D01*
X70842227Y-18429946D01*
X70842229Y-18429946D01*
X70846848Y-18429251D01*
X70851059Y-18427229D01*
X70965294Y-18372375D01*
X70965296Y-18372373D01*
X70969508Y-18370351D01*
X71069426Y-18277988D01*
X71103923Y-18218597D01*
X71135423Y-18164366D01*
X71135424Y-18164364D01*
X71137768Y-18160328D01*
X71158125Y-18072500D01*
X71167438Y-18032323D01*
X71167438Y-18032320D01*
X71168492Y-18027774D01*
X71163408Y-17955966D01*
X76036092Y-17955966D01*
X76045702Y-18091695D01*
X76094797Y-18218597D01*
X76179036Y-18325454D01*
X76182879Y-18328110D01*
X76182881Y-18328112D01*
X76246925Y-18372375D01*
X76290971Y-18402817D01*
X76420706Y-18443847D01*
X76424261Y-18444127D01*
X76424262Y-18444127D01*
X76426112Y-18444273D01*
X76426125Y-18444274D01*
X76427351Y-18444370D01*
X76526287Y-18444370D01*
X76586275Y-18435351D01*
X76622227Y-18429946D01*
X76622229Y-18429946D01*
X76626848Y-18429251D01*
X76631059Y-18427229D01*
X76745294Y-18372375D01*
X76745296Y-18372373D01*
X76749508Y-18370351D01*
X76849426Y-18277988D01*
X76883923Y-18218597D01*
X76915423Y-18164366D01*
X76915424Y-18164364D01*
X76917768Y-18160328D01*
X76938125Y-18072500D01*
X76947438Y-18032323D01*
X76947438Y-18032320D01*
X76948492Y-18027774D01*
X76938882Y-17892045D01*
X76928666Y-17865639D01*
X76891472Y-17769498D01*
X76891471Y-17769497D01*
X76889787Y-17765143D01*
X76810043Y-17663987D01*
X76808443Y-17661958D01*
X76808442Y-17661957D01*
X76805548Y-17658286D01*
X76801705Y-17655630D01*
X76801703Y-17655628D01*
X76697460Y-17583582D01*
X76697461Y-17583582D01*
X76693613Y-17580923D01*
X76563878Y-17539893D01*
X76560323Y-17539613D01*
X76560322Y-17539613D01*
X76558472Y-17539467D01*
X76558459Y-17539466D01*
X76557233Y-17539370D01*
X76458297Y-17539370D01*
X76398309Y-17548389D01*
X76362357Y-17553794D01*
X76362355Y-17553794D01*
X76357736Y-17554489D01*
X76353525Y-17556511D01*
X76239290Y-17611365D01*
X76239288Y-17611367D01*
X76235076Y-17613389D01*
X76135158Y-17705752D01*
X76132811Y-17709793D01*
X76132810Y-17709794D01*
X76069680Y-17818482D01*
X76066816Y-17823412D01*
X76056707Y-17867026D01*
X76041099Y-17934366D01*
X76036092Y-17955966D01*
X71163408Y-17955966D01*
X71158882Y-17892045D01*
X71148666Y-17865639D01*
X71111472Y-17769498D01*
X71111471Y-17769497D01*
X71109787Y-17765143D01*
X71030043Y-17663987D01*
X71028443Y-17661958D01*
X71028442Y-17661957D01*
X71025548Y-17658286D01*
X71021705Y-17655630D01*
X71021703Y-17655628D01*
X70917460Y-17583582D01*
X70917461Y-17583582D01*
X70913613Y-17580923D01*
X70783878Y-17539893D01*
X70780323Y-17539613D01*
X70780322Y-17539613D01*
X70778472Y-17539467D01*
X70778459Y-17539466D01*
X70777233Y-17539370D01*
X70678297Y-17539370D01*
X70618309Y-17548389D01*
X70582357Y-17553794D01*
X70582355Y-17553794D01*
X70577736Y-17554489D01*
X70573525Y-17556511D01*
X70459290Y-17611365D01*
X70459288Y-17611367D01*
X70455076Y-17613389D01*
X70355158Y-17705752D01*
X70352811Y-17709793D01*
X70352810Y-17709794D01*
X70289680Y-17818482D01*
X70286816Y-17823412D01*
X70276707Y-17867026D01*
X70261099Y-17934366D01*
X70256092Y-17955966D01*
X69909792Y-17955966D01*
X69909792Y-17932394D01*
X69905284Y-17896706D01*
X69895401Y-17818482D01*
X69894908Y-17814577D01*
X69892609Y-17808769D01*
X69837991Y-17670820D01*
X69836545Y-17667167D01*
X69832761Y-17661958D01*
X69745668Y-17542086D01*
X69745666Y-17542084D01*
X69743355Y-17538903D01*
X69740326Y-17536397D01*
X69740324Y-17536395D01*
X69628926Y-17444240D01*
X69621195Y-17437844D01*
X69477741Y-17370339D01*
X69466177Y-17368133D01*
X69325871Y-17341368D01*
X69325869Y-17341368D01*
X69322006Y-17340631D01*
X69318080Y-17340878D01*
X69167700Y-17350339D01*
X69167699Y-17350339D01*
X69163776Y-17350586D01*
X69160038Y-17351801D01*
X69160036Y-17351801D01*
X69097837Y-17372011D01*
X69012992Y-17399579D01*
X68879130Y-17484530D01*
X68876441Y-17487394D01*
X68876438Y-17487396D01*
X68811535Y-17556511D01*
X68770599Y-17600103D01*
X68694220Y-17739036D01*
X68654792Y-17892598D01*
X68654792Y-19111346D01*
X68655039Y-19113298D01*
X68655039Y-19113304D01*
X68659819Y-19151142D01*
X68669676Y-19229163D01*
X68671123Y-19232819D01*
X68671124Y-19232821D01*
X68676764Y-19247065D01*
X68728039Y-19376573D01*
X68730348Y-19379751D01*
X68730349Y-19379753D01*
X68797468Y-19472133D01*
X68808636Y-19518647D01*
X68783642Y-19559433D01*
X68746905Y-19571370D01*
X66419849Y-19571370D01*
X66375655Y-19553064D01*
X66357349Y-19508870D01*
X66357354Y-19508761D01*
X66357378Y-19508641D01*
X66357368Y-19499458D01*
X66356077Y-18400000D01*
X67267448Y-18400000D01*
X67287503Y-18513739D01*
X67345250Y-18613760D01*
X67433724Y-18687998D01*
X67482723Y-18705833D01*
X67537114Y-18725630D01*
X67537117Y-18725630D01*
X67542253Y-18727500D01*
X67657747Y-18727500D01*
X67662883Y-18725630D01*
X67662886Y-18725630D01*
X67717277Y-18705833D01*
X67766276Y-18687998D01*
X67854750Y-18613760D01*
X67912497Y-18513739D01*
X67932552Y-18400000D01*
X67912497Y-18286261D01*
X67854750Y-18186240D01*
X67766276Y-18112002D01*
X67710484Y-18091695D01*
X67662886Y-18074370D01*
X67662883Y-18074370D01*
X67657747Y-18072500D01*
X67542253Y-18072500D01*
X67537117Y-18074370D01*
X67537114Y-18074370D01*
X67489516Y-18091695D01*
X67433724Y-18112002D01*
X67345250Y-18186240D01*
X67287503Y-18286261D01*
X67267448Y-18400000D01*
X66356077Y-18400000D01*
X66353909Y-16552971D01*
X85372053Y-16552971D01*
X85409640Y-16684483D01*
X85412016Y-16688248D01*
X85412016Y-16688249D01*
X85415382Y-16693583D01*
X85482626Y-16800160D01*
X85485958Y-16803103D01*
X85485960Y-16803105D01*
X85490973Y-16807532D01*
X85585146Y-16890702D01*
X85595900Y-16895751D01*
X85704926Y-16946939D01*
X85704929Y-16946940D01*
X85708957Y-16948831D01*
X85713356Y-16949516D01*
X85723857Y-16951151D01*
X85812803Y-16965000D01*
X85884285Y-16965000D01*
X85985396Y-16950520D01*
X86047652Y-16922213D01*
X86105853Y-16895751D01*
X86105854Y-16895750D01*
X86109908Y-16893907D01*
X86213527Y-16804624D01*
X86287921Y-16689848D01*
X86289526Y-16684483D01*
X86325835Y-16563071D01*
X86327111Y-16558805D01*
X86327147Y-16552971D01*
X88272053Y-16552971D01*
X88309640Y-16684483D01*
X88312016Y-16688248D01*
X88312016Y-16688249D01*
X88315382Y-16693583D01*
X88382626Y-16800160D01*
X88385958Y-16803103D01*
X88385960Y-16803105D01*
X88390973Y-16807532D01*
X88485146Y-16890702D01*
X88495900Y-16895751D01*
X88604926Y-16946939D01*
X88604929Y-16946940D01*
X88608957Y-16948831D01*
X88613356Y-16949516D01*
X88623857Y-16951151D01*
X88712803Y-16965000D01*
X88784285Y-16965000D01*
X88885396Y-16950520D01*
X88947652Y-16922213D01*
X89005853Y-16895751D01*
X89005854Y-16895750D01*
X89009908Y-16893907D01*
X89113527Y-16804624D01*
X89187921Y-16689848D01*
X89189526Y-16684483D01*
X89225835Y-16563071D01*
X89227111Y-16558805D01*
X89227947Y-16422029D01*
X89190360Y-16290517D01*
X89186975Y-16285152D01*
X89119748Y-16178602D01*
X89119747Y-16178600D01*
X89117374Y-16174840D01*
X89114042Y-16171897D01*
X89114040Y-16171895D01*
X89018191Y-16087245D01*
X89018190Y-16087245D01*
X89014854Y-16084298D01*
X88996615Y-16075735D01*
X88895074Y-16028061D01*
X88895071Y-16028060D01*
X88891043Y-16026169D01*
X88880196Y-16024480D01*
X88870435Y-16022960D01*
X88787197Y-16010000D01*
X88715715Y-16010000D01*
X88614604Y-16024480D01*
X88552348Y-16052787D01*
X88494147Y-16079249D01*
X88494146Y-16079250D01*
X88490092Y-16081093D01*
X88386473Y-16170376D01*
X88312079Y-16285152D01*
X88310804Y-16289414D01*
X88310804Y-16289415D01*
X88309194Y-16294798D01*
X88272889Y-16416195D01*
X88272053Y-16552971D01*
X86327147Y-16552971D01*
X86327947Y-16422029D01*
X86290360Y-16290517D01*
X86286975Y-16285152D01*
X86219748Y-16178602D01*
X86219747Y-16178600D01*
X86217374Y-16174840D01*
X86214042Y-16171897D01*
X86214040Y-16171895D01*
X86118191Y-16087245D01*
X86118190Y-16087245D01*
X86114854Y-16084298D01*
X86096615Y-16075735D01*
X85995074Y-16028061D01*
X85995071Y-16028060D01*
X85991043Y-16026169D01*
X85980196Y-16024480D01*
X85970435Y-16022960D01*
X85887197Y-16010000D01*
X85815715Y-16010000D01*
X85714604Y-16024480D01*
X85652348Y-16052787D01*
X85594147Y-16079249D01*
X85594146Y-16079250D01*
X85590092Y-16081093D01*
X85486473Y-16170376D01*
X85412079Y-16285152D01*
X85410804Y-16289414D01*
X85410804Y-16289415D01*
X85409194Y-16294798D01*
X85372889Y-16416195D01*
X85372053Y-16552971D01*
X66353909Y-16552971D01*
X66351811Y-14765343D01*
X66351811Y-14765339D01*
X66351807Y-14762271D01*
X66341691Y-14711649D01*
X66323385Y-14667528D01*
X66309840Y-14642739D01*
X66305049Y-14638878D01*
X66255186Y-14598695D01*
X66255183Y-14598693D01*
X66251707Y-14595892D01*
X66207513Y-14577586D01*
X66204509Y-14576988D01*
X66204504Y-14576987D01*
X66159820Y-14568099D01*
X66159817Y-14568099D01*
X66156807Y-14567500D01*
X55363713Y-14567500D01*
X55311833Y-14578079D01*
X55266797Y-14597243D01*
X55265279Y-14598101D01*
X55265274Y-14598103D01*
X55255424Y-14603667D01*
X55241030Y-14611799D01*
X55195310Y-14670822D01*
X55193681Y-14674980D01*
X55193679Y-14674983D01*
X55191186Y-14681346D01*
X55177858Y-14715359D01*
X55177318Y-14718378D01*
X55177317Y-14718380D01*
X55173304Y-14740803D01*
X55168749Y-14766248D01*
X55183241Y-15520000D01*
X55183290Y-15522547D01*
X55215541Y-17200000D01*
X55215590Y-17202547D01*
X55223500Y-17614003D01*
X55223549Y-17616550D01*
X55232844Y-18100000D01*
X55232893Y-18102547D01*
X55237879Y-18361893D01*
X55246302Y-18800000D01*
X55261684Y-19600000D01*
X55265529Y-19800000D01*
X55265578Y-19802547D01*
X55293021Y-21229941D01*
X55293070Y-21232488D01*
X55321284Y-22700000D01*
X55327052Y-23000000D01*
X55327101Y-23002547D01*
X55336867Y-23510500D01*
X55336916Y-23513047D01*
X55347028Y-24039002D01*
X55347077Y-24041549D01*
X55353969Y-24400000D01*
X55354018Y-24402547D01*
X55365244Y-24986418D01*
X55370774Y-25274071D01*
X55370823Y-25276618D01*
X55377041Y-25600000D01*
X55396267Y-26600000D01*
X55396316Y-26602547D01*
X55403958Y-27000000D01*
X55404007Y-27002547D01*
X55416655Y-27660443D01*
X55423152Y-27698950D01*
X55423476Y-27699946D01*
X55424292Y-27725429D01*
X55418524Y-27757653D01*
X55435978Y-28665448D01*
X55439377Y-28692825D01*
X55445223Y-28718042D01*
X55447596Y-28722106D01*
X55480609Y-28778650D01*
X55487083Y-28826046D01*
X55476045Y-28848437D01*
X55468089Y-28858708D01*
X55450637Y-28903245D01*
X55441528Y-28954134D01*
X55441587Y-28957203D01*
X55460062Y-29918182D01*
X55442609Y-29962720D01*
X55397482Y-29981883D01*
X51363925Y-29975925D01*
X51319758Y-29957554D01*
X51303257Y-29928068D01*
X51300875Y-29918182D01*
X51253896Y-29723252D01*
X51164846Y-29527398D01*
X51078988Y-29406360D01*
X51042093Y-29354347D01*
X51042091Y-29354345D01*
X51040369Y-29351917D01*
X50964018Y-29278827D01*
X50887103Y-29205197D01*
X50887102Y-29205196D01*
X50884954Y-29203140D01*
X50882460Y-29201530D01*
X50882458Y-29201528D01*
X50783322Y-29137517D01*
X50704210Y-29086435D01*
X50504658Y-29006013D01*
X50293499Y-28964777D01*
X50287836Y-28964500D01*
X49629215Y-28964500D01*
X49548084Y-28972241D01*
X49471762Y-28979522D01*
X49471759Y-28979523D01*
X49468799Y-28979805D01*
X49462718Y-28981589D01*
X49315780Y-29024696D01*
X49262352Y-29040370D01*
X49071082Y-29138880D01*
X49068743Y-29140718D01*
X49068742Y-29140718D01*
X48950140Y-29233882D01*
X48901891Y-29271782D01*
X48899947Y-29274022D01*
X48899943Y-29274026D01*
X48816334Y-29370377D01*
X48760883Y-29434279D01*
X48759392Y-29436856D01*
X48759390Y-29436859D01*
X48654638Y-29617930D01*
X48653147Y-29620508D01*
X48652171Y-29623320D01*
X48652170Y-29623321D01*
X48600095Y-29773282D01*
X48582569Y-29823750D01*
X48582142Y-29826697D01*
X48582141Y-29826700D01*
X48568878Y-29918173D01*
X48544420Y-29959283D01*
X48506933Y-29971705D01*
X46859459Y-29969272D01*
X46282116Y-29968419D01*
X46237949Y-29950048D01*
X46221448Y-29920562D01*
X46220875Y-29918182D01*
X46173896Y-29723252D01*
X46084846Y-29527398D01*
X45998988Y-29406360D01*
X45962093Y-29354347D01*
X45962091Y-29354345D01*
X45960369Y-29351917D01*
X45884018Y-29278827D01*
X45807103Y-29205197D01*
X45807102Y-29205196D01*
X45804954Y-29203140D01*
X45802460Y-29201530D01*
X45802458Y-29201528D01*
X45703322Y-29137517D01*
X45624210Y-29086435D01*
X45424658Y-29006013D01*
X45213499Y-28964777D01*
X45207836Y-28964500D01*
X44549215Y-28964500D01*
X44468084Y-28972241D01*
X44391762Y-28979522D01*
X44391759Y-28979523D01*
X44388799Y-28979805D01*
X44382718Y-28981589D01*
X44235780Y-29024696D01*
X44182352Y-29040370D01*
X43991082Y-29138880D01*
X43988743Y-29140718D01*
X43988742Y-29140718D01*
X43870140Y-29233882D01*
X43821891Y-29271782D01*
X43819947Y-29274022D01*
X43819943Y-29274026D01*
X43736334Y-29370377D01*
X43680883Y-29434279D01*
X43679392Y-29436856D01*
X43679390Y-29436859D01*
X43574638Y-29617930D01*
X43573147Y-29620508D01*
X43572171Y-29623320D01*
X43572170Y-29623321D01*
X43520095Y-29773282D01*
X43502569Y-29823750D01*
X43502142Y-29826697D01*
X43502141Y-29826700D01*
X43489966Y-29910671D01*
X43465508Y-29951781D01*
X43428021Y-29964203D01*
X14250810Y-29921105D01*
X14206643Y-29902734D01*
X14188402Y-29858649D01*
X14183544Y-23000000D01*
X53567448Y-23000000D01*
X53587503Y-23113739D01*
X53645250Y-23213760D01*
X53733724Y-23287998D01*
X53782723Y-23305833D01*
X53837114Y-23325630D01*
X53837117Y-23325630D01*
X53842253Y-23327500D01*
X53957747Y-23327500D01*
X53962883Y-23325630D01*
X53962886Y-23325630D01*
X54017277Y-23305833D01*
X54066276Y-23287998D01*
X54154750Y-23213760D01*
X54212497Y-23113739D01*
X54232552Y-23000000D01*
X54212497Y-22886261D01*
X54154750Y-22786240D01*
X54066276Y-22712002D01*
X54017277Y-22694167D01*
X53962886Y-22674370D01*
X53962883Y-22674370D01*
X53957747Y-22672500D01*
X53842253Y-22672500D01*
X53837117Y-22674370D01*
X53837114Y-22674370D01*
X53782723Y-22694167D01*
X53733724Y-22712002D01*
X53645250Y-22786240D01*
X53587503Y-22886261D01*
X53567448Y-23000000D01*
X14183544Y-23000000D01*
X14182899Y-22089818D01*
X14201174Y-22045611D01*
X14244592Y-22027279D01*
X16105600Y-22003266D01*
X16150025Y-22021000D01*
X16168900Y-22064955D01*
X16168136Y-22075537D01*
X16157768Y-22141000D01*
X16176474Y-22259108D01*
X16178706Y-22263488D01*
X16178706Y-22263489D01*
X16190064Y-22285780D01*
X16230763Y-22365655D01*
X16315319Y-22450211D01*
X16319698Y-22452442D01*
X16417485Y-22502268D01*
X16417486Y-22502268D01*
X16421866Y-22504500D01*
X16539974Y-22523206D01*
X16658082Y-22504500D01*
X16662462Y-22502268D01*
X16662463Y-22502268D01*
X16760250Y-22452442D01*
X16764629Y-22450211D01*
X16849185Y-22365655D01*
X16889884Y-22285780D01*
X16901242Y-22263489D01*
X16901242Y-22263488D01*
X16903474Y-22259108D01*
X16922180Y-22141000D01*
X16914074Y-22089818D01*
X16910044Y-22064373D01*
X16921212Y-22017859D01*
X16961998Y-21992865D01*
X16970969Y-21992101D01*
X17591193Y-21984097D01*
X17698855Y-21982708D01*
X17743281Y-22000442D01*
X17762156Y-22044397D01*
X17761392Y-22054979D01*
X17747768Y-22141000D01*
X17766474Y-22259108D01*
X17768706Y-22263488D01*
X17768706Y-22263489D01*
X17780064Y-22285780D01*
X17820763Y-22365655D01*
X17905319Y-22450211D01*
X17909698Y-22452442D01*
X18007485Y-22502268D01*
X18007486Y-22502268D01*
X18011866Y-22504500D01*
X18129974Y-22523206D01*
X18248082Y-22504500D01*
X18252462Y-22502268D01*
X18252463Y-22502268D01*
X18350250Y-22452442D01*
X18354629Y-22450211D01*
X18439185Y-22365655D01*
X18479884Y-22285780D01*
X18491242Y-22263489D01*
X18491242Y-22263488D01*
X18493474Y-22259108D01*
X18512180Y-22141000D01*
X18496801Y-22043898D01*
X18507969Y-21997384D01*
X18548755Y-21972390D01*
X18557726Y-21971626D01*
X18759169Y-21969027D01*
X20917005Y-21941184D01*
X20961429Y-21958917D01*
X20980304Y-22002872D01*
X20977602Y-22020679D01*
X20976474Y-22022892D01*
X20957768Y-22141000D01*
X20976474Y-22259108D01*
X20978706Y-22263488D01*
X20978706Y-22263489D01*
X20990064Y-22285780D01*
X21030763Y-22365655D01*
X21115319Y-22450211D01*
X21119698Y-22452442D01*
X21217485Y-22502268D01*
X21217486Y-22502268D01*
X21221866Y-22504500D01*
X21339974Y-22523206D01*
X21458082Y-22504500D01*
X21462462Y-22502268D01*
X21462463Y-22502268D01*
X21560250Y-22452442D01*
X21564629Y-22450211D01*
X21649185Y-22365655D01*
X21689884Y-22285780D01*
X21701242Y-22263489D01*
X21701242Y-22263488D01*
X21703474Y-22259108D01*
X21722180Y-22141000D01*
X21703474Y-22022892D01*
X21701240Y-22018507D01*
X21699721Y-22013831D01*
X21701981Y-22013097D01*
X21698859Y-21973534D01*
X21729917Y-21937152D01*
X21757498Y-21930339D01*
X22525889Y-21920424D01*
X22570315Y-21938158D01*
X22589190Y-21982113D01*
X22582384Y-22011292D01*
X22579038Y-22017859D01*
X22576474Y-22022892D01*
X22557768Y-22141000D01*
X22576474Y-22259108D01*
X22578706Y-22263488D01*
X22578706Y-22263489D01*
X22590064Y-22285780D01*
X22630763Y-22365655D01*
X22715319Y-22450211D01*
X22719698Y-22452442D01*
X22817485Y-22502268D01*
X22817486Y-22502268D01*
X22821866Y-22504500D01*
X22939974Y-22523206D01*
X23058082Y-22504500D01*
X23062462Y-22502268D01*
X23062463Y-22502268D01*
X23160250Y-22452442D01*
X23164629Y-22450211D01*
X23249185Y-22365655D01*
X23289884Y-22285780D01*
X23301242Y-22263489D01*
X23301242Y-22263488D01*
X23303474Y-22259108D01*
X23322180Y-22141000D01*
X23303474Y-22022892D01*
X23300910Y-22017859D01*
X23292166Y-22000697D01*
X23288413Y-21953009D01*
X23319480Y-21916635D01*
X23347047Y-21909828D01*
X24136479Y-21899642D01*
X24180905Y-21917376D01*
X24199780Y-21961331D01*
X24192973Y-21990511D01*
X24192395Y-21991646D01*
X24182385Y-22011292D01*
X24176474Y-22022892D01*
X24157768Y-22141000D01*
X24176474Y-22259108D01*
X24178706Y-22263488D01*
X24178706Y-22263489D01*
X24190064Y-22285780D01*
X24230763Y-22365655D01*
X24315319Y-22450211D01*
X24319698Y-22452442D01*
X24417485Y-22502268D01*
X24417486Y-22502268D01*
X24421866Y-22504500D01*
X24539974Y-22523206D01*
X24658082Y-22504500D01*
X24662462Y-22502268D01*
X24662463Y-22502268D01*
X24760250Y-22452442D01*
X24764629Y-22450211D01*
X24849185Y-22365655D01*
X24889884Y-22285780D01*
X24901242Y-22263489D01*
X24901242Y-22263488D01*
X24903474Y-22259108D01*
X24922180Y-22141000D01*
X24903474Y-22022892D01*
X24897564Y-22011292D01*
X24881715Y-21980188D01*
X24877962Y-21932500D01*
X24909028Y-21896125D01*
X24936597Y-21889318D01*
X25006550Y-21888415D01*
X25747069Y-21878860D01*
X25791494Y-21896594D01*
X25810369Y-21940549D01*
X25803562Y-21969729D01*
X25798233Y-21980188D01*
X25782385Y-22011292D01*
X25776474Y-22022892D01*
X25757768Y-22141000D01*
X25776474Y-22259108D01*
X25778706Y-22263488D01*
X25778706Y-22263489D01*
X25790064Y-22285780D01*
X25830763Y-22365655D01*
X25915319Y-22450211D01*
X25919698Y-22452442D01*
X26017485Y-22502268D01*
X26017486Y-22502268D01*
X26021866Y-22504500D01*
X26139974Y-22523206D01*
X26258082Y-22504500D01*
X26262462Y-22502268D01*
X26262463Y-22502268D01*
X26360250Y-22452442D01*
X26364629Y-22450211D01*
X26449185Y-22365655D01*
X26489884Y-22285780D01*
X26501242Y-22263489D01*
X26501242Y-22263488D01*
X26503474Y-22259108D01*
X26522180Y-22141000D01*
X26503474Y-22022892D01*
X26497564Y-22011292D01*
X26481715Y-21980188D01*
X26471264Y-21959677D01*
X26467511Y-21911990D01*
X26498577Y-21875615D01*
X26526146Y-21868808D01*
X26850810Y-21864618D01*
X27357658Y-21858078D01*
X27402083Y-21875812D01*
X27420958Y-21919767D01*
X27414151Y-21948947D01*
X27407841Y-21961331D01*
X27382385Y-22011292D01*
X27376474Y-22022892D01*
X27357768Y-22141000D01*
X27376474Y-22259108D01*
X27378706Y-22263488D01*
X27378706Y-22263489D01*
X27390064Y-22285780D01*
X27430763Y-22365655D01*
X27515319Y-22450211D01*
X27519698Y-22452442D01*
X27617485Y-22502268D01*
X27617486Y-22502268D01*
X27621866Y-22504500D01*
X27739974Y-22523206D01*
X27858082Y-22504500D01*
X27862462Y-22502268D01*
X27862463Y-22502268D01*
X27960250Y-22452442D01*
X27964629Y-22450211D01*
X28049185Y-22365655D01*
X28089884Y-22285780D01*
X28101242Y-22263489D01*
X28101242Y-22263488D01*
X28103474Y-22259108D01*
X28122180Y-22141000D01*
X28103474Y-22022892D01*
X28097564Y-22011292D01*
X28081715Y-21980188D01*
X28060813Y-21939166D01*
X28057060Y-21891479D01*
X28088126Y-21855104D01*
X28115693Y-21848297D01*
X28968248Y-21837297D01*
X29012672Y-21855030D01*
X29031547Y-21898985D01*
X29024740Y-21928165D01*
X29007841Y-21961331D01*
X28982385Y-22011292D01*
X28976474Y-22022892D01*
X28957768Y-22141000D01*
X28976474Y-22259108D01*
X28978706Y-22263488D01*
X28978706Y-22263489D01*
X28990064Y-22285780D01*
X29030763Y-22365655D01*
X29115319Y-22450211D01*
X29119698Y-22452442D01*
X29217485Y-22502268D01*
X29217486Y-22502268D01*
X29221866Y-22504500D01*
X29339974Y-22523206D01*
X29458082Y-22504500D01*
X29462462Y-22502268D01*
X29462463Y-22502268D01*
X29560250Y-22452442D01*
X29564629Y-22450211D01*
X29649185Y-22365655D01*
X29689884Y-22285780D01*
X29701242Y-22263489D01*
X29701242Y-22263488D01*
X29703474Y-22259108D01*
X29722180Y-22141000D01*
X29703474Y-22022892D01*
X29697564Y-22011292D01*
X29650363Y-21918657D01*
X29646610Y-21870969D01*
X29677676Y-21834594D01*
X29705245Y-21827787D01*
X30580799Y-21816490D01*
X30625224Y-21834223D01*
X30644099Y-21878178D01*
X30632531Y-21914577D01*
X30630763Y-21916345D01*
X30607841Y-21961331D01*
X30582385Y-22011292D01*
X30576474Y-22022892D01*
X30557768Y-22141000D01*
X30576474Y-22259108D01*
X30578706Y-22263488D01*
X30578706Y-22263489D01*
X30590064Y-22285780D01*
X30630763Y-22365655D01*
X30715319Y-22450211D01*
X30719698Y-22452442D01*
X30817485Y-22502268D01*
X30817486Y-22502268D01*
X30821866Y-22504500D01*
X30939974Y-22523206D01*
X31058082Y-22504500D01*
X31062462Y-22502268D01*
X31062463Y-22502268D01*
X31160250Y-22452442D01*
X31164629Y-22450211D01*
X31249185Y-22365655D01*
X31289884Y-22285780D01*
X31301242Y-22263489D01*
X31301242Y-22263488D01*
X31303474Y-22259108D01*
X31322180Y-22141000D01*
X31315686Y-22100000D01*
X51667448Y-22100000D01*
X51687503Y-22213739D01*
X51745250Y-22313760D01*
X51833724Y-22387998D01*
X51882723Y-22405833D01*
X51937114Y-22425630D01*
X51937117Y-22425630D01*
X51942253Y-22427500D01*
X52057747Y-22427500D01*
X52062883Y-22425630D01*
X52062886Y-22425630D01*
X52117277Y-22405833D01*
X52166276Y-22387998D01*
X52254750Y-22313760D01*
X52312497Y-22213739D01*
X52332552Y-22100000D01*
X52312497Y-21986261D01*
X52297150Y-21959678D01*
X52272726Y-21917376D01*
X52254750Y-21886240D01*
X52185088Y-21827787D01*
X52170464Y-21815516D01*
X52166276Y-21812002D01*
X52093464Y-21785500D01*
X52062886Y-21774370D01*
X52062883Y-21774370D01*
X52057747Y-21772500D01*
X51942253Y-21772500D01*
X51937117Y-21774370D01*
X51937114Y-21774370D01*
X51906536Y-21785500D01*
X51833724Y-21812002D01*
X51829536Y-21815516D01*
X51814912Y-21827787D01*
X51745250Y-21886240D01*
X51727274Y-21917376D01*
X51702851Y-21959678D01*
X51687503Y-21986261D01*
X51667448Y-22100000D01*
X31315686Y-22100000D01*
X31303474Y-22022892D01*
X31297564Y-22011292D01*
X31272107Y-21961331D01*
X31249185Y-21916345D01*
X31245708Y-21912868D01*
X31242817Y-21908889D01*
X31244293Y-21907817D01*
X31228558Y-21869830D01*
X31246864Y-21825636D01*
X31290251Y-21807335D01*
X31942444Y-21798920D01*
X31947664Y-21458000D01*
X41309448Y-21458000D01*
X41329503Y-21571739D01*
X41332236Y-21576473D01*
X41332237Y-21576475D01*
X41340793Y-21591294D01*
X41387250Y-21671760D01*
X41475724Y-21745998D01*
X41510880Y-21758794D01*
X41579114Y-21783630D01*
X41579117Y-21783630D01*
X41584253Y-21785500D01*
X41699747Y-21785500D01*
X41704883Y-21783630D01*
X41704886Y-21783630D01*
X41773120Y-21758794D01*
X41808276Y-21745998D01*
X41896750Y-21671760D01*
X41943207Y-21591294D01*
X41951763Y-21576475D01*
X41951764Y-21576473D01*
X41954497Y-21571739D01*
X41974552Y-21458000D01*
X43809448Y-21458000D01*
X43829503Y-21571739D01*
X43832236Y-21576473D01*
X43832237Y-21576475D01*
X43840793Y-21591294D01*
X43887250Y-21671760D01*
X43975724Y-21745998D01*
X44010880Y-21758794D01*
X44079114Y-21783630D01*
X44079117Y-21783630D01*
X44084253Y-21785500D01*
X44199747Y-21785500D01*
X44204883Y-21783630D01*
X44204886Y-21783630D01*
X44273120Y-21758794D01*
X44308276Y-21745998D01*
X44396750Y-21671760D01*
X44443207Y-21591294D01*
X44451763Y-21576475D01*
X44451764Y-21576473D01*
X44454497Y-21571739D01*
X44474552Y-21458000D01*
X44454497Y-21344261D01*
X44439610Y-21318475D01*
X44399483Y-21248974D01*
X44396750Y-21244240D01*
X44326820Y-21185562D01*
X44312464Y-21173516D01*
X44308276Y-21170002D01*
X44259277Y-21152167D01*
X44204886Y-21132370D01*
X44204883Y-21132370D01*
X44199747Y-21130500D01*
X44084253Y-21130500D01*
X44079117Y-21132370D01*
X44079114Y-21132370D01*
X44024723Y-21152167D01*
X43975724Y-21170002D01*
X43971536Y-21173516D01*
X43957180Y-21185562D01*
X43887250Y-21244240D01*
X43884517Y-21248974D01*
X43844391Y-21318475D01*
X43829503Y-21344261D01*
X43809448Y-21458000D01*
X41974552Y-21458000D01*
X41954497Y-21344261D01*
X41939610Y-21318475D01*
X41899483Y-21248974D01*
X41896750Y-21244240D01*
X41826820Y-21185562D01*
X41812464Y-21173516D01*
X41808276Y-21170002D01*
X41759277Y-21152167D01*
X41704886Y-21132370D01*
X41704883Y-21132370D01*
X41699747Y-21130500D01*
X41584253Y-21130500D01*
X41579117Y-21132370D01*
X41579114Y-21132370D01*
X41524723Y-21152167D01*
X41475724Y-21170002D01*
X41471536Y-21173516D01*
X41457180Y-21185562D01*
X41387250Y-21244240D01*
X41384517Y-21248974D01*
X41344391Y-21318475D01*
X41329503Y-21344261D01*
X41309448Y-21458000D01*
X31947664Y-21458000D01*
X32005848Y-17658000D01*
X41309448Y-17658000D01*
X41329503Y-17771739D01*
X41332236Y-17776473D01*
X41332237Y-17776475D01*
X41354235Y-17814577D01*
X41387250Y-17871760D01*
X41475724Y-17945998D01*
X41515908Y-17960624D01*
X41579114Y-17983630D01*
X41579117Y-17983630D01*
X41584253Y-17985500D01*
X41699747Y-17985500D01*
X41704883Y-17983630D01*
X41704886Y-17983630D01*
X41768092Y-17960624D01*
X41808276Y-17945998D01*
X41896750Y-17871760D01*
X41929765Y-17814577D01*
X41951763Y-17776475D01*
X41951764Y-17776473D01*
X41954497Y-17771739D01*
X41974552Y-17658000D01*
X43709448Y-17658000D01*
X43729503Y-17771739D01*
X43732236Y-17776473D01*
X43732237Y-17776475D01*
X43754235Y-17814577D01*
X43787250Y-17871760D01*
X43875724Y-17945998D01*
X43915908Y-17960624D01*
X43979114Y-17983630D01*
X43979117Y-17983630D01*
X43984253Y-17985500D01*
X44099747Y-17985500D01*
X44104883Y-17983630D01*
X44104886Y-17983630D01*
X44168092Y-17960624D01*
X44208276Y-17945998D01*
X44296750Y-17871760D01*
X44329765Y-17814577D01*
X44351763Y-17776475D01*
X44351764Y-17776473D01*
X44354497Y-17771739D01*
X44374552Y-17658000D01*
X44354497Y-17544261D01*
X44351730Y-17539467D01*
X44299483Y-17448974D01*
X44296750Y-17444240D01*
X44208276Y-17370002D01*
X44154253Y-17350339D01*
X44104886Y-17332370D01*
X44104883Y-17332370D01*
X44099747Y-17330500D01*
X43984253Y-17330500D01*
X43979117Y-17332370D01*
X43979114Y-17332370D01*
X43929747Y-17350339D01*
X43875724Y-17370002D01*
X43787250Y-17444240D01*
X43784517Y-17448974D01*
X43732271Y-17539467D01*
X43729503Y-17544261D01*
X43709448Y-17658000D01*
X41974552Y-17658000D01*
X41954497Y-17544261D01*
X41951730Y-17539467D01*
X41899483Y-17448974D01*
X41896750Y-17444240D01*
X41808276Y-17370002D01*
X41754253Y-17350339D01*
X41704886Y-17332370D01*
X41704883Y-17332370D01*
X41699747Y-17330500D01*
X41584253Y-17330500D01*
X41579117Y-17332370D01*
X41579114Y-17332370D01*
X41529747Y-17350339D01*
X41475724Y-17370002D01*
X41387250Y-17444240D01*
X41384517Y-17448974D01*
X41332271Y-17539467D01*
X41329503Y-17544261D01*
X41309448Y-17658000D01*
X32005848Y-17658000D01*
X32010704Y-17340878D01*
X32068505Y-13565957D01*
X32087486Y-13522048D01*
X32130796Y-13504414D01*
X68929843Y-13385696D01*
X68974095Y-13403858D01*
X68992544Y-13447993D01*
X68974381Y-13492246D01*
X68963533Y-13500965D01*
X68882453Y-13552420D01*
X68882447Y-13552425D01*
X68879130Y-13554530D01*
X68876441Y-13557394D01*
X68876438Y-13557396D01*
X68841325Y-13594788D01*
X68770599Y-13670103D01*
X68694220Y-13809036D01*
X68654792Y-13962598D01*
X68654792Y-14681346D01*
X68655039Y-14683298D01*
X68655039Y-14683304D01*
X68659819Y-14721142D01*
X68669676Y-14799163D01*
X68728039Y-14946573D01*
X68730348Y-14949751D01*
X68730349Y-14949753D01*
X68776764Y-15013637D01*
X68821229Y-15074837D01*
X68824258Y-15077343D01*
X68824260Y-15077345D01*
X68883491Y-15126344D01*
X68943389Y-15175896D01*
X69086843Y-15243401D01*
X69090701Y-15244137D01*
X69238713Y-15272372D01*
X69238715Y-15272372D01*
X69242578Y-15273109D01*
X69246504Y-15272862D01*
X69396884Y-15263401D01*
X69396885Y-15263401D01*
X69400808Y-15263154D01*
X69404546Y-15261939D01*
X69404548Y-15261939D01*
X69547856Y-15215375D01*
X69547857Y-15215375D01*
X69551592Y-15214161D01*
X69685454Y-15129210D01*
X69688143Y-15126346D01*
X69688146Y-15126344D01*
X69791290Y-15016507D01*
X69791290Y-15016506D01*
X69793985Y-15013637D01*
X69870364Y-14874704D01*
X69909792Y-14721142D01*
X69909792Y-14002394D01*
X69905262Y-13966531D01*
X69895401Y-13888482D01*
X69894908Y-13884577D01*
X69836545Y-13737167D01*
X69827774Y-13725094D01*
X69745668Y-13612086D01*
X69745666Y-13612084D01*
X69743355Y-13608903D01*
X69740326Y-13606397D01*
X69740324Y-13606395D01*
X69671511Y-13549469D01*
X69621195Y-13507844D01*
X69617638Y-13506170D01*
X69617635Y-13506168D01*
X69609773Y-13502469D01*
X69577578Y-13467089D01*
X69579831Y-13419307D01*
X69615211Y-13387112D01*
X69636181Y-13383417D01*
X71808347Y-13376409D01*
X77613990Y-13357679D01*
X77658242Y-13375842D01*
X77676691Y-13419977D01*
X77658528Y-13464230D01*
X77647680Y-13472950D01*
X77592696Y-13507844D01*
X77519130Y-13554530D01*
X77516441Y-13557394D01*
X77516438Y-13557396D01*
X77481325Y-13594788D01*
X77410599Y-13670103D01*
X77334220Y-13809036D01*
X77294792Y-13962598D01*
X77294792Y-14681346D01*
X77295039Y-14683298D01*
X77295039Y-14683304D01*
X77299819Y-14721142D01*
X77309676Y-14799163D01*
X77368039Y-14946573D01*
X77370348Y-14949751D01*
X77370349Y-14949753D01*
X77416764Y-15013637D01*
X77461229Y-15074837D01*
X77464258Y-15077343D01*
X77464260Y-15077345D01*
X77523491Y-15126344D01*
X77583389Y-15175896D01*
X77726843Y-15243401D01*
X77730701Y-15244137D01*
X77878713Y-15272372D01*
X77878715Y-15272372D01*
X77882578Y-15273109D01*
X77886504Y-15272862D01*
X78036884Y-15263401D01*
X78036885Y-15263401D01*
X78040808Y-15263154D01*
X78044546Y-15261939D01*
X78044548Y-15261939D01*
X78187856Y-15215375D01*
X78187857Y-15215375D01*
X78191592Y-15214161D01*
X78325454Y-15129210D01*
X78328143Y-15126346D01*
X78328146Y-15126344D01*
X78431290Y-15016507D01*
X78431290Y-15016506D01*
X78433985Y-15013637D01*
X78510364Y-14874704D01*
X78549792Y-14721142D01*
X78549792Y-14002394D01*
X78545262Y-13966531D01*
X78535401Y-13888482D01*
X78534908Y-13884577D01*
X78476545Y-13737167D01*
X78467774Y-13725094D01*
X78385668Y-13612086D01*
X78385666Y-13612084D01*
X78383355Y-13608903D01*
X78380326Y-13606397D01*
X78380324Y-13606395D01*
X78311511Y-13549469D01*
X78261195Y-13507844D01*
X78257634Y-13506168D01*
X78203214Y-13480560D01*
X78190940Y-13474784D01*
X78158747Y-13439404D01*
X78161000Y-13391622D01*
X78196381Y-13359428D01*
X78217350Y-13355733D01*
X81438414Y-13345341D01*
X91315258Y-13313477D01*
X93347608Y-13313102D01*
X96516950Y-13312518D01*
X96533134Y-13314647D01*
G37*
G04 #@! TD.AperFunction*
G04 #@! TA.AperFunction,Conductor*
G36*
X65144738Y-17808769D02*
G01*
X65173876Y-17819374D01*
X65188649Y-17824751D01*
X65207446Y-17835604D01*
X65243242Y-17865641D01*
X65257193Y-17882266D01*
X65265429Y-17896531D01*
X65280557Y-17922733D01*
X65287981Y-17943131D01*
X65296094Y-17989148D01*
X65296094Y-18010852D01*
X65287981Y-18056869D01*
X65280557Y-18077266D01*
X65260503Y-18112002D01*
X65257194Y-18117733D01*
X65243242Y-18134359D01*
X65221391Y-18152695D01*
X65207446Y-18164396D01*
X65188649Y-18175249D01*
X65144738Y-18191231D01*
X65123363Y-18195000D01*
X65076637Y-18195000D01*
X65055262Y-18191231D01*
X65011351Y-18175249D01*
X64992554Y-18164396D01*
X64978609Y-18152695D01*
X64956758Y-18134359D01*
X64942806Y-18117733D01*
X64939498Y-18112002D01*
X64919443Y-18077266D01*
X64912019Y-18056869D01*
X64903906Y-18010852D01*
X64903906Y-17989148D01*
X64912019Y-17943131D01*
X64919443Y-17922733D01*
X64934571Y-17896531D01*
X64942807Y-17882266D01*
X64956758Y-17865641D01*
X64992554Y-17835604D01*
X65011351Y-17824751D01*
X65026124Y-17819374D01*
X65055262Y-17808769D01*
X65076637Y-17805000D01*
X65123363Y-17805000D01*
X65144738Y-17808769D01*
G37*
G04 #@! TD.AperFunction*
G04 #@! TA.AperFunction,Conductor*
G36*
X66201001Y-14718306D02*
G01*
X66219307Y-14762427D01*
X66220581Y-15847500D01*
X66224838Y-19474370D01*
X66224878Y-19508797D01*
X66206624Y-19553012D01*
X66162378Y-19571370D01*
X64903415Y-19571370D01*
X64859222Y-19553066D01*
X64810883Y-19504727D01*
X64800954Y-19491787D01*
X64797752Y-19486240D01*
X64766554Y-19460062D01*
X64762534Y-19456378D01*
X64754319Y-19448163D01*
X64752083Y-19446597D01*
X64744796Y-19441494D01*
X64740473Y-19438177D01*
X64713466Y-19415516D01*
X64709278Y-19412002D01*
X64703871Y-19410034D01*
X64703262Y-19409812D01*
X64688789Y-19402277D01*
X64688025Y-19401742D01*
X64688021Y-19401740D01*
X64683545Y-19398606D01*
X64678268Y-19397192D01*
X64678266Y-19397191D01*
X64644215Y-19388067D01*
X64639016Y-19386428D01*
X64600749Y-19372500D01*
X64594346Y-19372500D01*
X64578170Y-19370370D01*
X64578106Y-19370353D01*
X64571986Y-19368713D01*
X64532035Y-19372209D01*
X64531425Y-19372262D01*
X64525977Y-19372500D01*
X64485255Y-19372500D01*
X64480117Y-19374370D01*
X64480112Y-19374371D01*
X64479234Y-19374691D01*
X64463309Y-19378222D01*
X64462379Y-19378303D01*
X64462377Y-19378304D01*
X64456932Y-19378780D01*
X64451977Y-19381090D01*
X64451975Y-19381091D01*
X64420035Y-19395985D01*
X64414998Y-19398072D01*
X64382743Y-19409812D01*
X64376726Y-19412002D01*
X64372535Y-19415518D01*
X64372536Y-19415518D01*
X64371823Y-19416116D01*
X64358064Y-19424881D01*
X64357216Y-19425277D01*
X64352258Y-19427589D01*
X64323464Y-19456383D01*
X64319444Y-19460067D01*
X64288252Y-19486240D01*
X64285519Y-19490974D01*
X64285050Y-19491786D01*
X64275117Y-19504730D01*
X64270591Y-19509256D01*
X64268281Y-19514211D01*
X64253380Y-19546167D01*
X64250862Y-19551003D01*
X64230505Y-19586261D01*
X64229556Y-19591643D01*
X64229555Y-19591646D01*
X64229393Y-19592567D01*
X64224485Y-19608133D01*
X64221782Y-19613930D01*
X64221306Y-19619375D01*
X64221305Y-19619377D01*
X64218233Y-19654486D01*
X64217522Y-19659889D01*
X64210450Y-19700000D01*
X64211399Y-19705383D01*
X64211399Y-19705384D01*
X64211562Y-19706309D01*
X64212273Y-19722605D01*
X64211715Y-19728984D01*
X64213130Y-19734264D01*
X64213130Y-19734266D01*
X64222253Y-19768310D01*
X64223434Y-19773635D01*
X64229032Y-19805382D01*
X64230505Y-19813739D01*
X64233709Y-19819288D01*
X64239950Y-19834356D01*
X64241608Y-19840543D01*
X64244742Y-19845019D01*
X64244743Y-19845021D01*
X64264960Y-19873893D01*
X64267890Y-19878492D01*
X64279307Y-19898267D01*
X64288252Y-19913760D01*
X64292440Y-19917274D01*
X64319450Y-19939938D01*
X64323470Y-19943622D01*
X64498254Y-20118407D01*
X64501938Y-20122427D01*
X64528112Y-20153620D01*
X64563371Y-20173977D01*
X64567968Y-20176906D01*
X64581707Y-20186525D01*
X64601329Y-20200265D01*
X64606607Y-20201679D01*
X64606609Y-20201680D01*
X64607517Y-20201923D01*
X64622586Y-20208165D01*
X64623396Y-20208633D01*
X64623401Y-20208635D01*
X64628133Y-20211367D01*
X64633518Y-20212316D01*
X64633519Y-20212317D01*
X64668228Y-20218437D01*
X64673550Y-20219617D01*
X64712888Y-20230157D01*
X64753449Y-20226608D01*
X64758897Y-20226370D01*
X66163293Y-20226370D01*
X66207487Y-20244676D01*
X66225793Y-20288797D01*
X66226516Y-20904311D01*
X66226522Y-20909444D01*
X66208268Y-20953659D01*
X66164095Y-20972017D01*
X66142646Y-20968248D01*
X66088660Y-20948599D01*
X66088659Y-20948599D01*
X66083519Y-20946728D01*
X65968025Y-20946728D01*
X65962889Y-20948598D01*
X65962886Y-20948598D01*
X65931561Y-20960000D01*
X65859496Y-20986230D01*
X65771022Y-21060468D01*
X65713275Y-21160489D01*
X65693220Y-21274228D01*
X65713275Y-21387967D01*
X65716008Y-21392701D01*
X65716009Y-21392703D01*
X65723672Y-21405975D01*
X65771022Y-21487988D01*
X65859496Y-21562226D01*
X65895946Y-21575493D01*
X65962886Y-21599858D01*
X65962889Y-21599858D01*
X65968025Y-21601728D01*
X66083519Y-21601728D01*
X66143501Y-21579896D01*
X66191290Y-21581982D01*
X66223608Y-21617250D01*
X66227377Y-21638554D01*
X66228241Y-22374370D01*
X66235106Y-28224268D01*
X66216853Y-28268481D01*
X66172680Y-28286839D01*
X66128465Y-28268585D01*
X66119871Y-28257380D01*
X66119846Y-28257398D01*
X65995369Y-28081917D01*
X65839954Y-27933140D01*
X65837460Y-27931530D01*
X65837458Y-27931528D01*
X65662369Y-27818475D01*
X65659210Y-27816435D01*
X65459658Y-27736013D01*
X65248499Y-27694777D01*
X65242836Y-27694500D01*
X64584215Y-27694500D01*
X64503084Y-27702241D01*
X64426762Y-27709522D01*
X64426759Y-27709523D01*
X64423799Y-27709805D01*
X64217352Y-27770370D01*
X64026082Y-27868880D01*
X63856891Y-28001782D01*
X63854947Y-28004022D01*
X63854943Y-28004026D01*
X63766458Y-28105996D01*
X63715883Y-28164279D01*
X63714392Y-28166856D01*
X63714390Y-28166859D01*
X63644980Y-28286839D01*
X63608147Y-28350508D01*
X63607171Y-28353320D01*
X63607170Y-28353321D01*
X63559369Y-28490974D01*
X63537569Y-28553750D01*
X63506697Y-28766671D01*
X63506834Y-28769636D01*
X63506834Y-28769641D01*
X63513754Y-28919136D01*
X63516644Y-28981589D01*
X63517341Y-28984480D01*
X63517341Y-28984482D01*
X63518639Y-28989867D01*
X63567052Y-29190748D01*
X63656102Y-29386602D01*
X63780579Y-29562083D01*
X63935994Y-29710860D01*
X63938488Y-29712470D01*
X63938490Y-29712472D01*
X64026366Y-29769212D01*
X64116738Y-29827565D01*
X64316290Y-29907987D01*
X64527449Y-29949223D01*
X64533112Y-29949500D01*
X65191733Y-29949500D01*
X65272864Y-29941759D01*
X65349186Y-29934478D01*
X65349189Y-29934477D01*
X65352149Y-29934195D01*
X65558596Y-29873630D01*
X65749866Y-29775120D01*
X65919057Y-29642218D01*
X65921001Y-29639978D01*
X65921005Y-29639974D01*
X66058113Y-29481970D01*
X66060065Y-29479721D01*
X66119896Y-29376299D01*
X66157871Y-29347212D01*
X66205292Y-29353497D01*
X66234379Y-29391472D01*
X66236495Y-29407523D01*
X66237697Y-30431812D01*
X66219443Y-30476027D01*
X66175689Y-30494383D01*
X64630407Y-30506518D01*
X64586698Y-30489169D01*
X64569954Y-30473140D01*
X64389210Y-30356435D01*
X64189658Y-30276013D01*
X63978499Y-30234777D01*
X63972836Y-30234500D01*
X63314215Y-30234500D01*
X63233084Y-30242241D01*
X63156762Y-30249522D01*
X63156759Y-30249523D01*
X63153799Y-30249805D01*
X62947352Y-30310370D01*
X62756082Y-30408880D01*
X62628378Y-30509193D01*
X62590264Y-30522540D01*
X55667052Y-30576911D01*
X55622716Y-30558953D01*
X55604074Y-30515614D01*
X55603657Y-30493895D01*
X55582316Y-29383897D01*
X55574004Y-28951587D01*
X55591456Y-28907050D01*
X55635291Y-28887898D01*
X55679828Y-28905350D01*
X55690619Y-28919136D01*
X55745250Y-29013760D01*
X55833724Y-29087998D01*
X55882723Y-29105833D01*
X55937114Y-29125630D01*
X55937117Y-29125630D01*
X55942253Y-29127500D01*
X56057747Y-29127500D01*
X56062883Y-29125630D01*
X56062886Y-29125630D01*
X56117277Y-29105833D01*
X56166276Y-29087998D01*
X56254750Y-29013760D01*
X56312497Y-28913739D01*
X56332552Y-28800000D01*
X56314920Y-28700000D01*
X58767448Y-28700000D01*
X58787503Y-28813739D01*
X58845250Y-28913760D01*
X58933724Y-28987998D01*
X58982723Y-29005833D01*
X59037114Y-29025630D01*
X59037117Y-29025630D01*
X59042253Y-29027500D01*
X59157747Y-29027500D01*
X59162883Y-29025630D01*
X59162886Y-29025630D01*
X59217277Y-29005833D01*
X59266276Y-28987998D01*
X59354750Y-28913760D01*
X59412497Y-28813739D01*
X59432552Y-28700000D01*
X59412497Y-28586261D01*
X59392101Y-28550933D01*
X59357483Y-28490974D01*
X59354750Y-28486240D01*
X59266276Y-28412002D01*
X59217277Y-28394167D01*
X59162886Y-28374370D01*
X59162883Y-28374370D01*
X59157747Y-28372500D01*
X59042253Y-28372500D01*
X59037117Y-28374370D01*
X59037114Y-28374370D01*
X58982723Y-28394167D01*
X58933724Y-28412002D01*
X58845250Y-28486240D01*
X58842517Y-28490974D01*
X58807900Y-28550933D01*
X58787503Y-28586261D01*
X58767448Y-28700000D01*
X56314920Y-28700000D01*
X56312497Y-28686261D01*
X56254750Y-28586240D01*
X56166276Y-28512002D01*
X56095497Y-28486240D01*
X56062886Y-28474370D01*
X56062883Y-28474370D01*
X56057747Y-28472500D01*
X55942253Y-28472500D01*
X55937117Y-28474370D01*
X55937114Y-28474370D01*
X55904503Y-28486240D01*
X55833724Y-28512002D01*
X55745250Y-28586240D01*
X55687503Y-28686261D01*
X55687012Y-28685978D01*
X55657360Y-28718342D01*
X55609570Y-28720432D01*
X55574300Y-28688118D01*
X55568454Y-28662901D01*
X55551000Y-27755106D01*
X55568452Y-27710569D01*
X55579505Y-27705740D01*
X55648839Y-27705740D01*
X55656824Y-27708869D01*
X55675038Y-27743052D01*
X55686552Y-27808349D01*
X55686553Y-27808352D01*
X55687503Y-27813739D01*
X55745250Y-27913760D01*
X55833724Y-27987998D01*
X55866553Y-27999947D01*
X55937114Y-28025630D01*
X55937117Y-28025630D01*
X55942253Y-28027500D01*
X56057747Y-28027500D01*
X56062883Y-28025630D01*
X56062886Y-28025630D01*
X56133447Y-27999947D01*
X56166276Y-27987998D01*
X56254750Y-27913760D01*
X56312497Y-27813739D01*
X56332552Y-27700000D01*
X56312497Y-27586261D01*
X56254750Y-27486240D01*
X56166276Y-27412002D01*
X56117277Y-27394167D01*
X56062886Y-27374370D01*
X56062883Y-27374370D01*
X56057747Y-27372500D01*
X55942253Y-27372500D01*
X55937117Y-27374370D01*
X55937114Y-27374370D01*
X55882723Y-27394167D01*
X55833724Y-27412002D01*
X55745250Y-27486240D01*
X55687503Y-27586261D01*
X55686553Y-27591648D01*
X55686552Y-27591651D01*
X55673169Y-27667548D01*
X55648839Y-27705740D01*
X55579505Y-27705740D01*
X55580473Y-27705317D01*
X55560422Y-27692544D01*
X55549131Y-27657896D01*
X55544368Y-27410133D01*
X55536483Y-27000000D01*
X57367448Y-27000000D01*
X57387503Y-27113739D01*
X57445250Y-27213760D01*
X57533724Y-27287998D01*
X57582723Y-27305833D01*
X57637114Y-27325630D01*
X57637117Y-27325630D01*
X57642253Y-27327500D01*
X57757747Y-27327500D01*
X57762883Y-27325630D01*
X57762886Y-27325630D01*
X57817277Y-27305833D01*
X57866276Y-27287998D01*
X57954750Y-27213760D01*
X58012497Y-27113739D01*
X58032552Y-27000000D01*
X58012497Y-26886261D01*
X57954750Y-26786240D01*
X57866276Y-26712002D01*
X57817277Y-26694167D01*
X57762886Y-26674370D01*
X57762883Y-26674370D01*
X57757747Y-26672500D01*
X57642253Y-26672500D01*
X57637117Y-26674370D01*
X57637114Y-26674370D01*
X57582723Y-26694167D01*
X57533724Y-26712002D01*
X57445250Y-26786240D01*
X57387503Y-26886261D01*
X57367448Y-27000000D01*
X55536483Y-27000000D01*
X55528792Y-26600000D01*
X58867448Y-26600000D01*
X58887503Y-26713739D01*
X58945250Y-26813760D01*
X59033724Y-26887998D01*
X59082723Y-26905833D01*
X59137114Y-26925630D01*
X59137117Y-26925630D01*
X59142253Y-26927500D01*
X59257747Y-26927500D01*
X59262883Y-26925630D01*
X59262886Y-26925630D01*
X59317277Y-26905833D01*
X59366276Y-26887998D01*
X59454750Y-26813760D01*
X59512497Y-26713739D01*
X59532552Y-26600000D01*
X59512497Y-26486261D01*
X59454750Y-26386240D01*
X59366276Y-26312002D01*
X59317277Y-26294167D01*
X59262886Y-26274370D01*
X59262883Y-26274370D01*
X59257747Y-26272500D01*
X59142253Y-26272500D01*
X59137117Y-26274370D01*
X59137114Y-26274370D01*
X59082723Y-26294167D01*
X59033724Y-26312002D01*
X58945250Y-26386240D01*
X58887503Y-26486261D01*
X58867448Y-26600000D01*
X55528792Y-26600000D01*
X55503299Y-25274071D01*
X56532045Y-25274071D01*
X56552100Y-25387810D01*
X56609847Y-25487831D01*
X56698321Y-25562069D01*
X56747320Y-25579904D01*
X56801711Y-25599701D01*
X56801714Y-25599701D01*
X56806850Y-25601571D01*
X56922344Y-25601571D01*
X56926659Y-25600000D01*
X58967448Y-25600000D01*
X58987503Y-25713739D01*
X59045250Y-25813760D01*
X59133724Y-25887998D01*
X59182723Y-25905833D01*
X59237114Y-25925630D01*
X59237117Y-25925630D01*
X59242253Y-25927500D01*
X59357747Y-25927500D01*
X59362883Y-25925630D01*
X59362886Y-25925630D01*
X59417277Y-25905833D01*
X59466276Y-25887998D01*
X59554750Y-25813760D01*
X59612497Y-25713739D01*
X59632552Y-25600000D01*
X59612497Y-25486261D01*
X59554750Y-25386240D01*
X59466276Y-25312002D01*
X59400327Y-25287998D01*
X59362886Y-25274370D01*
X59362883Y-25274370D01*
X59357747Y-25272500D01*
X59242253Y-25272500D01*
X59237117Y-25274370D01*
X59237114Y-25274370D01*
X59199673Y-25287998D01*
X59133724Y-25312002D01*
X59045250Y-25386240D01*
X58987503Y-25486261D01*
X58967448Y-25600000D01*
X56926659Y-25600000D01*
X56927480Y-25599701D01*
X56927483Y-25599701D01*
X56981874Y-25579904D01*
X57030873Y-25562069D01*
X57119347Y-25487831D01*
X57177094Y-25387810D01*
X57197149Y-25274071D01*
X57177094Y-25160332D01*
X57162691Y-25135384D01*
X57122080Y-25065045D01*
X57119347Y-25060311D01*
X57031284Y-24986418D01*
X60263026Y-24986418D01*
X60283081Y-25100157D01*
X60285814Y-25104891D01*
X60285815Y-25104893D01*
X60293657Y-25118475D01*
X60340828Y-25200178D01*
X60429302Y-25274416D01*
X60466618Y-25287998D01*
X60532692Y-25312048D01*
X60532695Y-25312048D01*
X60537831Y-25313918D01*
X60653325Y-25313918D01*
X60658461Y-25312048D01*
X60658464Y-25312048D01*
X60724538Y-25287998D01*
X60761854Y-25274416D01*
X60850328Y-25200178D01*
X60897499Y-25118475D01*
X60905341Y-25104893D01*
X60905342Y-25104891D01*
X60908075Y-25100157D01*
X60925735Y-25000000D01*
X61067448Y-25000000D01*
X61087503Y-25113739D01*
X61090236Y-25118473D01*
X61090237Y-25118475D01*
X61111669Y-25155596D01*
X61145250Y-25213760D01*
X61233724Y-25287998D01*
X61282723Y-25305833D01*
X61337114Y-25325630D01*
X61337117Y-25325630D01*
X61342253Y-25327500D01*
X61457747Y-25327500D01*
X61462883Y-25325630D01*
X61462886Y-25325630D01*
X61517277Y-25305833D01*
X61566276Y-25287998D01*
X61654750Y-25213760D01*
X61654917Y-25213959D01*
X61694554Y-25193327D01*
X61740176Y-25207712D01*
X61743920Y-25211456D01*
X61745250Y-25213760D01*
X61833724Y-25287998D01*
X61882723Y-25305833D01*
X61937114Y-25325630D01*
X61937117Y-25325630D01*
X61942253Y-25327500D01*
X62057747Y-25327500D01*
X62062883Y-25325630D01*
X62062886Y-25325630D01*
X62117277Y-25305833D01*
X62166276Y-25287998D01*
X62254750Y-25213760D01*
X62254917Y-25213959D01*
X62294554Y-25193327D01*
X62340176Y-25207712D01*
X62343920Y-25211456D01*
X62345250Y-25213760D01*
X62433724Y-25287998D01*
X62482723Y-25305833D01*
X62537114Y-25325630D01*
X62537117Y-25325630D01*
X62542253Y-25327500D01*
X62657747Y-25327500D01*
X62662883Y-25325630D01*
X62662886Y-25325630D01*
X62717277Y-25305833D01*
X62766276Y-25287998D01*
X62854750Y-25213760D01*
X62854917Y-25213959D01*
X62894554Y-25193327D01*
X62940176Y-25207712D01*
X62943920Y-25211456D01*
X62945250Y-25213760D01*
X63033724Y-25287998D01*
X63082723Y-25305833D01*
X63137114Y-25325630D01*
X63137117Y-25325630D01*
X63142253Y-25327500D01*
X63257747Y-25327500D01*
X63262883Y-25325630D01*
X63262886Y-25325630D01*
X63317277Y-25305833D01*
X63366276Y-25287998D01*
X63454750Y-25213760D01*
X63488331Y-25155596D01*
X63509763Y-25118475D01*
X63509764Y-25118473D01*
X63512497Y-25113739D01*
X63532552Y-25000000D01*
X63512497Y-24886261D01*
X63507765Y-24878064D01*
X63457483Y-24790974D01*
X63454750Y-24786240D01*
X63366276Y-24712002D01*
X63300327Y-24687998D01*
X63262886Y-24674370D01*
X63262883Y-24674370D01*
X63257747Y-24672500D01*
X63142253Y-24672500D01*
X63137117Y-24674370D01*
X63137114Y-24674370D01*
X63099673Y-24687998D01*
X63033724Y-24712002D01*
X62945250Y-24786240D01*
X62945083Y-24786041D01*
X62905446Y-24806673D01*
X62859824Y-24792288D01*
X62856080Y-24788544D01*
X62854750Y-24786240D01*
X62766276Y-24712002D01*
X62700327Y-24687998D01*
X62662886Y-24674370D01*
X62662883Y-24674370D01*
X62657747Y-24672500D01*
X62542253Y-24672500D01*
X62537117Y-24674370D01*
X62537114Y-24674370D01*
X62499673Y-24687998D01*
X62433724Y-24712002D01*
X62345250Y-24786240D01*
X62345083Y-24786041D01*
X62305446Y-24806673D01*
X62259824Y-24792288D01*
X62256080Y-24788544D01*
X62254750Y-24786240D01*
X62166276Y-24712002D01*
X62100327Y-24687998D01*
X62062886Y-24674370D01*
X62062883Y-24674370D01*
X62057747Y-24672500D01*
X61942253Y-24672500D01*
X61937117Y-24674370D01*
X61937114Y-24674370D01*
X61899673Y-24687998D01*
X61833724Y-24712002D01*
X61745250Y-24786240D01*
X61745083Y-24786041D01*
X61705446Y-24806673D01*
X61659824Y-24792288D01*
X61656080Y-24788544D01*
X61654750Y-24786240D01*
X61566276Y-24712002D01*
X61500327Y-24687998D01*
X61462886Y-24674370D01*
X61462883Y-24674370D01*
X61457747Y-24672500D01*
X61342253Y-24672500D01*
X61337117Y-24674370D01*
X61337114Y-24674370D01*
X61299673Y-24687998D01*
X61233724Y-24712002D01*
X61145250Y-24786240D01*
X61142517Y-24790974D01*
X61092236Y-24878064D01*
X61087503Y-24886261D01*
X61067448Y-25000000D01*
X60925735Y-25000000D01*
X60928130Y-24986418D01*
X60908075Y-24872679D01*
X60850328Y-24772658D01*
X60761854Y-24698420D01*
X60712855Y-24680585D01*
X60658464Y-24660788D01*
X60658461Y-24660788D01*
X60653325Y-24658918D01*
X60537831Y-24658918D01*
X60532695Y-24660788D01*
X60532692Y-24660788D01*
X60478301Y-24680585D01*
X60429302Y-24698420D01*
X60340828Y-24772658D01*
X60283081Y-24872679D01*
X60263026Y-24986418D01*
X57031284Y-24986418D01*
X57030873Y-24986073D01*
X56981874Y-24968238D01*
X56927483Y-24948441D01*
X56927480Y-24948441D01*
X56922344Y-24946571D01*
X56806850Y-24946571D01*
X56801714Y-24948441D01*
X56801711Y-24948441D01*
X56747320Y-24968238D01*
X56698321Y-24986073D01*
X56609847Y-25060311D01*
X56607114Y-25065045D01*
X56566504Y-25135384D01*
X56552100Y-25160332D01*
X56532045Y-25274071D01*
X55503299Y-25274071D01*
X55486494Y-24400000D01*
X63467448Y-24400000D01*
X63487503Y-24513739D01*
X63545250Y-24613760D01*
X63633724Y-24687998D01*
X63657223Y-24696551D01*
X63737114Y-24725630D01*
X63737117Y-24725630D01*
X63742253Y-24727500D01*
X63857747Y-24727500D01*
X63862883Y-24725630D01*
X63862886Y-24725630D01*
X63942777Y-24696551D01*
X63966276Y-24687998D01*
X64054750Y-24613760D01*
X64112497Y-24513739D01*
X64132552Y-24400000D01*
X64112497Y-24286261D01*
X64093157Y-24252762D01*
X64057483Y-24190974D01*
X64054750Y-24186240D01*
X63966276Y-24112002D01*
X63917277Y-24094167D01*
X63862886Y-24074370D01*
X63862883Y-24074370D01*
X63857747Y-24072500D01*
X63742253Y-24072500D01*
X63737117Y-24074370D01*
X63737114Y-24074370D01*
X63682723Y-24094167D01*
X63633724Y-24112002D01*
X63545250Y-24186240D01*
X63542517Y-24190974D01*
X63506844Y-24252762D01*
X63487503Y-24286261D01*
X63467448Y-24400000D01*
X55486494Y-24400000D01*
X55479553Y-24039002D01*
X59567448Y-24039002D01*
X59587503Y-24152741D01*
X59590236Y-24157475D01*
X59590237Y-24157477D01*
X59609577Y-24190974D01*
X59645250Y-24252762D01*
X59733724Y-24327000D01*
X59782723Y-24344835D01*
X59837114Y-24364632D01*
X59837117Y-24364632D01*
X59842253Y-24366502D01*
X59957747Y-24366502D01*
X59962883Y-24364632D01*
X59962886Y-24364632D01*
X60017277Y-24344835D01*
X60066276Y-24327000D01*
X60154750Y-24252762D01*
X60190423Y-24190974D01*
X60209763Y-24157477D01*
X60209764Y-24157475D01*
X60212497Y-24152741D01*
X60232552Y-24039002D01*
X60212497Y-23925263D01*
X60154750Y-23825242D01*
X60066276Y-23751004D01*
X60005286Y-23728805D01*
X59962886Y-23713372D01*
X59962883Y-23713372D01*
X59957747Y-23711502D01*
X59842253Y-23711502D01*
X59837117Y-23713372D01*
X59837114Y-23713372D01*
X59794714Y-23728805D01*
X59733724Y-23751004D01*
X59645250Y-23825242D01*
X59587503Y-23925263D01*
X59567448Y-24039002D01*
X55479553Y-24039002D01*
X55469392Y-23510500D01*
X57567448Y-23510500D01*
X57587503Y-23624239D01*
X57645250Y-23724260D01*
X57733724Y-23798498D01*
X57760803Y-23808354D01*
X57837114Y-23836130D01*
X57837117Y-23836130D01*
X57842253Y-23838000D01*
X57957747Y-23838000D01*
X57962883Y-23836130D01*
X57962886Y-23836130D01*
X58039197Y-23808354D01*
X58066276Y-23798498D01*
X58154750Y-23724260D01*
X58203455Y-23639900D01*
X58241406Y-23610780D01*
X58288832Y-23617023D01*
X58297752Y-23623269D01*
X58345464Y-23663304D01*
X58393882Y-23680927D01*
X58448854Y-23700936D01*
X58448857Y-23700936D01*
X58453993Y-23702806D01*
X58569487Y-23702806D01*
X58577197Y-23700000D01*
X58591983Y-23694618D01*
X58629598Y-23680927D01*
X58677387Y-23683013D01*
X58709705Y-23718281D01*
X58712525Y-23728805D01*
X58727501Y-23813739D01*
X58785248Y-23913760D01*
X58873722Y-23987998D01*
X58922721Y-24005833D01*
X58977112Y-24025630D01*
X58977115Y-24025630D01*
X58982251Y-24027500D01*
X59097745Y-24027500D01*
X59102881Y-24025630D01*
X59102884Y-24025630D01*
X59157275Y-24005833D01*
X59206274Y-23987998D01*
X59294748Y-23913760D01*
X59352495Y-23813739D01*
X59372550Y-23700000D01*
X65167448Y-23700000D01*
X65187503Y-23813739D01*
X65245250Y-23913760D01*
X65333724Y-23987998D01*
X65382723Y-24005833D01*
X65437114Y-24025630D01*
X65437117Y-24025630D01*
X65442253Y-24027500D01*
X65557747Y-24027500D01*
X65562883Y-24025630D01*
X65562886Y-24025630D01*
X65617277Y-24005833D01*
X65666276Y-23987998D01*
X65754750Y-23913760D01*
X65812497Y-23813739D01*
X65832552Y-23700000D01*
X65812497Y-23586261D01*
X65754750Y-23486240D01*
X65666276Y-23412002D01*
X65611391Y-23392025D01*
X65562886Y-23374370D01*
X65562883Y-23374370D01*
X65557747Y-23372500D01*
X65442253Y-23372500D01*
X65437117Y-23374370D01*
X65437114Y-23374370D01*
X65388609Y-23392025D01*
X65333724Y-23412002D01*
X65245250Y-23486240D01*
X65187503Y-23586261D01*
X65167448Y-23700000D01*
X59372550Y-23700000D01*
X59352495Y-23586261D01*
X59294748Y-23486240D01*
X59206274Y-23412002D01*
X59151389Y-23392025D01*
X59102884Y-23374370D01*
X59102881Y-23374370D01*
X59097745Y-23372500D01*
X58982251Y-23372500D01*
X58977114Y-23374370D01*
X58977113Y-23374370D01*
X58964576Y-23378933D01*
X58922140Y-23394379D01*
X58874351Y-23392293D01*
X58842033Y-23357025D01*
X58839213Y-23346501D01*
X58835533Y-23325630D01*
X58824237Y-23261567D01*
X58798665Y-23217274D01*
X58769223Y-23166280D01*
X58766490Y-23161546D01*
X58678016Y-23087308D01*
X58629017Y-23069473D01*
X58574626Y-23049676D01*
X58574623Y-23049676D01*
X58569487Y-23047806D01*
X58453993Y-23047806D01*
X58448857Y-23049676D01*
X58448854Y-23049676D01*
X58394463Y-23069473D01*
X58345464Y-23087308D01*
X58256990Y-23161546D01*
X58226844Y-23213760D01*
X58208285Y-23245906D01*
X58170334Y-23275026D01*
X58122908Y-23268783D01*
X58113988Y-23262537D01*
X58066276Y-23222502D01*
X58017277Y-23204667D01*
X57962886Y-23184870D01*
X57962883Y-23184870D01*
X57957747Y-23183000D01*
X57842253Y-23183000D01*
X57837117Y-23184870D01*
X57837114Y-23184870D01*
X57782723Y-23204667D01*
X57733724Y-23222502D01*
X57645250Y-23296740D01*
X57642517Y-23301474D01*
X57610445Y-23357025D01*
X57587503Y-23396761D01*
X57567448Y-23510500D01*
X55469392Y-23510500D01*
X55459577Y-23000000D01*
X59867448Y-23000000D01*
X59887503Y-23113739D01*
X59890236Y-23118473D01*
X59890237Y-23118475D01*
X59915104Y-23161546D01*
X59945250Y-23213760D01*
X60033724Y-23287998D01*
X60082723Y-23305833D01*
X60137114Y-23325630D01*
X60137117Y-23325630D01*
X60142253Y-23327500D01*
X60257747Y-23327500D01*
X60262883Y-23325630D01*
X60262886Y-23325630D01*
X60317277Y-23305833D01*
X60366276Y-23287998D01*
X60454750Y-23213760D01*
X60484896Y-23161546D01*
X60509763Y-23118475D01*
X60509764Y-23118473D01*
X60512497Y-23113739D01*
X60532552Y-23000000D01*
X61467448Y-23000000D01*
X61487503Y-23113739D01*
X61490236Y-23118473D01*
X61490237Y-23118475D01*
X61515104Y-23161546D01*
X61545250Y-23213760D01*
X61633724Y-23287998D01*
X61682723Y-23305833D01*
X61737114Y-23325630D01*
X61737117Y-23325630D01*
X61742253Y-23327500D01*
X61857747Y-23327500D01*
X61862883Y-23325630D01*
X61862886Y-23325630D01*
X61917277Y-23305833D01*
X61966276Y-23287998D01*
X62054750Y-23213760D01*
X62084896Y-23161546D01*
X62109763Y-23118475D01*
X62109764Y-23118473D01*
X62112497Y-23113739D01*
X62132552Y-23000000D01*
X62967448Y-23000000D01*
X62987503Y-23113739D01*
X62990236Y-23118473D01*
X62990237Y-23118475D01*
X63015104Y-23161546D01*
X63045250Y-23213760D01*
X63133724Y-23287998D01*
X63182723Y-23305833D01*
X63237114Y-23325630D01*
X63237117Y-23325630D01*
X63242253Y-23327500D01*
X63357747Y-23327500D01*
X63362883Y-23325630D01*
X63362886Y-23325630D01*
X63417277Y-23305833D01*
X63466276Y-23287998D01*
X63554750Y-23213760D01*
X63584896Y-23161546D01*
X63609763Y-23118475D01*
X63609764Y-23118473D01*
X63612497Y-23113739D01*
X63632552Y-23000000D01*
X63612497Y-22886261D01*
X63554750Y-22786240D01*
X63466276Y-22712002D01*
X63433302Y-22700000D01*
X65267448Y-22700000D01*
X65287503Y-22813739D01*
X65345250Y-22913760D01*
X65433724Y-22987998D01*
X65466699Y-23000000D01*
X65537114Y-23025630D01*
X65537117Y-23025630D01*
X65542253Y-23027500D01*
X65657747Y-23027500D01*
X65662883Y-23025630D01*
X65662886Y-23025630D01*
X65733301Y-23000000D01*
X65766276Y-22987998D01*
X65854750Y-22913760D01*
X65912497Y-22813739D01*
X65932552Y-22700000D01*
X65912497Y-22586261D01*
X65854750Y-22486240D01*
X65766276Y-22412002D01*
X65717277Y-22394167D01*
X65662886Y-22374370D01*
X65662883Y-22374370D01*
X65657747Y-22372500D01*
X65542253Y-22372500D01*
X65537117Y-22374370D01*
X65537114Y-22374370D01*
X65482723Y-22394167D01*
X65433724Y-22412002D01*
X65345250Y-22486240D01*
X65287503Y-22586261D01*
X65267448Y-22700000D01*
X63433302Y-22700000D01*
X63417277Y-22694167D01*
X63362886Y-22674370D01*
X63362883Y-22674370D01*
X63357747Y-22672500D01*
X63242253Y-22672500D01*
X63237117Y-22674370D01*
X63237114Y-22674370D01*
X63182723Y-22694167D01*
X63133724Y-22712002D01*
X63045250Y-22786240D01*
X62987503Y-22886261D01*
X62967448Y-23000000D01*
X62132552Y-23000000D01*
X62112497Y-22886261D01*
X62054750Y-22786240D01*
X61966276Y-22712002D01*
X61917277Y-22694167D01*
X61862886Y-22674370D01*
X61862883Y-22674370D01*
X61857747Y-22672500D01*
X61742253Y-22672500D01*
X61737117Y-22674370D01*
X61737114Y-22674370D01*
X61682723Y-22694167D01*
X61633724Y-22712002D01*
X61545250Y-22786240D01*
X61487503Y-22886261D01*
X61467448Y-23000000D01*
X60532552Y-23000000D01*
X60512497Y-22886261D01*
X60454750Y-22786240D01*
X60366276Y-22712002D01*
X60317277Y-22694167D01*
X60262886Y-22674370D01*
X60262883Y-22674370D01*
X60257747Y-22672500D01*
X60142253Y-22672500D01*
X60137117Y-22674370D01*
X60137114Y-22674370D01*
X60082723Y-22694167D01*
X60033724Y-22712002D01*
X59945250Y-22786240D01*
X59887503Y-22886261D01*
X59867448Y-23000000D01*
X55459577Y-23000000D01*
X55438589Y-21908354D01*
X55425546Y-21229941D01*
X58618948Y-21229941D01*
X58639003Y-21343680D01*
X58696750Y-21443701D01*
X58700938Y-21447215D01*
X58748877Y-21487441D01*
X58770965Y-21529872D01*
X58756581Y-21575493D01*
X58749911Y-21582162D01*
X58749438Y-21582726D01*
X58745250Y-21586240D01*
X58742517Y-21590974D01*
X58715047Y-21638554D01*
X58687503Y-21686261D01*
X58667448Y-21800000D01*
X58687503Y-21913739D01*
X58745250Y-22013760D01*
X58833724Y-22087998D01*
X58882723Y-22105833D01*
X58937114Y-22125630D01*
X58937117Y-22125630D01*
X58942253Y-22127500D01*
X59057747Y-22127500D01*
X59062883Y-22125630D01*
X59062886Y-22125630D01*
X59117277Y-22105833D01*
X59166276Y-22087998D01*
X59254750Y-22013760D01*
X59312497Y-21913739D01*
X59332552Y-21800000D01*
X59312497Y-21686261D01*
X59284954Y-21638554D01*
X59257483Y-21590974D01*
X59254750Y-21586240D01*
X59237760Y-21571984D01*
X59202623Y-21542500D01*
X59180535Y-21500069D01*
X59194919Y-21454448D01*
X59201589Y-21447779D01*
X59202062Y-21447215D01*
X59206250Y-21443701D01*
X59263997Y-21343680D01*
X59271699Y-21300000D01*
X59867448Y-21300000D01*
X59887503Y-21413739D01*
X59890236Y-21418473D01*
X59890237Y-21418475D01*
X59906830Y-21447215D01*
X59945250Y-21513760D01*
X60033724Y-21587998D01*
X60066309Y-21599858D01*
X60137114Y-21625630D01*
X60137117Y-21625630D01*
X60142253Y-21627500D01*
X60257747Y-21627500D01*
X60262883Y-21625630D01*
X60262886Y-21625630D01*
X60333691Y-21599858D01*
X60366276Y-21587998D01*
X60454750Y-21513760D01*
X60493170Y-21447215D01*
X60509763Y-21418475D01*
X60509764Y-21418473D01*
X60512497Y-21413739D01*
X60532552Y-21300000D01*
X60530348Y-21287500D01*
X61467448Y-21287500D01*
X61487503Y-21401239D01*
X61545250Y-21501260D01*
X61633724Y-21575498D01*
X61663237Y-21586240D01*
X61737114Y-21613130D01*
X61737117Y-21613130D01*
X61742253Y-21615000D01*
X61857747Y-21615000D01*
X61862883Y-21613130D01*
X61862886Y-21613130D01*
X61936763Y-21586240D01*
X61966276Y-21575498D01*
X62054750Y-21501260D01*
X62112497Y-21401239D01*
X62130348Y-21300000D01*
X62967448Y-21300000D01*
X62987503Y-21413739D01*
X62990236Y-21418473D01*
X62990237Y-21418475D01*
X63006830Y-21447215D01*
X63045250Y-21513760D01*
X63133724Y-21587998D01*
X63166309Y-21599858D01*
X63237114Y-21625630D01*
X63237117Y-21625630D01*
X63242253Y-21627500D01*
X63357747Y-21627500D01*
X63362883Y-21625630D01*
X63362886Y-21625630D01*
X63433691Y-21599858D01*
X63466276Y-21587998D01*
X63554750Y-21513760D01*
X63593170Y-21447215D01*
X63609763Y-21418475D01*
X63609764Y-21418473D01*
X63612497Y-21413739D01*
X63632552Y-21300000D01*
X63612497Y-21186261D01*
X63554750Y-21086240D01*
X63476898Y-21020915D01*
X63470464Y-21015516D01*
X63466276Y-21012002D01*
X63405124Y-20989744D01*
X63362886Y-20974370D01*
X63362883Y-20974370D01*
X63357747Y-20972500D01*
X63242253Y-20972500D01*
X63237117Y-20974370D01*
X63237114Y-20974370D01*
X63194876Y-20989744D01*
X63133724Y-21012002D01*
X63129536Y-21015516D01*
X63123102Y-21020915D01*
X63045250Y-21086240D01*
X62987503Y-21186261D01*
X62967448Y-21300000D01*
X62130348Y-21300000D01*
X62132552Y-21287500D01*
X62112497Y-21173761D01*
X62107944Y-21165874D01*
X62057483Y-21078474D01*
X62054750Y-21073740D01*
X61966276Y-20999502D01*
X61892090Y-20972500D01*
X61862886Y-20961870D01*
X61862883Y-20961870D01*
X61857747Y-20960000D01*
X61742253Y-20960000D01*
X61737117Y-20961870D01*
X61737114Y-20961870D01*
X61707910Y-20972500D01*
X61633724Y-20999502D01*
X61545250Y-21073740D01*
X61542517Y-21078474D01*
X61492057Y-21165874D01*
X61487503Y-21173761D01*
X61467448Y-21287500D01*
X60530348Y-21287500D01*
X60512497Y-21186261D01*
X60454750Y-21086240D01*
X60376898Y-21020915D01*
X60370464Y-21015516D01*
X60366276Y-21012002D01*
X60305124Y-20989744D01*
X60262886Y-20974370D01*
X60262883Y-20974370D01*
X60257747Y-20972500D01*
X60142253Y-20972500D01*
X60137117Y-20974370D01*
X60137114Y-20974370D01*
X60094876Y-20989744D01*
X60033724Y-21012002D01*
X60029536Y-21015516D01*
X60023102Y-21020915D01*
X59945250Y-21086240D01*
X59887503Y-21186261D01*
X59867448Y-21300000D01*
X59271699Y-21300000D01*
X59284052Y-21229941D01*
X59263997Y-21116202D01*
X59246699Y-21086240D01*
X59208983Y-21020915D01*
X59206250Y-21016181D01*
X59131739Y-20953659D01*
X59121964Y-20945457D01*
X59117776Y-20941943D01*
X59068777Y-20924108D01*
X59014386Y-20904311D01*
X59014383Y-20904311D01*
X59009247Y-20902441D01*
X58893753Y-20902441D01*
X58888617Y-20904311D01*
X58888614Y-20904311D01*
X58834223Y-20924108D01*
X58785224Y-20941943D01*
X58781036Y-20945457D01*
X58771261Y-20953659D01*
X58696750Y-21016181D01*
X58694017Y-21020915D01*
X58656302Y-21086240D01*
X58639003Y-21116202D01*
X58618948Y-21229941D01*
X55425546Y-21229941D01*
X55398054Y-19800000D01*
X56157448Y-19800000D01*
X56177503Y-19913739D01*
X56180236Y-19918473D01*
X56180237Y-19918475D01*
X56214584Y-19977965D01*
X56235250Y-20013760D01*
X56323724Y-20087998D01*
X56372723Y-20105833D01*
X56427114Y-20125630D01*
X56427117Y-20125630D01*
X56432253Y-20127500D01*
X56547747Y-20127500D01*
X56552883Y-20125630D01*
X56552886Y-20125630D01*
X56607277Y-20105833D01*
X56656276Y-20087998D01*
X56744750Y-20013760D01*
X56765416Y-19977965D01*
X56799763Y-19918475D01*
X56799764Y-19918473D01*
X56802497Y-19913739D01*
X56822552Y-19800000D01*
X56802497Y-19686261D01*
X56752694Y-19600000D01*
X59867448Y-19600000D01*
X59887503Y-19713739D01*
X59890236Y-19718473D01*
X59890237Y-19718475D01*
X59898389Y-19732594D01*
X59945250Y-19813760D01*
X60033724Y-19887998D01*
X60082723Y-19905833D01*
X60137114Y-19925630D01*
X60137117Y-19925630D01*
X60142253Y-19927500D01*
X60257747Y-19927500D01*
X60262883Y-19925630D01*
X60262886Y-19925630D01*
X60317277Y-19905833D01*
X60366276Y-19887998D01*
X60454750Y-19813760D01*
X60501611Y-19732594D01*
X60509763Y-19718475D01*
X60509764Y-19718473D01*
X60512497Y-19713739D01*
X60532552Y-19600000D01*
X61467448Y-19600000D01*
X61487503Y-19713739D01*
X61490236Y-19718473D01*
X61490237Y-19718475D01*
X61498389Y-19732594D01*
X61545250Y-19813760D01*
X61633724Y-19887998D01*
X61682723Y-19905833D01*
X61737114Y-19925630D01*
X61737117Y-19925630D01*
X61742253Y-19927500D01*
X61857747Y-19927500D01*
X61862883Y-19925630D01*
X61862886Y-19925630D01*
X61917277Y-19905833D01*
X61966276Y-19887998D01*
X62054750Y-19813760D01*
X62101611Y-19732594D01*
X62109763Y-19718475D01*
X62109764Y-19718473D01*
X62112497Y-19713739D01*
X62132552Y-19600000D01*
X62967448Y-19600000D01*
X62987503Y-19713739D01*
X62990236Y-19718473D01*
X62990237Y-19718475D01*
X62998389Y-19732594D01*
X63045250Y-19813760D01*
X63133724Y-19887998D01*
X63182723Y-19905833D01*
X63237114Y-19925630D01*
X63237117Y-19925630D01*
X63242253Y-19927500D01*
X63357747Y-19927500D01*
X63362883Y-19925630D01*
X63362886Y-19925630D01*
X63417277Y-19905833D01*
X63466276Y-19887998D01*
X63554750Y-19813760D01*
X63601611Y-19732594D01*
X63609763Y-19718475D01*
X63609764Y-19718473D01*
X63612497Y-19713739D01*
X63632552Y-19600000D01*
X63612497Y-19486261D01*
X63596363Y-19458315D01*
X63561581Y-19398072D01*
X63554750Y-19386240D01*
X63466276Y-19312002D01*
X63417277Y-19294167D01*
X63362886Y-19274370D01*
X63362883Y-19274370D01*
X63357747Y-19272500D01*
X63242253Y-19272500D01*
X63237117Y-19274370D01*
X63237114Y-19274370D01*
X63182723Y-19294167D01*
X63133724Y-19312002D01*
X63045250Y-19386240D01*
X63038419Y-19398072D01*
X63003638Y-19458315D01*
X62987503Y-19486261D01*
X62967448Y-19600000D01*
X62132552Y-19600000D01*
X62112497Y-19486261D01*
X62096363Y-19458315D01*
X62061581Y-19398072D01*
X62054750Y-19386240D01*
X61966276Y-19312002D01*
X61917277Y-19294167D01*
X61862886Y-19274370D01*
X61862883Y-19274370D01*
X61857747Y-19272500D01*
X61742253Y-19272500D01*
X61737117Y-19274370D01*
X61737114Y-19274370D01*
X61682723Y-19294167D01*
X61633724Y-19312002D01*
X61545250Y-19386240D01*
X61538419Y-19398072D01*
X61503638Y-19458315D01*
X61487503Y-19486261D01*
X61467448Y-19600000D01*
X60532552Y-19600000D01*
X60512497Y-19486261D01*
X60496363Y-19458315D01*
X60461581Y-19398072D01*
X60454750Y-19386240D01*
X60366276Y-19312002D01*
X60317277Y-19294167D01*
X60262886Y-19274370D01*
X60262883Y-19274370D01*
X60257747Y-19272500D01*
X60142253Y-19272500D01*
X60137117Y-19274370D01*
X60137114Y-19274370D01*
X60082723Y-19294167D01*
X60033724Y-19312002D01*
X59945250Y-19386240D01*
X59938419Y-19398072D01*
X59903638Y-19458315D01*
X59887503Y-19486261D01*
X59867448Y-19600000D01*
X56752694Y-19600000D01*
X56744750Y-19586240D01*
X56656276Y-19512002D01*
X56598503Y-19490974D01*
X56552886Y-19474370D01*
X56552883Y-19474370D01*
X56547747Y-19472500D01*
X56432253Y-19472500D01*
X56427117Y-19474370D01*
X56427114Y-19474370D01*
X56381497Y-19490974D01*
X56323724Y-19512002D01*
X56235250Y-19586240D01*
X56177503Y-19686261D01*
X56157448Y-19800000D01*
X55398054Y-19800000D01*
X55365369Y-18100000D01*
X58167448Y-18100000D01*
X58187503Y-18213739D01*
X58190236Y-18218473D01*
X58190237Y-18218475D01*
X58209312Y-18251514D01*
X58245250Y-18313760D01*
X58249438Y-18317274D01*
X58327743Y-18382979D01*
X58333724Y-18387998D01*
X58382723Y-18405833D01*
X58437114Y-18425630D01*
X58437117Y-18425630D01*
X58442253Y-18427500D01*
X58557747Y-18427500D01*
X58562883Y-18425630D01*
X58562886Y-18425630D01*
X58617277Y-18405833D01*
X58666276Y-18387998D01*
X58676650Y-18379293D01*
X58722271Y-18364908D01*
X58764702Y-18386995D01*
X58779087Y-18432616D01*
X58778376Y-18438023D01*
X58767448Y-18500000D01*
X58787503Y-18613739D01*
X58845250Y-18713760D01*
X58933724Y-18787998D01*
X58966699Y-18800000D01*
X59037114Y-18825630D01*
X59037117Y-18825630D01*
X59042253Y-18827500D01*
X59157747Y-18827500D01*
X59162883Y-18825630D01*
X59162886Y-18825630D01*
X59233301Y-18800000D01*
X59266276Y-18787998D01*
X59354750Y-18713760D01*
X59412497Y-18613739D01*
X59426205Y-18535998D01*
X62767448Y-18535998D01*
X62787503Y-18649737D01*
X62845250Y-18749758D01*
X62849438Y-18753272D01*
X62911541Y-18805382D01*
X62933724Y-18823996D01*
X62982723Y-18841831D01*
X63037114Y-18861628D01*
X63037117Y-18861628D01*
X63042253Y-18863498D01*
X63157747Y-18863498D01*
X63162883Y-18861628D01*
X63162886Y-18861628D01*
X63217277Y-18841831D01*
X63266276Y-18823996D01*
X63288460Y-18805382D01*
X63350562Y-18753272D01*
X63354750Y-18749758D01*
X63412497Y-18649737D01*
X63432552Y-18535998D01*
X63425626Y-18496718D01*
X63863550Y-18496718D01*
X63883605Y-18610457D01*
X63886338Y-18615191D01*
X63886339Y-18615193D01*
X63920686Y-18674683D01*
X63941352Y-18710478D01*
X64029826Y-18784716D01*
X64071818Y-18800000D01*
X64133216Y-18822348D01*
X64133219Y-18822348D01*
X64138355Y-18824218D01*
X64253849Y-18824218D01*
X64258985Y-18822348D01*
X64258988Y-18822348D01*
X64320386Y-18800000D01*
X64667448Y-18800000D01*
X64687503Y-18913739D01*
X64745250Y-19013760D01*
X64833724Y-19087998D01*
X64882723Y-19105833D01*
X64937114Y-19125630D01*
X64937117Y-19125630D01*
X64942253Y-19127500D01*
X65057747Y-19127500D01*
X65062883Y-19125630D01*
X65062886Y-19125630D01*
X65117277Y-19105833D01*
X65166276Y-19087998D01*
X65254750Y-19013760D01*
X65312497Y-18913739D01*
X65332552Y-18800000D01*
X65312497Y-18686261D01*
X65254750Y-18586240D01*
X65194874Y-18535998D01*
X65170464Y-18515516D01*
X65166276Y-18512002D01*
X65109498Y-18491336D01*
X65062886Y-18474370D01*
X65062883Y-18474370D01*
X65057747Y-18472500D01*
X64942253Y-18472500D01*
X64937117Y-18474370D01*
X64937114Y-18474370D01*
X64890502Y-18491336D01*
X64833724Y-18512002D01*
X64829536Y-18515516D01*
X64805126Y-18535998D01*
X64745250Y-18586240D01*
X64687503Y-18686261D01*
X64667448Y-18800000D01*
X64320386Y-18800000D01*
X64362378Y-18784716D01*
X64450852Y-18710478D01*
X64471518Y-18674683D01*
X64505865Y-18615193D01*
X64505866Y-18615191D01*
X64508599Y-18610457D01*
X64528654Y-18496718D01*
X64508599Y-18382979D01*
X64450852Y-18282958D01*
X64370477Y-18215516D01*
X64366566Y-18212234D01*
X64362378Y-18208720D01*
X64313379Y-18190885D01*
X64258988Y-18171088D01*
X64258985Y-18171088D01*
X64253849Y-18169218D01*
X64138355Y-18169218D01*
X64133219Y-18171088D01*
X64133216Y-18171088D01*
X64078825Y-18190885D01*
X64029826Y-18208720D01*
X64025638Y-18212234D01*
X64021727Y-18215516D01*
X63941352Y-18282958D01*
X63883605Y-18382979D01*
X63863550Y-18496718D01*
X63425626Y-18496718D01*
X63412497Y-18422259D01*
X63392717Y-18387998D01*
X63357483Y-18326972D01*
X63354750Y-18322238D01*
X63266276Y-18248000D01*
X63217277Y-18230165D01*
X63162886Y-18210368D01*
X63162883Y-18210368D01*
X63157747Y-18208498D01*
X63042253Y-18208498D01*
X63037117Y-18210368D01*
X63037114Y-18210368D01*
X62982723Y-18230165D01*
X62933724Y-18248000D01*
X62845250Y-18322238D01*
X62842517Y-18326972D01*
X62807284Y-18387998D01*
X62787503Y-18422259D01*
X62767448Y-18535998D01*
X59426205Y-18535998D01*
X59432552Y-18500000D01*
X59412497Y-18386261D01*
X59354750Y-18286240D01*
X59266276Y-18212002D01*
X59217277Y-18194167D01*
X59162886Y-18174370D01*
X59162883Y-18174370D01*
X59157747Y-18172500D01*
X59042253Y-18172500D01*
X59037117Y-18174370D01*
X59037114Y-18174370D01*
X58982723Y-18194167D01*
X58933724Y-18212002D01*
X58929536Y-18215516D01*
X58923350Y-18220707D01*
X58877729Y-18235092D01*
X58835298Y-18213005D01*
X58820913Y-18167384D01*
X58821624Y-18161977D01*
X58831603Y-18105382D01*
X58832552Y-18100000D01*
X58814920Y-18000000D01*
X64767448Y-18000000D01*
X64787503Y-18113739D01*
X64845250Y-18213760D01*
X64849438Y-18217274D01*
X64927718Y-18282958D01*
X64933724Y-18287998D01*
X64982723Y-18305833D01*
X65037114Y-18325630D01*
X65037117Y-18325630D01*
X65042253Y-18327500D01*
X65157747Y-18327500D01*
X65162883Y-18325630D01*
X65162886Y-18325630D01*
X65217277Y-18305833D01*
X65266276Y-18287998D01*
X65272283Y-18282958D01*
X65350562Y-18217274D01*
X65354750Y-18213760D01*
X65412497Y-18113739D01*
X65432552Y-18000000D01*
X65412497Y-17886261D01*
X65354750Y-17786240D01*
X65266276Y-17712002D01*
X65217277Y-17694167D01*
X65162886Y-17674370D01*
X65162883Y-17674370D01*
X65157747Y-17672500D01*
X65042253Y-17672500D01*
X65037117Y-17674370D01*
X65037114Y-17674370D01*
X64982723Y-17694167D01*
X64933724Y-17712002D01*
X64845250Y-17786240D01*
X64787503Y-17886261D01*
X64767448Y-18000000D01*
X58814920Y-18000000D01*
X58812497Y-17986261D01*
X58754750Y-17886240D01*
X58666276Y-17812002D01*
X58595497Y-17786240D01*
X58562886Y-17774370D01*
X58562883Y-17774370D01*
X58557747Y-17772500D01*
X58442253Y-17772500D01*
X58437117Y-17774370D01*
X58437114Y-17774370D01*
X58404503Y-17786240D01*
X58333724Y-17812002D01*
X58245250Y-17886240D01*
X58187503Y-17986261D01*
X58167448Y-18100000D01*
X55365369Y-18100000D01*
X55356025Y-17614003D01*
X61479317Y-17614003D01*
X61499372Y-17727742D01*
X61557119Y-17827763D01*
X61645593Y-17902001D01*
X61694592Y-17919836D01*
X61748983Y-17939633D01*
X61748986Y-17939633D01*
X61754122Y-17941503D01*
X61869616Y-17941503D01*
X61874752Y-17939633D01*
X61874755Y-17939633D01*
X61929146Y-17919836D01*
X61978145Y-17902001D01*
X62066619Y-17827763D01*
X62124366Y-17727742D01*
X62144421Y-17614003D01*
X62367448Y-17614003D01*
X62387503Y-17727742D01*
X62445250Y-17827763D01*
X62533724Y-17902001D01*
X62582723Y-17919836D01*
X62637114Y-17939633D01*
X62637117Y-17939633D01*
X62642253Y-17941503D01*
X62757747Y-17941503D01*
X62762883Y-17939633D01*
X62762886Y-17939633D01*
X62817277Y-17919836D01*
X62866276Y-17902001D01*
X62954750Y-17827763D01*
X63012497Y-17727742D01*
X63032552Y-17614003D01*
X63012497Y-17500264D01*
X63006495Y-17489867D01*
X62957483Y-17404977D01*
X62954750Y-17400243D01*
X62866276Y-17326005D01*
X62817277Y-17308170D01*
X62762886Y-17288373D01*
X62762883Y-17288373D01*
X62757747Y-17286503D01*
X62642253Y-17286503D01*
X62637117Y-17288373D01*
X62637114Y-17288373D01*
X62582723Y-17308170D01*
X62533724Y-17326005D01*
X62445250Y-17400243D01*
X62442517Y-17404977D01*
X62393506Y-17489867D01*
X62387503Y-17500264D01*
X62367448Y-17614003D01*
X62144421Y-17614003D01*
X62124366Y-17500264D01*
X62118364Y-17489867D01*
X62069352Y-17404977D01*
X62066619Y-17400243D01*
X61978145Y-17326005D01*
X61929146Y-17308170D01*
X61874755Y-17288373D01*
X61874752Y-17288373D01*
X61869616Y-17286503D01*
X61754122Y-17286503D01*
X61748986Y-17288373D01*
X61748983Y-17288373D01*
X61694592Y-17308170D01*
X61645593Y-17326005D01*
X61557119Y-17400243D01*
X61554386Y-17404977D01*
X61505375Y-17489867D01*
X61499372Y-17500264D01*
X61479317Y-17614003D01*
X55356025Y-17614003D01*
X55348066Y-17200000D01*
X59467448Y-17200000D01*
X59487503Y-17313739D01*
X59490236Y-17318473D01*
X59490237Y-17318475D01*
X59524584Y-17377965D01*
X59545250Y-17413760D01*
X59633724Y-17487998D01*
X59667424Y-17500264D01*
X59737114Y-17525630D01*
X59737117Y-17525630D01*
X59742253Y-17527500D01*
X59857747Y-17527500D01*
X59862883Y-17525630D01*
X59862886Y-17525630D01*
X59932576Y-17500264D01*
X59966276Y-17487998D01*
X60054750Y-17413760D01*
X60075416Y-17377965D01*
X60109763Y-17318475D01*
X60109764Y-17318473D01*
X60112497Y-17313739D01*
X60132552Y-17200000D01*
X60112497Y-17086261D01*
X60054750Y-16986240D01*
X59966276Y-16912002D01*
X59917277Y-16894167D01*
X59862886Y-16874370D01*
X59862883Y-16874370D01*
X59857747Y-16872500D01*
X59742253Y-16872500D01*
X59737117Y-16874370D01*
X59737114Y-16874370D01*
X59682723Y-16894167D01*
X59633724Y-16912002D01*
X59545250Y-16986240D01*
X59487503Y-17086261D01*
X59467448Y-17200000D01*
X55348066Y-17200000D01*
X55315766Y-15520000D01*
X59447448Y-15520000D01*
X59467503Y-15633739D01*
X59525250Y-15733760D01*
X59613724Y-15807998D01*
X59662723Y-15825833D01*
X59717114Y-15845630D01*
X59717117Y-15845630D01*
X59722253Y-15847500D01*
X59837747Y-15847500D01*
X59842883Y-15845630D01*
X59842886Y-15845630D01*
X59897277Y-15825833D01*
X59946276Y-15807998D01*
X60034750Y-15733760D01*
X60092497Y-15633739D01*
X60112552Y-15520000D01*
X61747448Y-15520000D01*
X61767503Y-15633739D01*
X61825250Y-15733760D01*
X61913724Y-15807998D01*
X61962723Y-15825833D01*
X62017114Y-15845630D01*
X62017117Y-15845630D01*
X62022253Y-15847500D01*
X62137747Y-15847500D01*
X62142883Y-15845630D01*
X62142886Y-15845630D01*
X62197277Y-15825833D01*
X62246276Y-15807998D01*
X62334750Y-15733760D01*
X62392497Y-15633739D01*
X62412552Y-15520000D01*
X62947448Y-15520000D01*
X62967503Y-15633739D01*
X63025250Y-15733760D01*
X63113724Y-15807998D01*
X63162723Y-15825833D01*
X63217114Y-15845630D01*
X63217117Y-15845630D01*
X63222253Y-15847500D01*
X63337747Y-15847500D01*
X63342883Y-15845630D01*
X63342886Y-15845630D01*
X63397277Y-15825833D01*
X63446276Y-15807998D01*
X63534750Y-15733760D01*
X63592497Y-15633739D01*
X63612552Y-15520000D01*
X63592497Y-15406261D01*
X63534750Y-15306240D01*
X63446276Y-15232002D01*
X63397277Y-15214167D01*
X63342886Y-15194370D01*
X63342883Y-15194370D01*
X63337747Y-15192500D01*
X63222253Y-15192500D01*
X63217117Y-15194370D01*
X63217114Y-15194370D01*
X63162723Y-15214167D01*
X63113724Y-15232002D01*
X63025250Y-15306240D01*
X62967503Y-15406261D01*
X62947448Y-15520000D01*
X62412552Y-15520000D01*
X62392497Y-15406261D01*
X62334750Y-15306240D01*
X62246276Y-15232002D01*
X62197277Y-15214167D01*
X62142886Y-15194370D01*
X62142883Y-15194370D01*
X62137747Y-15192500D01*
X62022253Y-15192500D01*
X62017117Y-15194370D01*
X62017114Y-15194370D01*
X61962723Y-15214167D01*
X61913724Y-15232002D01*
X61825250Y-15306240D01*
X61767503Y-15406261D01*
X61747448Y-15520000D01*
X60112552Y-15520000D01*
X60092497Y-15406261D01*
X60034750Y-15306240D01*
X59946276Y-15232002D01*
X59897277Y-15214167D01*
X59842886Y-15194370D01*
X59842883Y-15194370D01*
X59837747Y-15192500D01*
X59722253Y-15192500D01*
X59717117Y-15194370D01*
X59717114Y-15194370D01*
X59662723Y-15214167D01*
X59613724Y-15232002D01*
X59525250Y-15306240D01*
X59467503Y-15406261D01*
X59447448Y-15520000D01*
X55315766Y-15520000D01*
X55301225Y-14763701D01*
X55318677Y-14719164D01*
X55363713Y-14700000D01*
X66156807Y-14700000D01*
X66201001Y-14718306D01*
G37*
G04 #@! TD.AperFunction*
G04 #@! TA.AperFunction,Conductor*
G36*
X93500604Y-19018578D02*
G01*
X93518910Y-19063020D01*
X93486318Y-27227500D01*
X93478322Y-29230636D01*
X93459839Y-29274757D01*
X93414761Y-29292878D01*
X78582759Y-29041001D01*
X78538883Y-29021947D01*
X78521322Y-28978254D01*
X78529828Y-26900000D01*
X84367448Y-26900000D01*
X84387503Y-27013739D01*
X84445250Y-27113760D01*
X84533724Y-27187998D01*
X84582723Y-27205833D01*
X84637114Y-27225630D01*
X84637117Y-27225630D01*
X84642253Y-27227500D01*
X84757747Y-27227500D01*
X84762883Y-27225630D01*
X84762886Y-27225630D01*
X84817277Y-27205833D01*
X84866276Y-27187998D01*
X84954750Y-27113760D01*
X85012497Y-27013739D01*
X85032552Y-26900000D01*
X90867448Y-26900000D01*
X90887503Y-27013739D01*
X90945250Y-27113760D01*
X91033724Y-27187998D01*
X91082723Y-27205833D01*
X91137114Y-27225630D01*
X91137117Y-27225630D01*
X91142253Y-27227500D01*
X91257747Y-27227500D01*
X91262883Y-27225630D01*
X91262886Y-27225630D01*
X91317277Y-27205833D01*
X91366276Y-27187998D01*
X91454750Y-27113760D01*
X91512497Y-27013739D01*
X91532552Y-26900000D01*
X91512497Y-26786261D01*
X91454750Y-26686240D01*
X91366276Y-26612002D01*
X91317277Y-26594167D01*
X91262886Y-26574370D01*
X91262883Y-26574370D01*
X91257747Y-26572500D01*
X91142253Y-26572500D01*
X91137117Y-26574370D01*
X91137114Y-26574370D01*
X91082723Y-26594167D01*
X91033724Y-26612002D01*
X90945250Y-26686240D01*
X90887503Y-26786261D01*
X90867448Y-26900000D01*
X85032552Y-26900000D01*
X85012497Y-26786261D01*
X84954750Y-26686240D01*
X84866276Y-26612002D01*
X84817277Y-26594167D01*
X84762886Y-26574370D01*
X84762883Y-26574370D01*
X84757747Y-26572500D01*
X84642253Y-26572500D01*
X84637117Y-26574370D01*
X84637114Y-26574370D01*
X84582723Y-26594167D01*
X84533724Y-26612002D01*
X84445250Y-26686240D01*
X84387503Y-26786261D01*
X84367448Y-26900000D01*
X78529828Y-26900000D01*
X78537195Y-25100000D01*
X85467448Y-25100000D01*
X85487503Y-25213739D01*
X85545250Y-25313760D01*
X85633724Y-25387998D01*
X85682723Y-25405833D01*
X85737114Y-25425630D01*
X85737117Y-25425630D01*
X85742253Y-25427500D01*
X85857747Y-25427500D01*
X85862883Y-25425630D01*
X85862886Y-25425630D01*
X85917277Y-25405833D01*
X85966276Y-25387998D01*
X86054750Y-25313760D01*
X86112497Y-25213739D01*
X86132552Y-25100000D01*
X86112497Y-24986261D01*
X86054750Y-24886240D01*
X85966276Y-24812002D01*
X85917277Y-24794167D01*
X85862886Y-24774370D01*
X85862883Y-24774370D01*
X85857747Y-24772500D01*
X85742253Y-24772500D01*
X85737117Y-24774370D01*
X85737114Y-24774370D01*
X85682723Y-24794167D01*
X85633724Y-24812002D01*
X85545250Y-24886240D01*
X85487503Y-24986261D01*
X85467448Y-25100000D01*
X78537195Y-25100000D01*
X78537638Y-24991646D01*
X78546608Y-22800000D01*
X83467448Y-22800000D01*
X83487503Y-22913739D01*
X83545250Y-23013760D01*
X83633724Y-23087998D01*
X83682723Y-23105833D01*
X83737114Y-23125630D01*
X83737117Y-23125630D01*
X83742253Y-23127500D01*
X83857747Y-23127500D01*
X83862883Y-23125630D01*
X83862886Y-23125630D01*
X83917277Y-23105833D01*
X83966276Y-23087998D01*
X84054750Y-23013760D01*
X84112497Y-22913739D01*
X84132552Y-22800000D01*
X84112497Y-22686261D01*
X84054750Y-22586240D01*
X83966276Y-22512002D01*
X83917277Y-22494167D01*
X83862886Y-22474370D01*
X83862883Y-22474370D01*
X83857747Y-22472500D01*
X83742253Y-22472500D01*
X83737117Y-22474370D01*
X83737114Y-22474370D01*
X83682723Y-22494167D01*
X83633724Y-22512002D01*
X83545250Y-22586240D01*
X83487503Y-22686261D01*
X83467448Y-22800000D01*
X78546608Y-22800000D01*
X78551566Y-21588761D01*
X78570051Y-21544644D01*
X78603150Y-21527500D01*
X78608500Y-21527500D01*
X78613636Y-21525630D01*
X78613639Y-21525630D01*
X78668030Y-21505833D01*
X78717029Y-21487998D01*
X78805503Y-21413760D01*
X78810561Y-21405000D01*
X85762448Y-21405000D01*
X85782503Y-21518739D01*
X85785236Y-21523473D01*
X85785237Y-21523475D01*
X85787561Y-21527500D01*
X85840250Y-21618760D01*
X85928724Y-21692998D01*
X85977723Y-21710833D01*
X86032114Y-21730630D01*
X86032117Y-21730630D01*
X86037253Y-21732500D01*
X86152747Y-21732500D01*
X86157883Y-21730630D01*
X86157886Y-21730630D01*
X86212277Y-21710833D01*
X86261276Y-21692998D01*
X86349750Y-21618760D01*
X86402439Y-21527500D01*
X86404763Y-21523475D01*
X86404764Y-21523473D01*
X86407497Y-21518739D01*
X86427552Y-21405000D01*
X86407497Y-21291261D01*
X86404611Y-21286261D01*
X86357915Y-21205382D01*
X86349750Y-21191240D01*
X86261276Y-21117002D01*
X86214565Y-21100000D01*
X87967448Y-21100000D01*
X87987503Y-21213739D01*
X88045250Y-21313760D01*
X88133724Y-21387998D01*
X88166699Y-21400000D01*
X88237114Y-21425630D01*
X88237117Y-21425630D01*
X88242253Y-21427500D01*
X88357747Y-21427500D01*
X88362883Y-21425630D01*
X88362886Y-21425630D01*
X88433301Y-21400000D01*
X92667448Y-21400000D01*
X92687503Y-21513739D01*
X92690236Y-21518473D01*
X92690237Y-21518475D01*
X92693124Y-21523475D01*
X92745250Y-21613760D01*
X92833724Y-21687998D01*
X92882723Y-21705833D01*
X92937114Y-21725630D01*
X92937117Y-21725630D01*
X92942253Y-21727500D01*
X93057747Y-21727500D01*
X93062883Y-21725630D01*
X93062886Y-21725630D01*
X93117277Y-21705833D01*
X93166276Y-21687998D01*
X93254750Y-21613760D01*
X93306876Y-21523475D01*
X93309763Y-21518475D01*
X93309764Y-21518473D01*
X93312497Y-21513739D01*
X93332552Y-21400000D01*
X93312497Y-21286261D01*
X93254750Y-21186240D01*
X93166276Y-21112002D01*
X93100327Y-21087998D01*
X93062886Y-21074370D01*
X93062883Y-21074370D01*
X93057747Y-21072500D01*
X92942253Y-21072500D01*
X92937117Y-21074370D01*
X92937114Y-21074370D01*
X92899673Y-21087998D01*
X92833724Y-21112002D01*
X92745250Y-21186240D01*
X92687503Y-21286261D01*
X92667448Y-21400000D01*
X88433301Y-21400000D01*
X88466276Y-21387998D01*
X88554750Y-21313760D01*
X88612497Y-21213739D01*
X88632552Y-21100000D01*
X88612497Y-20986261D01*
X88554750Y-20886240D01*
X88466276Y-20812002D01*
X88417277Y-20794167D01*
X88362886Y-20774370D01*
X88362883Y-20774370D01*
X88357747Y-20772500D01*
X88242253Y-20772500D01*
X88237117Y-20774370D01*
X88237114Y-20774370D01*
X88182723Y-20794167D01*
X88133724Y-20812002D01*
X88045250Y-20886240D01*
X87987503Y-20986261D01*
X87967448Y-21100000D01*
X86214565Y-21100000D01*
X86199778Y-21094618D01*
X86157886Y-21079370D01*
X86157883Y-21079370D01*
X86152747Y-21077500D01*
X86037253Y-21077500D01*
X86032117Y-21079370D01*
X86032114Y-21079370D01*
X85990222Y-21094618D01*
X85928724Y-21117002D01*
X85840250Y-21191240D01*
X85832085Y-21205382D01*
X85785390Y-21286261D01*
X85782503Y-21291261D01*
X85762448Y-21405000D01*
X78810561Y-21405000D01*
X78863250Y-21313739D01*
X78883305Y-21200000D01*
X78863250Y-21086261D01*
X78859272Y-21079370D01*
X78808236Y-20990974D01*
X78805503Y-20986240D01*
X78717029Y-20912002D01*
X78608500Y-20872500D01*
X78605465Y-20872500D01*
X78566050Y-20847391D01*
X78554748Y-20811286D01*
X78554794Y-20800000D01*
X84967448Y-20800000D01*
X84987503Y-20913739D01*
X85045250Y-21013760D01*
X85133724Y-21087998D01*
X85166699Y-21100000D01*
X85237114Y-21125630D01*
X85237117Y-21125630D01*
X85242253Y-21127500D01*
X85357747Y-21127500D01*
X85362883Y-21125630D01*
X85362886Y-21125630D01*
X85433301Y-21100000D01*
X85466276Y-21087998D01*
X85554750Y-21013760D01*
X85612497Y-20913739D01*
X85632552Y-20800000D01*
X85612497Y-20686261D01*
X85554750Y-20586240D01*
X85466276Y-20512002D01*
X85417277Y-20494167D01*
X85362886Y-20474370D01*
X85362883Y-20474370D01*
X85357747Y-20472500D01*
X85242253Y-20472500D01*
X85237117Y-20474370D01*
X85237114Y-20474370D01*
X85182723Y-20494167D01*
X85133724Y-20512002D01*
X85045250Y-20586240D01*
X84987503Y-20686261D01*
X84967448Y-20800000D01*
X78554794Y-20800000D01*
X78560115Y-19500000D01*
X80967448Y-19500000D01*
X80987503Y-19613739D01*
X81045250Y-19713760D01*
X81133724Y-19787998D01*
X81182723Y-19805833D01*
X81237114Y-19825630D01*
X81237117Y-19825630D01*
X81242253Y-19827500D01*
X81357747Y-19827500D01*
X81362883Y-19825630D01*
X81362886Y-19825630D01*
X81417277Y-19805833D01*
X81466276Y-19787998D01*
X81554750Y-19713760D01*
X81612497Y-19613739D01*
X81632552Y-19500000D01*
X83367448Y-19500000D01*
X83387503Y-19613739D01*
X83445250Y-19713760D01*
X83533724Y-19787998D01*
X83582723Y-19805833D01*
X83637114Y-19825630D01*
X83637117Y-19825630D01*
X83642253Y-19827500D01*
X83757747Y-19827500D01*
X83762883Y-19825630D01*
X83762886Y-19825630D01*
X83817277Y-19805833D01*
X83866276Y-19787998D01*
X83954750Y-19713760D01*
X84012497Y-19613739D01*
X84032552Y-19500000D01*
X84012497Y-19386261D01*
X83954750Y-19286240D01*
X83866276Y-19212002D01*
X83817277Y-19194167D01*
X83762886Y-19174370D01*
X83762883Y-19174370D01*
X83757747Y-19172500D01*
X83642253Y-19172500D01*
X83637117Y-19174370D01*
X83637114Y-19174370D01*
X83582723Y-19194167D01*
X83533724Y-19212002D01*
X83445250Y-19286240D01*
X83387503Y-19386261D01*
X83367448Y-19500000D01*
X81632552Y-19500000D01*
X81612497Y-19386261D01*
X81554750Y-19286240D01*
X81466276Y-19212002D01*
X81417277Y-19194167D01*
X81362886Y-19174370D01*
X81362883Y-19174370D01*
X81357747Y-19172500D01*
X81242253Y-19172500D01*
X81237117Y-19174370D01*
X81237114Y-19174370D01*
X81182723Y-19194167D01*
X81133724Y-19212002D01*
X81045250Y-19286240D01*
X80987503Y-19386261D01*
X80967448Y-19500000D01*
X78560115Y-19500000D01*
X78560558Y-19391646D01*
X78561905Y-19062515D01*
X78580391Y-19018397D01*
X78624404Y-19000272D01*
X93456410Y-19000272D01*
X93500604Y-19018578D01*
G37*
G04 #@! TD.AperFunction*
M02*
