%TF.GenerationSoftware,KiCad,Pcbnew,6.0.7-1.fc36*%
%TF.CreationDate,2022-10-12T21:37:02-05:00*%
%TF.ProjectId,ardux_mini,61726475-785f-46d6-996e-692e6b696361,rev?*%
%TF.SameCoordinates,Original*%
%TF.FileFunction,Drillmap*%
%TF.FilePolarity,Positive*%
%FSLAX45Y45*%
G04 Gerber Fmt 4.5, Leading zero omitted, Abs format (unit mm)*
G04 Created by KiCad (PCBNEW 6.0.7-1.fc36) date 2022-10-12 21:37:02*
%MOMM*%
%LPD*%
G01*
G04 APERTURE LIST*
%ADD10C,0.100000*%
%ADD11C,0.200000*%
%ADD12C,0.020000*%
%ADD13C,0.030000*%
%ADD14C,0.060000*%
%ADD15C,0.075000*%
%ADD16C,0.080000*%
G04 APERTURE END LIST*
D10*
X3948797Y-6553197D02*
G75*
G03*
X3821797Y-6680200I3J-127003D01*
G01*
X3694797Y-6934197D02*
G75*
G03*
X3821797Y-6807200I3J126997D01*
G01*
X7922800Y-3276600D02*
G75*
G03*
X7922800Y-3276600I-125000J0D01*
G01*
X7758797Y-6426200D02*
X7758797Y-6553200D01*
X3821797Y-6807200D02*
X3821797Y-6680200D01*
X9781198Y-1445501D02*
G75*
G03*
X9654195Y-1318501I-127000J0D01*
G01*
X1535797Y-6934200D02*
X3694797Y-6934200D01*
X9654195Y-1318501D02*
X1532000Y-1320000D01*
X5726797Y-6553197D02*
G75*
G03*
X5853797Y-6426200I3J126997D01*
G01*
X1532000Y-1319997D02*
G75*
G03*
X1405000Y-1447000I3J-127003D01*
G01*
X7758800Y-6553200D02*
G75*
G03*
X7885797Y-6680200I127000J0D01*
G01*
X2055400Y-5308600D02*
G75*
G03*
X2055400Y-5308600I-125000J0D01*
G01*
X5853797Y-6426200D02*
X7758797Y-6426200D01*
X1408800Y-6807200D02*
G75*
G03*
X1535797Y-6934200I127000J0D01*
G01*
X3948797Y-6553200D02*
X5726797Y-6553200D01*
X7872000Y-5308600D02*
G75*
G03*
X7872000Y-5308600I-125000J0D01*
G01*
X7885797Y-6680200D02*
X9663797Y-6680200D01*
X9663797Y-6680197D02*
G75*
G03*
X9790797Y-6553200I3J126997D01*
G01*
X9790797Y-6553200D02*
X9781195Y-1445501D01*
X1405000Y-1447000D02*
X1408797Y-6807200D01*
X2060200Y-3276600D02*
G75*
G03*
X2060200Y-3276600I-125000J0D01*
G01*
D11*
D12*
X4154200Y-1755800D02*
X4174200Y-1775800D01*
X4174200Y-1755800D02*
X4154200Y-1775800D01*
X4154200Y-2135800D02*
X4174200Y-2155800D01*
X4174200Y-2135800D02*
X4154200Y-2155800D01*
X4394200Y-1755800D02*
X4414200Y-1775800D01*
X4414200Y-1755800D02*
X4394200Y-1775800D01*
X4404200Y-2135800D02*
X4424200Y-2155800D01*
X4424200Y-2135800D02*
X4404200Y-2155800D01*
X5190000Y-2200000D02*
X5210000Y-2220000D01*
X5210000Y-2200000D02*
X5190000Y-2220000D01*
X5380000Y-2290000D02*
X5400000Y-2310000D01*
X5400000Y-2290000D02*
X5380000Y-2310000D01*
X5450000Y-3050000D02*
X5470000Y-3070000D01*
X5470000Y-3050000D02*
X5450000Y-3070000D01*
X5590000Y-2760000D02*
X5610000Y-2780000D01*
X5610000Y-2760000D02*
X5590000Y-2780000D01*
X5590000Y-2870000D02*
X5610000Y-2890000D01*
X5610000Y-2870000D02*
X5590000Y-2890000D01*
X5639000Y-1970000D02*
X5659000Y-1990000D01*
X5659000Y-1970000D02*
X5639000Y-1990000D01*
X5676460Y-2517407D02*
X5696460Y-2537407D01*
X5696460Y-2517407D02*
X5676460Y-2537407D01*
X5760000Y-2690000D02*
X5780000Y-2710000D01*
X5780000Y-2690000D02*
X5760000Y-2710000D01*
X5780000Y-2341050D02*
X5800000Y-2361050D01*
X5800000Y-2341050D02*
X5780000Y-2361050D01*
X5840000Y-1800000D02*
X5860000Y-1820000D01*
X5860000Y-1800000D02*
X5840000Y-1820000D01*
X5841174Y-2327531D02*
X5861174Y-2347531D01*
X5861174Y-2327531D02*
X5841174Y-2347531D01*
X5885150Y-2112994D02*
X5905150Y-2132994D01*
X5905150Y-2112994D02*
X5885150Y-2132994D01*
X5890000Y-2170000D02*
X5910000Y-2190000D01*
X5910000Y-2170000D02*
X5890000Y-2190000D01*
X5894000Y-2360000D02*
X5914000Y-2380000D01*
X5914000Y-2360000D02*
X5894000Y-2380000D01*
X5900000Y-1840000D02*
X5920000Y-1860000D01*
X5920000Y-1840000D02*
X5900000Y-1860000D01*
X5900000Y-2860000D02*
X5920000Y-2880000D01*
X5920000Y-2860000D02*
X5900000Y-2880000D01*
X5910000Y-2650000D02*
X5930000Y-2670000D01*
X5930000Y-2650000D02*
X5910000Y-2670000D01*
X5920000Y-2550000D02*
X5940000Y-2570000D01*
X5940000Y-2550000D02*
X5920000Y-2570000D01*
X5960000Y-2480000D02*
X5980000Y-2500000D01*
X5980000Y-2480000D02*
X5960000Y-2500000D01*
X5968000Y-1542000D02*
X5988000Y-1562000D01*
X5988000Y-1542000D02*
X5968000Y-1562000D01*
X5970000Y-1710000D02*
X5990000Y-1730000D01*
X5990000Y-1710000D02*
X5970000Y-1730000D01*
X5980000Y-2393900D02*
X6000000Y-2413900D01*
X6000000Y-2393900D02*
X5980000Y-2413900D01*
X6010000Y-1950000D02*
X6030000Y-1970000D01*
X6030000Y-1950000D02*
X6010000Y-1970000D01*
X6010000Y-2120000D02*
X6030000Y-2140000D01*
X6030000Y-2120000D02*
X6010000Y-2140000D01*
X6010000Y-2290000D02*
X6030000Y-2310000D01*
X6030000Y-2290000D02*
X6010000Y-2310000D01*
X6049558Y-2488642D02*
X6069558Y-2508642D01*
X6069558Y-2488642D02*
X6049558Y-2508642D01*
X6130000Y-2490000D02*
X6150000Y-2510000D01*
X6150000Y-2490000D02*
X6130000Y-2510000D01*
X6170000Y-1950000D02*
X6190000Y-1970000D01*
X6190000Y-1950000D02*
X6170000Y-1970000D01*
X6170000Y-2118750D02*
X6190000Y-2138750D01*
X6190000Y-2118750D02*
X6170000Y-2138750D01*
X6170000Y-2290000D02*
X6190000Y-2310000D01*
X6190000Y-2290000D02*
X6170000Y-2310000D01*
X6171187Y-1751400D02*
X6191187Y-1771400D01*
X6191187Y-1751400D02*
X6171187Y-1771400D01*
X6190000Y-2490000D02*
X6210000Y-2510000D01*
X6210000Y-2490000D02*
X6190000Y-2510000D01*
X6198000Y-1542000D02*
X6218000Y-1562000D01*
X6218000Y-1542000D02*
X6198000Y-1562000D01*
X6202000Y-1638000D02*
X6222000Y-1658000D01*
X6222000Y-1638000D02*
X6202000Y-1658000D01*
X6250000Y-2490000D02*
X6270000Y-2510000D01*
X6270000Y-2490000D02*
X6250000Y-2510000D01*
X6260000Y-1751400D02*
X6280000Y-1771400D01*
X6280000Y-1751400D02*
X6260000Y-1771400D01*
X6300000Y-1843600D02*
X6320000Y-1863600D01*
X6320000Y-1843600D02*
X6300000Y-1863600D01*
X6310000Y-2490000D02*
X6330000Y-2510000D01*
X6330000Y-2490000D02*
X6310000Y-2510000D01*
X6318000Y-1542000D02*
X6338000Y-1562000D01*
X6338000Y-1542000D02*
X6318000Y-1562000D01*
X6320000Y-1950000D02*
X6340000Y-1970000D01*
X6340000Y-1950000D02*
X6320000Y-1970000D01*
X6320000Y-2120000D02*
X6340000Y-2140000D01*
X6340000Y-2120000D02*
X6320000Y-2140000D01*
X6320000Y-2290000D02*
X6340000Y-2310000D01*
X6340000Y-2290000D02*
X6320000Y-2310000D01*
X6370000Y-2430000D02*
X6390000Y-2450000D01*
X6390000Y-2430000D02*
X6370000Y-2450000D01*
X6409610Y-1839672D02*
X6429610Y-1859672D01*
X6429610Y-1839672D02*
X6409610Y-1859672D01*
X6444300Y-1960000D02*
X6464300Y-1980000D01*
X6464300Y-1960000D02*
X6444300Y-1980000D01*
X6452000Y-1638000D02*
X6472000Y-1658000D01*
X6472000Y-1638000D02*
X6452000Y-1658000D01*
X6490000Y-1870000D02*
X6510000Y-1890000D01*
X6510000Y-1870000D02*
X6490000Y-1890000D01*
X6500000Y-1790000D02*
X6520000Y-1810000D01*
X6520000Y-1790000D02*
X6500000Y-1810000D01*
X6501600Y-2440000D02*
X6521600Y-2460000D01*
X6521600Y-2440000D02*
X6501600Y-2460000D01*
X6540000Y-2360000D02*
X6560000Y-2380000D01*
X6560000Y-2360000D02*
X6540000Y-2380000D01*
X6546673Y-1908954D02*
X6566673Y-1928954D01*
X6566673Y-1908954D02*
X6546673Y-1928954D01*
X6550000Y-2260000D02*
X6570000Y-2280000D01*
X6570000Y-2260000D02*
X6550000Y-2280000D01*
X6592577Y-2117423D02*
X6612577Y-2137423D01*
X6612577Y-2117423D02*
X6592577Y-2137423D01*
X6680000Y-2750000D02*
X6700000Y-2770000D01*
X6700000Y-2750000D02*
X6680000Y-2770000D01*
X6750000Y-1830000D02*
X6770000Y-1850000D01*
X6770000Y-1830000D02*
X6750000Y-1850000D01*
X6815075Y-2110000D02*
X6835075Y-2130000D01*
X6835075Y-2110000D02*
X6815075Y-2130000D01*
X6820000Y-2460000D02*
X6840000Y-2480000D01*
X6840000Y-2460000D02*
X6820000Y-2480000D01*
X7010000Y-1660000D02*
X7030000Y-1680000D01*
X7030000Y-1660000D02*
X7010000Y-1680000D01*
X7073075Y-2038000D02*
X7093075Y-2058000D01*
X7093075Y-2038000D02*
X7073075Y-2058000D01*
X7085075Y-2200000D02*
X7105075Y-2220000D01*
X7105075Y-2200000D02*
X7085075Y-2220000D01*
X7585075Y-2210000D02*
X7605075Y-2230000D01*
X7605075Y-2210000D02*
X7585075Y-2230000D01*
X7605075Y-2040000D02*
X7625075Y-2060000D01*
X7625075Y-2040000D02*
X7605075Y-2060000D01*
X7650000Y-2330000D02*
X7670000Y-2350000D01*
X7670000Y-2330000D02*
X7650000Y-2350000D01*
X7845075Y-2110000D02*
X7865075Y-2130000D01*
X7865075Y-2110000D02*
X7845075Y-2130000D01*
X7880000Y-1940000D02*
X7900000Y-1960000D01*
X7900000Y-1940000D02*
X7880000Y-1960000D01*
X8120000Y-1940000D02*
X8140000Y-1960000D01*
X8140000Y-1940000D02*
X8120000Y-1960000D01*
X8130000Y-2400000D02*
X8150000Y-2420000D01*
X8150000Y-2400000D02*
X8130000Y-2420000D01*
X8360000Y-1940000D02*
X8380000Y-1960000D01*
X8380000Y-1940000D02*
X8360000Y-1960000D01*
X8370000Y-2270000D02*
X8390000Y-2290000D01*
X8390000Y-2270000D02*
X8370000Y-2290000D01*
X8460000Y-2680000D02*
X8480000Y-2700000D01*
X8480000Y-2680000D02*
X8460000Y-2700000D01*
X8520000Y-2070000D02*
X8540000Y-2090000D01*
X8540000Y-2070000D02*
X8520000Y-2090000D01*
X8570000Y-2500000D02*
X8590000Y-2520000D01*
X8590000Y-2500000D02*
X8570000Y-2520000D01*
X8580000Y-2380000D02*
X8600000Y-2400000D01*
X8600000Y-2380000D02*
X8580000Y-2400000D01*
X8599500Y-2130500D02*
X8619500Y-2150500D01*
X8619500Y-2130500D02*
X8599500Y-2150500D01*
X8770000Y-1830000D02*
X8790000Y-1850000D01*
X8790000Y-1830000D02*
X8770000Y-1850000D01*
X8820000Y-2100000D02*
X8840000Y-2120000D01*
X8840000Y-2100000D02*
X8820000Y-2120000D01*
X9050000Y-2130000D02*
X9070000Y-2150000D01*
X9070000Y-2130000D02*
X9050000Y-2150000D01*
X9110000Y-2680000D02*
X9130000Y-2700000D01*
X9130000Y-2680000D02*
X9110000Y-2700000D01*
X9220000Y-1830000D02*
X9240000Y-1850000D01*
X9240000Y-1830000D02*
X9220000Y-1850000D01*
X9290000Y-2130000D02*
X9310000Y-2150000D01*
X9310000Y-2130000D02*
X9290000Y-2150000D01*
D13*
X1668997Y-2214100D02*
G75*
G03*
X1668997Y-2214100I-15000J0D01*
G01*
X1827997Y-2214100D02*
G75*
G03*
X1827997Y-2214100I-15000J0D01*
G01*
X2148997Y-2214100D02*
G75*
G03*
X2148997Y-2214100I-15000J0D01*
G01*
X2308997Y-2214100D02*
G75*
G03*
X2308997Y-2214100I-15000J0D01*
G01*
X2468997Y-2214100D02*
G75*
G03*
X2468997Y-2214100I-15000J0D01*
G01*
X2628997Y-2214100D02*
G75*
G03*
X2628997Y-2214100I-15000J0D01*
G01*
X2788997Y-2214100D02*
G75*
G03*
X2788997Y-2214100I-15000J0D01*
G01*
X2948997Y-2214100D02*
G75*
G03*
X2948997Y-2214100I-15000J0D01*
G01*
X3108997Y-2214100D02*
G75*
G03*
X3108997Y-2214100I-15000J0D01*
G01*
D14*
X6928229Y-1404187D02*
X6928229Y-1464187D01*
X6898229Y-1434187D02*
X6958229Y-1434187D01*
D11*
X6958229Y-1464187D02*
X6958229Y-1404187D01*
X6898229Y-1464187D02*
X6898229Y-1404187D01*
X6958229Y-1404187D02*
G75*
G03*
X6898229Y-1404187I-30000J0D01*
G01*
X6898229Y-1464187D02*
G75*
G03*
X6958229Y-1464187I30000J0D01*
G01*
D14*
X6928229Y-1822187D02*
X6928229Y-1882187D01*
X6898229Y-1852187D02*
X6958229Y-1852187D01*
D11*
X6958229Y-1907187D02*
X6958229Y-1797187D01*
X6898229Y-1907187D02*
X6898229Y-1797187D01*
X6958229Y-1797187D02*
G75*
G03*
X6898229Y-1797187I-30000J0D01*
G01*
X6898229Y-1907187D02*
G75*
G03*
X6958229Y-1907187I30000J0D01*
G01*
D14*
X7792229Y-1404187D02*
X7792229Y-1464187D01*
X7762229Y-1434187D02*
X7822229Y-1434187D01*
D11*
X7822229Y-1464187D02*
X7822229Y-1404187D01*
X7762229Y-1464187D02*
X7762229Y-1404187D01*
X7822229Y-1404187D02*
G75*
G03*
X7762229Y-1404187I-30000J0D01*
G01*
X7762229Y-1464187D02*
G75*
G03*
X7822229Y-1464187I30000J0D01*
G01*
D14*
X7792229Y-1822187D02*
X7792229Y-1882187D01*
X7762229Y-1852187D02*
X7822229Y-1852187D01*
D11*
X7822229Y-1907187D02*
X7822229Y-1797187D01*
X7762229Y-1907187D02*
X7762229Y-1797187D01*
X7822229Y-1797187D02*
G75*
G03*
X7762229Y-1797187I-30000J0D01*
G01*
X7762229Y-1907187D02*
G75*
G03*
X7822229Y-1907187I30000J0D01*
G01*
D15*
X9561517Y-2016517D02*
X9561517Y-1963483D01*
X9508483Y-1963483D01*
X9508483Y-2016517D01*
X9561517Y-2016517D01*
X9561517Y-2216517D02*
X9561517Y-2163483D01*
X9508483Y-2163483D01*
X9508483Y-2216517D01*
X9561517Y-2216517D01*
D16*
X2209297Y-4328200D02*
X2249297Y-4288200D01*
X2209297Y-4248200D01*
X2169297Y-4288200D01*
X2209297Y-4328200D01*
D11*
X2189297Y-4328200D02*
X2229297Y-4328200D01*
X2189297Y-4248200D02*
X2229297Y-4248200D01*
X2229297Y-4328200D02*
G75*
G03*
X2229297Y-4248200I0J40000D01*
G01*
X2189297Y-4248200D02*
G75*
G03*
X2189297Y-4328200I0J-40000D01*
G01*
D16*
X2209297Y-6348200D02*
X2249297Y-6308200D01*
X2209297Y-6268200D01*
X2169297Y-6308200D01*
X2209297Y-6348200D01*
D11*
X2189297Y-6348200D02*
X2229297Y-6348200D01*
X2189297Y-6268200D02*
X2229297Y-6268200D01*
X2229297Y-6348200D02*
G75*
G03*
X2229297Y-6268200I0J40000D01*
G01*
X2189297Y-6268200D02*
G75*
G03*
X2189297Y-6348200I0J-40000D01*
G01*
D16*
X2338297Y-3684200D02*
X2378297Y-3644200D01*
X2338297Y-3604200D01*
X2298297Y-3644200D01*
X2338297Y-3684200D01*
D11*
X2318297Y-3684200D02*
X2358297Y-3684200D01*
X2318297Y-3604200D02*
X2358297Y-3604200D01*
X2358297Y-3684200D02*
G75*
G03*
X2358297Y-3604200I0J40000D01*
G01*
X2318297Y-3604200D02*
G75*
G03*
X2318297Y-3684200I0J-40000D01*
G01*
D16*
X2338297Y-5704200D02*
X2378297Y-5664200D01*
X2338297Y-5624200D01*
X2298297Y-5664200D01*
X2338297Y-5704200D01*
D11*
X2318297Y-5704200D02*
X2358297Y-5704200D01*
X2318297Y-5624200D02*
X2358297Y-5624200D01*
X2358297Y-5704200D02*
G75*
G03*
X2358297Y-5624200I0J40000D01*
G01*
X2318297Y-5624200D02*
G75*
G03*
X2318297Y-5704200I0J-40000D01*
G01*
D16*
X2465297Y-3430200D02*
X2505297Y-3390200D01*
X2465297Y-3350200D01*
X2425297Y-3390200D01*
X2465297Y-3430200D01*
D11*
X2445297Y-3430200D02*
X2485297Y-3430200D01*
X2445297Y-3350200D02*
X2485297Y-3350200D01*
X2485297Y-3430200D02*
G75*
G03*
X2485297Y-3350200I0J40000D01*
G01*
X2445297Y-3350200D02*
G75*
G03*
X2445297Y-3430200I0J-40000D01*
G01*
D16*
X2465297Y-5450200D02*
X2505297Y-5410200D01*
X2465297Y-5370200D01*
X2425297Y-5410200D01*
X2465297Y-5450200D01*
D11*
X2445297Y-5450200D02*
X2485297Y-5450200D01*
X2445297Y-5370200D02*
X2485297Y-5370200D01*
X2485297Y-5450200D02*
G75*
G03*
X2485297Y-5370200I0J40000D01*
G01*
X2445297Y-5370200D02*
G75*
G03*
X2445297Y-5450200I0J-40000D01*
G01*
D16*
X2719297Y-4528200D02*
X2759297Y-4488200D01*
X2719297Y-4448200D01*
X2679297Y-4488200D01*
X2719297Y-4528200D01*
D11*
X2699297Y-4528200D02*
X2739297Y-4528200D01*
X2699297Y-4448200D02*
X2739297Y-4448200D01*
X2739297Y-4528200D02*
G75*
G03*
X2739297Y-4448200I0J40000D01*
G01*
X2699297Y-4448200D02*
G75*
G03*
X2699297Y-4528200I0J-40000D01*
G01*
D16*
X2719297Y-6548200D02*
X2759297Y-6508200D01*
X2719297Y-6468200D01*
X2679297Y-6508200D01*
X2719297Y-6548200D01*
D11*
X2699297Y-6548200D02*
X2739297Y-6548200D01*
X2699297Y-6468200D02*
X2739297Y-6468200D01*
X2739297Y-6548200D02*
G75*
G03*
X2739297Y-6468200I0J40000D01*
G01*
X2699297Y-6468200D02*
G75*
G03*
X2699297Y-6548200I0J-40000D01*
G01*
D16*
X2973297Y-3430200D02*
X3013297Y-3390200D01*
X2973297Y-3350200D01*
X2933297Y-3390200D01*
X2973297Y-3430200D01*
D11*
X2953297Y-3430200D02*
X2993297Y-3430200D01*
X2953297Y-3350200D02*
X2993297Y-3350200D01*
X2993297Y-3430200D02*
G75*
G03*
X2993297Y-3350200I0J40000D01*
G01*
X2953297Y-3350200D02*
G75*
G03*
X2953297Y-3430200I0J-40000D01*
G01*
D16*
X2973297Y-5450200D02*
X3013297Y-5410200D01*
X2973297Y-5370200D01*
X2933297Y-5410200D01*
X2973297Y-5450200D01*
D11*
X2953297Y-5450200D02*
X2993297Y-5450200D01*
X2953297Y-5370200D02*
X2993297Y-5370200D01*
X2993297Y-5450200D02*
G75*
G03*
X2993297Y-5370200I0J40000D01*
G01*
X2953297Y-5370200D02*
G75*
G03*
X2953297Y-5450200I0J-40000D01*
G01*
D16*
X3100297Y-3684200D02*
X3140297Y-3644200D01*
X3100297Y-3604200D01*
X3060297Y-3644200D01*
X3100297Y-3684200D01*
D11*
X3080297Y-3684200D02*
X3120297Y-3684200D01*
X3080297Y-3604200D02*
X3120297Y-3604200D01*
X3120297Y-3684200D02*
G75*
G03*
X3120297Y-3604200I0J40000D01*
G01*
X3080297Y-3604200D02*
G75*
G03*
X3080297Y-3684200I0J-40000D01*
G01*
D16*
X3100297Y-5704200D02*
X3140297Y-5664200D01*
X3100297Y-5624200D01*
X3060297Y-5664200D01*
X3100297Y-5704200D01*
D11*
X3080297Y-5704200D02*
X3120297Y-5704200D01*
X3080297Y-5624200D02*
X3120297Y-5624200D01*
X3120297Y-5704200D02*
G75*
G03*
X3120297Y-5624200I0J40000D01*
G01*
X3080297Y-5624200D02*
G75*
G03*
X3080297Y-5704200I0J-40000D01*
G01*
D16*
X3229297Y-4328200D02*
X3269297Y-4288200D01*
X3229297Y-4248200D01*
X3189297Y-4288200D01*
X3229297Y-4328200D01*
D11*
X3209297Y-4328200D02*
X3249297Y-4328200D01*
X3209297Y-4248200D02*
X3249297Y-4248200D01*
X3249297Y-4328200D02*
G75*
G03*
X3249297Y-4248200I0J40000D01*
G01*
X3209297Y-4248200D02*
G75*
G03*
X3209297Y-4328200I0J-40000D01*
G01*
D16*
X3229297Y-6348200D02*
X3269297Y-6308200D01*
X3229297Y-6268200D01*
X3189297Y-6308200D01*
X3229297Y-6348200D01*
D11*
X3209297Y-6348200D02*
X3249297Y-6348200D01*
X3209297Y-6268200D02*
X3249297Y-6268200D01*
X3249297Y-6348200D02*
G75*
G03*
X3249297Y-6268200I0J40000D01*
G01*
X3209297Y-6268200D02*
G75*
G03*
X3209297Y-6348200I0J-40000D01*
G01*
D16*
X4229297Y-3947200D02*
X4269297Y-3907200D01*
X4229297Y-3867200D01*
X4189297Y-3907200D01*
X4229297Y-3947200D01*
D11*
X4209297Y-3947200D02*
X4249297Y-3947200D01*
X4209297Y-3867200D02*
X4249297Y-3867200D01*
X4249297Y-3947200D02*
G75*
G03*
X4249297Y-3867200I0J40000D01*
G01*
X4209297Y-3867200D02*
G75*
G03*
X4209297Y-3947200I0J-40000D01*
G01*
D16*
X4229297Y-5967200D02*
X4269297Y-5927200D01*
X4229297Y-5887200D01*
X4189297Y-5927200D01*
X4229297Y-5967200D01*
D11*
X4209297Y-5967200D02*
X4249297Y-5967200D01*
X4209297Y-5887200D02*
X4249297Y-5887200D01*
X4249297Y-5967200D02*
G75*
G03*
X4249297Y-5887200I0J40000D01*
G01*
X4209297Y-5887200D02*
G75*
G03*
X4209297Y-5967200I0J-40000D01*
G01*
D16*
X4358297Y-3303200D02*
X4398297Y-3263200D01*
X4358297Y-3223200D01*
X4318297Y-3263200D01*
X4358297Y-3303200D01*
D11*
X4338297Y-3303200D02*
X4378297Y-3303200D01*
X4338297Y-3223200D02*
X4378297Y-3223200D01*
X4378297Y-3303200D02*
G75*
G03*
X4378297Y-3223200I0J40000D01*
G01*
X4338297Y-3223200D02*
G75*
G03*
X4338297Y-3303200I0J-40000D01*
G01*
D16*
X4358297Y-5323200D02*
X4398297Y-5283200D01*
X4358297Y-5243200D01*
X4318297Y-5283200D01*
X4358297Y-5323200D01*
D11*
X4338297Y-5323200D02*
X4378297Y-5323200D01*
X4338297Y-5243200D02*
X4378297Y-5243200D01*
X4378297Y-5323200D02*
G75*
G03*
X4378297Y-5243200I0J40000D01*
G01*
X4338297Y-5243200D02*
G75*
G03*
X4338297Y-5323200I0J-40000D01*
G01*
D16*
X4485297Y-3049200D02*
X4525297Y-3009200D01*
X4485297Y-2969200D01*
X4445297Y-3009200D01*
X4485297Y-3049200D01*
D11*
X4465297Y-3049200D02*
X4505297Y-3049200D01*
X4465297Y-2969200D02*
X4505297Y-2969200D01*
X4505297Y-3049200D02*
G75*
G03*
X4505297Y-2969200I0J40000D01*
G01*
X4465297Y-2969200D02*
G75*
G03*
X4465297Y-3049200I0J-40000D01*
G01*
D16*
X4485297Y-5069200D02*
X4525297Y-5029200D01*
X4485297Y-4989200D01*
X4445297Y-5029200D01*
X4485297Y-5069200D01*
D11*
X4465297Y-5069200D02*
X4505297Y-5069200D01*
X4465297Y-4989200D02*
X4505297Y-4989200D01*
X4505297Y-5069200D02*
G75*
G03*
X4505297Y-4989200I0J40000D01*
G01*
X4465297Y-4989200D02*
G75*
G03*
X4465297Y-5069200I0J-40000D01*
G01*
D16*
X4739297Y-4147200D02*
X4779297Y-4107200D01*
X4739297Y-4067200D01*
X4699297Y-4107200D01*
X4739297Y-4147200D01*
D11*
X4719297Y-4147200D02*
X4759297Y-4147200D01*
X4719297Y-4067200D02*
X4759297Y-4067200D01*
X4759297Y-4147200D02*
G75*
G03*
X4759297Y-4067200I0J40000D01*
G01*
X4719297Y-4067200D02*
G75*
G03*
X4719297Y-4147200I0J-40000D01*
G01*
D16*
X4739297Y-6167200D02*
X4779297Y-6127200D01*
X4739297Y-6087200D01*
X4699297Y-6127200D01*
X4739297Y-6167200D01*
D11*
X4719297Y-6167200D02*
X4759297Y-6167200D01*
X4719297Y-6087200D02*
X4759297Y-6087200D01*
X4759297Y-6167200D02*
G75*
G03*
X4759297Y-6087200I0J40000D01*
G01*
X4719297Y-6087200D02*
G75*
G03*
X4719297Y-6167200I0J-40000D01*
G01*
D16*
X4993297Y-3049200D02*
X5033297Y-3009200D01*
X4993297Y-2969200D01*
X4953297Y-3009200D01*
X4993297Y-3049200D01*
D11*
X4973297Y-3049200D02*
X5013297Y-3049200D01*
X4973297Y-2969200D02*
X5013297Y-2969200D01*
X5013297Y-3049200D02*
G75*
G03*
X5013297Y-2969200I0J40000D01*
G01*
X4973297Y-2969200D02*
G75*
G03*
X4973297Y-3049200I0J-40000D01*
G01*
D16*
X4993297Y-5069200D02*
X5033297Y-5029200D01*
X4993297Y-4989200D01*
X4953297Y-5029200D01*
X4993297Y-5069200D01*
D11*
X4973297Y-5069200D02*
X5013297Y-5069200D01*
X4973297Y-4989200D02*
X5013297Y-4989200D01*
X5013297Y-5069200D02*
G75*
G03*
X5013297Y-4989200I0J40000D01*
G01*
X4973297Y-4989200D02*
G75*
G03*
X4973297Y-5069200I0J-40000D01*
G01*
D16*
X5120297Y-3303200D02*
X5160297Y-3263200D01*
X5120297Y-3223200D01*
X5080297Y-3263200D01*
X5120297Y-3303200D01*
D11*
X5100297Y-3303200D02*
X5140297Y-3303200D01*
X5100297Y-3223200D02*
X5140297Y-3223200D01*
X5140297Y-3303200D02*
G75*
G03*
X5140297Y-3223200I0J40000D01*
G01*
X5100297Y-3223200D02*
G75*
G03*
X5100297Y-3303200I0J-40000D01*
G01*
D16*
X5120297Y-5323200D02*
X5160297Y-5283200D01*
X5120297Y-5243200D01*
X5080297Y-5283200D01*
X5120297Y-5323200D01*
D11*
X5100297Y-5323200D02*
X5140297Y-5323200D01*
X5100297Y-5243200D02*
X5140297Y-5243200D01*
X5140297Y-5323200D02*
G75*
G03*
X5140297Y-5243200I0J40000D01*
G01*
X5100297Y-5243200D02*
G75*
G03*
X5100297Y-5323200I0J-40000D01*
G01*
D16*
X5249297Y-3947200D02*
X5289297Y-3907200D01*
X5249297Y-3867200D01*
X5209297Y-3907200D01*
X5249297Y-3947200D01*
D11*
X5229297Y-3947200D02*
X5269297Y-3947200D01*
X5229297Y-3867200D02*
X5269297Y-3867200D01*
X5269297Y-3947200D02*
G75*
G03*
X5269297Y-3867200I0J40000D01*
G01*
X5229297Y-3867200D02*
G75*
G03*
X5229297Y-3947200I0J-40000D01*
G01*
D16*
X5249297Y-5967200D02*
X5289297Y-5927200D01*
X5249297Y-5887200D01*
X5209297Y-5927200D01*
X5249297Y-5967200D01*
D11*
X5229297Y-5967200D02*
X5269297Y-5967200D01*
X5229297Y-5887200D02*
X5269297Y-5887200D01*
X5269297Y-5967200D02*
G75*
G03*
X5269297Y-5887200I0J40000D01*
G01*
X5229297Y-5887200D02*
G75*
G03*
X5229297Y-5967200I0J-40000D01*
G01*
D16*
X6232797Y-3820200D02*
X6272797Y-3780200D01*
X6232797Y-3740200D01*
X6192797Y-3780200D01*
X6232797Y-3820200D01*
D11*
X6212797Y-3820200D02*
X6252797Y-3820200D01*
X6212797Y-3740200D02*
X6252797Y-3740200D01*
X6252797Y-3820200D02*
G75*
G03*
X6252797Y-3740200I0J40000D01*
G01*
X6212797Y-3740200D02*
G75*
G03*
X6212797Y-3820200I0J-40000D01*
G01*
D16*
X6232797Y-5840200D02*
X6272797Y-5800200D01*
X6232797Y-5760200D01*
X6192797Y-5800200D01*
X6232797Y-5840200D01*
D11*
X6212797Y-5840200D02*
X6252797Y-5840200D01*
X6212797Y-5760200D02*
X6252797Y-5760200D01*
X6252797Y-5840200D02*
G75*
G03*
X6252797Y-5760200I0J40000D01*
G01*
X6212797Y-5760200D02*
G75*
G03*
X6212797Y-5840200I0J-40000D01*
G01*
D16*
X6361797Y-3176200D02*
X6401797Y-3136200D01*
X6361797Y-3096200D01*
X6321797Y-3136200D01*
X6361797Y-3176200D01*
D11*
X6341797Y-3176200D02*
X6381797Y-3176200D01*
X6341797Y-3096200D02*
X6381797Y-3096200D01*
X6381797Y-3176200D02*
G75*
G03*
X6381797Y-3096200I0J40000D01*
G01*
X6341797Y-3096200D02*
G75*
G03*
X6341797Y-3176200I0J-40000D01*
G01*
D16*
X6361797Y-5196200D02*
X6401797Y-5156200D01*
X6361797Y-5116200D01*
X6321797Y-5156200D01*
X6361797Y-5196200D01*
D11*
X6341797Y-5196200D02*
X6381797Y-5196200D01*
X6341797Y-5116200D02*
X6381797Y-5116200D01*
X6381797Y-5196200D02*
G75*
G03*
X6381797Y-5116200I0J40000D01*
G01*
X6341797Y-5116200D02*
G75*
G03*
X6341797Y-5196200I0J-40000D01*
G01*
D16*
X6488797Y-2922200D02*
X6528797Y-2882200D01*
X6488797Y-2842200D01*
X6448797Y-2882200D01*
X6488797Y-2922200D01*
D11*
X6468797Y-2922200D02*
X6508797Y-2922200D01*
X6468797Y-2842200D02*
X6508797Y-2842200D01*
X6508797Y-2922200D02*
G75*
G03*
X6508797Y-2842200I0J40000D01*
G01*
X6468797Y-2842200D02*
G75*
G03*
X6468797Y-2922200I0J-40000D01*
G01*
D16*
X6488797Y-4942200D02*
X6528797Y-4902200D01*
X6488797Y-4862200D01*
X6448797Y-4902200D01*
X6488797Y-4942200D01*
D11*
X6468797Y-4942200D02*
X6508797Y-4942200D01*
X6468797Y-4862200D02*
X6508797Y-4862200D01*
X6508797Y-4942200D02*
G75*
G03*
X6508797Y-4862200I0J40000D01*
G01*
X6468797Y-4862200D02*
G75*
G03*
X6468797Y-4942200I0J-40000D01*
G01*
D16*
X6742797Y-4020200D02*
X6782797Y-3980200D01*
X6742797Y-3940200D01*
X6702797Y-3980200D01*
X6742797Y-4020200D01*
D11*
X6722797Y-4020200D02*
X6762797Y-4020200D01*
X6722797Y-3940200D02*
X6762797Y-3940200D01*
X6762797Y-4020200D02*
G75*
G03*
X6762797Y-3940200I0J40000D01*
G01*
X6722797Y-3940200D02*
G75*
G03*
X6722797Y-4020200I0J-40000D01*
G01*
D16*
X6742797Y-6040200D02*
X6782797Y-6000200D01*
X6742797Y-5960200D01*
X6702797Y-6000200D01*
X6742797Y-6040200D01*
D11*
X6722797Y-6040200D02*
X6762797Y-6040200D01*
X6722797Y-5960200D02*
X6762797Y-5960200D01*
X6762797Y-6040200D02*
G75*
G03*
X6762797Y-5960200I0J40000D01*
G01*
X6722797Y-5960200D02*
G75*
G03*
X6722797Y-6040200I0J-40000D01*
G01*
D16*
X6996797Y-2922200D02*
X7036797Y-2882200D01*
X6996797Y-2842200D01*
X6956797Y-2882200D01*
X6996797Y-2922200D01*
D11*
X6976797Y-2922200D02*
X7016797Y-2922200D01*
X6976797Y-2842200D02*
X7016797Y-2842200D01*
X7016797Y-2922200D02*
G75*
G03*
X7016797Y-2842200I0J40000D01*
G01*
X6976797Y-2842200D02*
G75*
G03*
X6976797Y-2922200I0J-40000D01*
G01*
D16*
X6996797Y-4942200D02*
X7036797Y-4902200D01*
X6996797Y-4862200D01*
X6956797Y-4902200D01*
X6996797Y-4942200D01*
D11*
X6976797Y-4942200D02*
X7016797Y-4942200D01*
X6976797Y-4862200D02*
X7016797Y-4862200D01*
X7016797Y-4942200D02*
G75*
G03*
X7016797Y-4862200I0J40000D01*
G01*
X6976797Y-4862200D02*
G75*
G03*
X6976797Y-4942200I0J-40000D01*
G01*
D16*
X7123797Y-3176200D02*
X7163797Y-3136200D01*
X7123797Y-3096200D01*
X7083797Y-3136200D01*
X7123797Y-3176200D01*
D11*
X7103797Y-3176200D02*
X7143797Y-3176200D01*
X7103797Y-3096200D02*
X7143797Y-3096200D01*
X7143797Y-3176200D02*
G75*
G03*
X7143797Y-3096200I0J40000D01*
G01*
X7103797Y-3096200D02*
G75*
G03*
X7103797Y-3176200I0J-40000D01*
G01*
D16*
X7123797Y-5196200D02*
X7163797Y-5156200D01*
X7123797Y-5116200D01*
X7083797Y-5156200D01*
X7123797Y-5196200D01*
D11*
X7103797Y-5196200D02*
X7143797Y-5196200D01*
X7103797Y-5116200D02*
X7143797Y-5116200D01*
X7143797Y-5196200D02*
G75*
G03*
X7143797Y-5116200I0J40000D01*
G01*
X7103797Y-5116200D02*
G75*
G03*
X7103797Y-5196200I0J-40000D01*
G01*
D16*
X7252797Y-3820200D02*
X7292797Y-3780200D01*
X7252797Y-3740200D01*
X7212797Y-3780200D01*
X7252797Y-3820200D01*
D11*
X7232797Y-3820200D02*
X7272797Y-3820200D01*
X7232797Y-3740200D02*
X7272797Y-3740200D01*
X7272797Y-3820200D02*
G75*
G03*
X7272797Y-3740200I0J40000D01*
G01*
X7232797Y-3740200D02*
G75*
G03*
X7232797Y-3820200I0J-40000D01*
G01*
D16*
X7252797Y-5840200D02*
X7292797Y-5800200D01*
X7252797Y-5760200D01*
X7212797Y-5800200D01*
X7252797Y-5840200D01*
D11*
X7232797Y-5840200D02*
X7272797Y-5840200D01*
X7232797Y-5760200D02*
X7272797Y-5760200D01*
X7272797Y-5840200D02*
G75*
G03*
X7272797Y-5760200I0J40000D01*
G01*
X7232797Y-5760200D02*
G75*
G03*
X7232797Y-5840200I0J-40000D01*
G01*
D16*
X8264797Y-4074200D02*
X8304797Y-4034200D01*
X8264797Y-3994200D01*
X8224797Y-4034200D01*
X8264797Y-4074200D01*
D11*
X8244797Y-4074200D02*
X8284797Y-4074200D01*
X8244797Y-3994200D02*
X8284797Y-3994200D01*
X8284797Y-4074200D02*
G75*
G03*
X8284797Y-3994200I0J40000D01*
G01*
X8244797Y-3994200D02*
G75*
G03*
X8244797Y-4074200I0J-40000D01*
G01*
D16*
X8264797Y-6094200D02*
X8304797Y-6054200D01*
X8264797Y-6014200D01*
X8224797Y-6054200D01*
X8264797Y-6094200D01*
D11*
X8244797Y-6094200D02*
X8284797Y-6094200D01*
X8244797Y-6014200D02*
X8284797Y-6014200D01*
X8284797Y-6094200D02*
G75*
G03*
X8284797Y-6014200I0J40000D01*
G01*
X8244797Y-6014200D02*
G75*
G03*
X8244797Y-6094200I0J-40000D01*
G01*
D16*
X8393797Y-3430200D02*
X8433797Y-3390200D01*
X8393797Y-3350200D01*
X8353797Y-3390200D01*
X8393797Y-3430200D01*
D11*
X8373797Y-3430200D02*
X8413797Y-3430200D01*
X8373797Y-3350200D02*
X8413797Y-3350200D01*
X8413797Y-3430200D02*
G75*
G03*
X8413797Y-3350200I0J40000D01*
G01*
X8373797Y-3350200D02*
G75*
G03*
X8373797Y-3430200I0J-40000D01*
G01*
D16*
X8393797Y-5450200D02*
X8433797Y-5410200D01*
X8393797Y-5370200D01*
X8353797Y-5410200D01*
X8393797Y-5450200D01*
D11*
X8373797Y-5450200D02*
X8413797Y-5450200D01*
X8373797Y-5370200D02*
X8413797Y-5370200D01*
X8413797Y-5450200D02*
G75*
G03*
X8413797Y-5370200I0J40000D01*
G01*
X8373797Y-5370200D02*
G75*
G03*
X8373797Y-5450200I0J-40000D01*
G01*
D16*
X8520797Y-3176200D02*
X8560797Y-3136200D01*
X8520797Y-3096200D01*
X8480797Y-3136200D01*
X8520797Y-3176200D01*
D11*
X8500797Y-3176200D02*
X8540797Y-3176200D01*
X8500797Y-3096200D02*
X8540797Y-3096200D01*
X8540797Y-3176200D02*
G75*
G03*
X8540797Y-3096200I0J40000D01*
G01*
X8500797Y-3096200D02*
G75*
G03*
X8500797Y-3176200I0J-40000D01*
G01*
D16*
X8520797Y-5196200D02*
X8560797Y-5156200D01*
X8520797Y-5116200D01*
X8480797Y-5156200D01*
X8520797Y-5196200D01*
D11*
X8500797Y-5196200D02*
X8540797Y-5196200D01*
X8500797Y-5116200D02*
X8540797Y-5116200D01*
X8540797Y-5196200D02*
G75*
G03*
X8540797Y-5116200I0J40000D01*
G01*
X8500797Y-5116200D02*
G75*
G03*
X8500797Y-5196200I0J-40000D01*
G01*
D16*
X8774797Y-4274200D02*
X8814797Y-4234200D01*
X8774797Y-4194200D01*
X8734797Y-4234200D01*
X8774797Y-4274200D01*
D11*
X8754797Y-4274200D02*
X8794797Y-4274200D01*
X8754797Y-4194200D02*
X8794797Y-4194200D01*
X8794797Y-4274200D02*
G75*
G03*
X8794797Y-4194200I0J40000D01*
G01*
X8754797Y-4194200D02*
G75*
G03*
X8754797Y-4274200I0J-40000D01*
G01*
D16*
X8774797Y-6294200D02*
X8814797Y-6254200D01*
X8774797Y-6214200D01*
X8734797Y-6254200D01*
X8774797Y-6294200D01*
D11*
X8754797Y-6294200D02*
X8794797Y-6294200D01*
X8754797Y-6214200D02*
X8794797Y-6214200D01*
X8794797Y-6294200D02*
G75*
G03*
X8794797Y-6214200I0J40000D01*
G01*
X8754797Y-6214200D02*
G75*
G03*
X8754797Y-6294200I0J-40000D01*
G01*
D16*
X9028797Y-3176200D02*
X9068797Y-3136200D01*
X9028797Y-3096200D01*
X8988797Y-3136200D01*
X9028797Y-3176200D01*
D11*
X9008797Y-3176200D02*
X9048797Y-3176200D01*
X9008797Y-3096200D02*
X9048797Y-3096200D01*
X9048797Y-3176200D02*
G75*
G03*
X9048797Y-3096200I0J40000D01*
G01*
X9008797Y-3096200D02*
G75*
G03*
X9008797Y-3176200I0J-40000D01*
G01*
D16*
X9028797Y-5196200D02*
X9068797Y-5156200D01*
X9028797Y-5116200D01*
X8988797Y-5156200D01*
X9028797Y-5196200D01*
D11*
X9008797Y-5196200D02*
X9048797Y-5196200D01*
X9008797Y-5116200D02*
X9048797Y-5116200D01*
X9048797Y-5196200D02*
G75*
G03*
X9048797Y-5116200I0J40000D01*
G01*
X9008797Y-5116200D02*
G75*
G03*
X9008797Y-5196200I0J-40000D01*
G01*
D16*
X9155797Y-3430200D02*
X9195797Y-3390200D01*
X9155797Y-3350200D01*
X9115797Y-3390200D01*
X9155797Y-3430200D01*
D11*
X9135797Y-3430200D02*
X9175797Y-3430200D01*
X9135797Y-3350200D02*
X9175797Y-3350200D01*
X9175797Y-3430200D02*
G75*
G03*
X9175797Y-3350200I0J40000D01*
G01*
X9135797Y-3350200D02*
G75*
G03*
X9135797Y-3430200I0J-40000D01*
G01*
D16*
X9155797Y-5450200D02*
X9195797Y-5410200D01*
X9155797Y-5370200D01*
X9115797Y-5410200D01*
X9155797Y-5450200D01*
D11*
X9135797Y-5450200D02*
X9175797Y-5450200D01*
X9135797Y-5370200D02*
X9175797Y-5370200D01*
X9175797Y-5450200D02*
G75*
G03*
X9175797Y-5370200I0J40000D01*
G01*
X9135797Y-5370200D02*
G75*
G03*
X9135797Y-5450200I0J-40000D01*
G01*
D16*
X9284797Y-4074200D02*
X9324797Y-4034200D01*
X9284797Y-3994200D01*
X9244797Y-4034200D01*
X9284797Y-4074200D01*
D11*
X9264797Y-4074200D02*
X9304797Y-4074200D01*
X9264797Y-3994200D02*
X9304797Y-3994200D01*
X9304797Y-4074200D02*
G75*
G03*
X9304797Y-3994200I0J40000D01*
G01*
X9264797Y-3994200D02*
G75*
G03*
X9264797Y-4074200I0J-40000D01*
G01*
D16*
X9284797Y-6094200D02*
X9324797Y-6054200D01*
X9284797Y-6014200D01*
X9244797Y-6054200D01*
X9284797Y-6094200D01*
D11*
X9264797Y-6094200D02*
X9304797Y-6094200D01*
X9264797Y-6014200D02*
X9304797Y-6014200D01*
X9304797Y-6094200D02*
G75*
G03*
X9304797Y-6014200I0J40000D01*
G01*
X9264797Y-6014200D02*
G75*
G03*
X9264797Y-6094200I0J-40000D01*
G01*
X1657619Y-7249676D02*
X1657619Y-7049676D01*
X1705238Y-7049676D01*
X1733809Y-7059200D01*
X1752857Y-7078248D01*
X1762381Y-7097295D01*
X1771905Y-7135390D01*
X1771905Y-7163962D01*
X1762381Y-7202057D01*
X1752857Y-7221105D01*
X1733809Y-7240152D01*
X1705238Y-7249676D01*
X1657619Y-7249676D01*
X1857619Y-7249676D02*
X1857619Y-7116343D01*
X1857619Y-7154438D02*
X1867143Y-7135390D01*
X1876667Y-7125867D01*
X1895714Y-7116343D01*
X1914762Y-7116343D01*
X1981428Y-7249676D02*
X1981428Y-7116343D01*
X1981428Y-7049676D02*
X1971905Y-7059200D01*
X1981428Y-7068724D01*
X1990952Y-7059200D01*
X1981428Y-7049676D01*
X1981428Y-7068724D01*
X2105238Y-7249676D02*
X2086190Y-7240152D01*
X2076667Y-7221105D01*
X2076667Y-7049676D01*
X2210000Y-7249676D02*
X2190952Y-7240152D01*
X2181429Y-7221105D01*
X2181429Y-7049676D01*
X2438571Y-7249676D02*
X2438571Y-7049676D01*
X2505238Y-7192533D01*
X2571905Y-7049676D01*
X2571905Y-7249676D01*
X2752857Y-7249676D02*
X2752857Y-7144914D01*
X2743333Y-7125867D01*
X2724286Y-7116343D01*
X2686190Y-7116343D01*
X2667143Y-7125867D01*
X2752857Y-7240152D02*
X2733810Y-7249676D01*
X2686190Y-7249676D01*
X2667143Y-7240152D01*
X2657619Y-7221105D01*
X2657619Y-7202057D01*
X2667143Y-7183009D01*
X2686190Y-7173486D01*
X2733810Y-7173486D01*
X2752857Y-7163962D01*
X2848095Y-7116343D02*
X2848095Y-7316343D01*
X2848095Y-7125867D02*
X2867143Y-7116343D01*
X2905238Y-7116343D01*
X2924286Y-7125867D01*
X2933809Y-7135390D01*
X2943333Y-7154438D01*
X2943333Y-7211581D01*
X2933809Y-7230628D01*
X2924286Y-7240152D01*
X2905238Y-7249676D01*
X2867143Y-7249676D01*
X2848095Y-7240152D01*
X3029048Y-7230628D02*
X3038571Y-7240152D01*
X3029048Y-7249676D01*
X3019524Y-7240152D01*
X3029048Y-7230628D01*
X3029048Y-7249676D01*
X3029048Y-7125867D02*
X3038571Y-7135390D01*
X3029048Y-7144914D01*
X3019524Y-7135390D01*
X3029048Y-7125867D01*
X3029048Y-7144914D01*
D12*
X1380000Y-7569200D02*
X1400000Y-7589200D01*
X1400000Y-7569200D02*
X1380000Y-7589200D01*
D11*
X1695714Y-7469676D02*
X1714762Y-7469676D01*
X1733809Y-7479200D01*
X1743333Y-7488724D01*
X1752857Y-7507771D01*
X1762381Y-7545867D01*
X1762381Y-7593486D01*
X1752857Y-7631581D01*
X1743333Y-7650628D01*
X1733809Y-7660152D01*
X1714762Y-7669676D01*
X1695714Y-7669676D01*
X1676667Y-7660152D01*
X1667143Y-7650628D01*
X1657619Y-7631581D01*
X1648095Y-7593486D01*
X1648095Y-7545867D01*
X1657619Y-7507771D01*
X1667143Y-7488724D01*
X1676667Y-7479200D01*
X1695714Y-7469676D01*
X1848095Y-7650628D02*
X1857619Y-7660152D01*
X1848095Y-7669676D01*
X1838571Y-7660152D01*
X1848095Y-7650628D01*
X1848095Y-7669676D01*
X1933809Y-7488724D02*
X1943333Y-7479200D01*
X1962381Y-7469676D01*
X2010000Y-7469676D01*
X2029048Y-7479200D01*
X2038571Y-7488724D01*
X2048095Y-7507771D01*
X2048095Y-7526819D01*
X2038571Y-7555390D01*
X1924286Y-7669676D01*
X2048095Y-7669676D01*
X2171905Y-7469676D02*
X2190952Y-7469676D01*
X2210000Y-7479200D01*
X2219524Y-7488724D01*
X2229048Y-7507771D01*
X2238571Y-7545867D01*
X2238571Y-7593486D01*
X2229048Y-7631581D01*
X2219524Y-7650628D01*
X2210000Y-7660152D01*
X2190952Y-7669676D01*
X2171905Y-7669676D01*
X2152857Y-7660152D01*
X2143333Y-7650628D01*
X2133810Y-7631581D01*
X2124286Y-7593486D01*
X2124286Y-7545867D01*
X2133810Y-7507771D01*
X2143333Y-7488724D01*
X2152857Y-7479200D01*
X2171905Y-7469676D01*
X2362381Y-7469676D02*
X2381429Y-7469676D01*
X2400476Y-7479200D01*
X2410000Y-7488724D01*
X2419524Y-7507771D01*
X2429048Y-7545867D01*
X2429048Y-7593486D01*
X2419524Y-7631581D01*
X2410000Y-7650628D01*
X2400476Y-7660152D01*
X2381429Y-7669676D01*
X2362381Y-7669676D01*
X2343333Y-7660152D01*
X2333810Y-7650628D01*
X2324286Y-7631581D01*
X2314762Y-7593486D01*
X2314762Y-7545867D01*
X2324286Y-7507771D01*
X2333810Y-7488724D01*
X2343333Y-7479200D01*
X2362381Y-7469676D01*
X2514762Y-7669676D02*
X2514762Y-7536343D01*
X2514762Y-7555390D02*
X2524286Y-7545867D01*
X2543333Y-7536343D01*
X2571905Y-7536343D01*
X2590952Y-7545867D01*
X2600476Y-7564914D01*
X2600476Y-7669676D01*
X2600476Y-7564914D02*
X2610000Y-7545867D01*
X2629048Y-7536343D01*
X2657619Y-7536343D01*
X2676667Y-7545867D01*
X2686190Y-7564914D01*
X2686190Y-7669676D01*
X2781429Y-7669676D02*
X2781429Y-7536343D01*
X2781429Y-7555390D02*
X2790952Y-7545867D01*
X2810000Y-7536343D01*
X2838571Y-7536343D01*
X2857619Y-7545867D01*
X2867143Y-7564914D01*
X2867143Y-7669676D01*
X2867143Y-7564914D02*
X2876667Y-7545867D01*
X2895714Y-7536343D01*
X2924286Y-7536343D01*
X2943333Y-7545867D01*
X2952857Y-7564914D01*
X2952857Y-7669676D01*
X3343333Y-7460152D02*
X3171905Y-7717295D01*
X3600476Y-7469676D02*
X3619524Y-7469676D01*
X3638571Y-7479200D01*
X3648095Y-7488724D01*
X3657619Y-7507771D01*
X3667143Y-7545867D01*
X3667143Y-7593486D01*
X3657619Y-7631581D01*
X3648095Y-7650628D01*
X3638571Y-7660152D01*
X3619524Y-7669676D01*
X3600476Y-7669676D01*
X3581428Y-7660152D01*
X3571905Y-7650628D01*
X3562381Y-7631581D01*
X3552857Y-7593486D01*
X3552857Y-7545867D01*
X3562381Y-7507771D01*
X3571905Y-7488724D01*
X3581428Y-7479200D01*
X3600476Y-7469676D01*
X3752857Y-7650628D02*
X3762381Y-7660152D01*
X3752857Y-7669676D01*
X3743333Y-7660152D01*
X3752857Y-7650628D01*
X3752857Y-7669676D01*
X3886190Y-7469676D02*
X3905238Y-7469676D01*
X3924286Y-7479200D01*
X3933809Y-7488724D01*
X3943333Y-7507771D01*
X3952857Y-7545867D01*
X3952857Y-7593486D01*
X3943333Y-7631581D01*
X3933809Y-7650628D01*
X3924286Y-7660152D01*
X3905238Y-7669676D01*
X3886190Y-7669676D01*
X3867143Y-7660152D01*
X3857619Y-7650628D01*
X3848095Y-7631581D01*
X3838571Y-7593486D01*
X3838571Y-7545867D01*
X3848095Y-7507771D01*
X3857619Y-7488724D01*
X3867143Y-7479200D01*
X3886190Y-7469676D01*
X4076667Y-7469676D02*
X4095714Y-7469676D01*
X4114762Y-7479200D01*
X4124286Y-7488724D01*
X4133809Y-7507771D01*
X4143333Y-7545867D01*
X4143333Y-7593486D01*
X4133809Y-7631581D01*
X4124286Y-7650628D01*
X4114762Y-7660152D01*
X4095714Y-7669676D01*
X4076667Y-7669676D01*
X4057619Y-7660152D01*
X4048095Y-7650628D01*
X4038571Y-7631581D01*
X4029048Y-7593486D01*
X4029048Y-7545867D01*
X4038571Y-7507771D01*
X4048095Y-7488724D01*
X4057619Y-7479200D01*
X4076667Y-7469676D01*
X4210000Y-7469676D02*
X4343333Y-7469676D01*
X4257619Y-7669676D01*
X4429048Y-7669676D02*
X4467143Y-7669676D01*
X4486190Y-7660152D01*
X4495714Y-7650628D01*
X4514762Y-7622057D01*
X4524286Y-7583962D01*
X4524286Y-7507771D01*
X4514762Y-7488724D01*
X4505238Y-7479200D01*
X4486190Y-7469676D01*
X4448095Y-7469676D01*
X4429048Y-7479200D01*
X4419524Y-7488724D01*
X4410000Y-7507771D01*
X4410000Y-7555390D01*
X4419524Y-7574438D01*
X4429048Y-7583962D01*
X4448095Y-7593486D01*
X4486190Y-7593486D01*
X4505238Y-7583962D01*
X4514762Y-7574438D01*
X4524286Y-7555390D01*
X4600476Y-7469676D02*
X4600476Y-7507771D01*
X4676667Y-7469676D02*
X4676667Y-7507771D01*
X4971905Y-7745867D02*
X4962381Y-7736343D01*
X4943333Y-7707771D01*
X4933810Y-7688724D01*
X4924286Y-7660152D01*
X4914762Y-7612533D01*
X4914762Y-7574438D01*
X4924286Y-7526819D01*
X4933810Y-7498248D01*
X4943333Y-7479200D01*
X4962381Y-7450628D01*
X4971905Y-7441105D01*
X5076667Y-7555390D02*
X5057619Y-7545867D01*
X5048095Y-7536343D01*
X5038571Y-7517295D01*
X5038571Y-7507771D01*
X5048095Y-7488724D01*
X5057619Y-7479200D01*
X5076667Y-7469676D01*
X5114762Y-7469676D01*
X5133810Y-7479200D01*
X5143333Y-7488724D01*
X5152857Y-7507771D01*
X5152857Y-7517295D01*
X5143333Y-7536343D01*
X5133810Y-7545867D01*
X5114762Y-7555390D01*
X5076667Y-7555390D01*
X5057619Y-7564914D01*
X5048095Y-7574438D01*
X5038571Y-7593486D01*
X5038571Y-7631581D01*
X5048095Y-7650628D01*
X5057619Y-7660152D01*
X5076667Y-7669676D01*
X5114762Y-7669676D01*
X5133810Y-7660152D01*
X5143333Y-7650628D01*
X5152857Y-7631581D01*
X5152857Y-7593486D01*
X5143333Y-7574438D01*
X5133810Y-7564914D01*
X5114762Y-7555390D01*
X5324286Y-7536343D02*
X5324286Y-7669676D01*
X5276667Y-7460152D02*
X5229048Y-7603009D01*
X5352857Y-7603009D01*
X5581429Y-7669676D02*
X5581429Y-7469676D01*
X5667143Y-7669676D02*
X5667143Y-7564914D01*
X5657619Y-7545867D01*
X5638571Y-7536343D01*
X5610000Y-7536343D01*
X5590952Y-7545867D01*
X5581429Y-7555390D01*
X5790952Y-7669676D02*
X5771905Y-7660152D01*
X5762381Y-7650628D01*
X5752857Y-7631581D01*
X5752857Y-7574438D01*
X5762381Y-7555390D01*
X5771905Y-7545867D01*
X5790952Y-7536343D01*
X5819524Y-7536343D01*
X5838571Y-7545867D01*
X5848095Y-7555390D01*
X5857619Y-7574438D01*
X5857619Y-7631581D01*
X5848095Y-7650628D01*
X5838571Y-7660152D01*
X5819524Y-7669676D01*
X5790952Y-7669676D01*
X5971905Y-7669676D02*
X5952857Y-7660152D01*
X5943333Y-7641105D01*
X5943333Y-7469676D01*
X6124286Y-7660152D02*
X6105238Y-7669676D01*
X6067143Y-7669676D01*
X6048095Y-7660152D01*
X6038571Y-7641105D01*
X6038571Y-7564914D01*
X6048095Y-7545867D01*
X6067143Y-7536343D01*
X6105238Y-7536343D01*
X6124286Y-7545867D01*
X6133809Y-7564914D01*
X6133809Y-7583962D01*
X6038571Y-7603009D01*
X6210000Y-7660152D02*
X6229048Y-7669676D01*
X6267143Y-7669676D01*
X6286190Y-7660152D01*
X6295714Y-7641105D01*
X6295714Y-7631581D01*
X6286190Y-7612533D01*
X6267143Y-7603009D01*
X6238571Y-7603009D01*
X6219524Y-7593486D01*
X6210000Y-7574438D01*
X6210000Y-7564914D01*
X6219524Y-7545867D01*
X6238571Y-7536343D01*
X6267143Y-7536343D01*
X6286190Y-7545867D01*
X6362381Y-7745867D02*
X6371905Y-7736343D01*
X6390952Y-7707771D01*
X6400476Y-7688724D01*
X6410000Y-7660152D01*
X6419524Y-7612533D01*
X6419524Y-7574438D01*
X6410000Y-7526819D01*
X6400476Y-7498248D01*
X6390952Y-7479200D01*
X6371905Y-7450628D01*
X6362381Y-7441105D01*
D13*
X1400000Y-7843200D02*
G75*
G03*
X1400000Y-7843200I-15000J0D01*
G01*
D11*
X1695714Y-7733676D02*
X1714762Y-7733676D01*
X1733809Y-7743200D01*
X1743333Y-7752724D01*
X1752857Y-7771771D01*
X1762381Y-7809867D01*
X1762381Y-7857486D01*
X1752857Y-7895581D01*
X1743333Y-7914628D01*
X1733809Y-7924152D01*
X1714762Y-7933676D01*
X1695714Y-7933676D01*
X1676667Y-7924152D01*
X1667143Y-7914628D01*
X1657619Y-7895581D01*
X1648095Y-7857486D01*
X1648095Y-7809867D01*
X1657619Y-7771771D01*
X1667143Y-7752724D01*
X1676667Y-7743200D01*
X1695714Y-7733676D01*
X1848095Y-7914628D02*
X1857619Y-7924152D01*
X1848095Y-7933676D01*
X1838571Y-7924152D01*
X1848095Y-7914628D01*
X1848095Y-7933676D01*
X1924286Y-7733676D02*
X2048095Y-7733676D01*
X1981428Y-7809867D01*
X2010000Y-7809867D01*
X2029048Y-7819390D01*
X2038571Y-7828914D01*
X2048095Y-7847962D01*
X2048095Y-7895581D01*
X2038571Y-7914628D01*
X2029048Y-7924152D01*
X2010000Y-7933676D01*
X1952857Y-7933676D01*
X1933809Y-7924152D01*
X1924286Y-7914628D01*
X2171905Y-7733676D02*
X2190952Y-7733676D01*
X2210000Y-7743200D01*
X2219524Y-7752724D01*
X2229048Y-7771771D01*
X2238571Y-7809867D01*
X2238571Y-7857486D01*
X2229048Y-7895581D01*
X2219524Y-7914628D01*
X2210000Y-7924152D01*
X2190952Y-7933676D01*
X2171905Y-7933676D01*
X2152857Y-7924152D01*
X2143333Y-7914628D01*
X2133810Y-7895581D01*
X2124286Y-7857486D01*
X2124286Y-7809867D01*
X2133810Y-7771771D01*
X2143333Y-7752724D01*
X2152857Y-7743200D01*
X2171905Y-7733676D01*
X2362381Y-7733676D02*
X2381429Y-7733676D01*
X2400476Y-7743200D01*
X2410000Y-7752724D01*
X2419524Y-7771771D01*
X2429048Y-7809867D01*
X2429048Y-7857486D01*
X2419524Y-7895581D01*
X2410000Y-7914628D01*
X2400476Y-7924152D01*
X2381429Y-7933676D01*
X2362381Y-7933676D01*
X2343333Y-7924152D01*
X2333810Y-7914628D01*
X2324286Y-7895581D01*
X2314762Y-7857486D01*
X2314762Y-7809867D01*
X2324286Y-7771771D01*
X2333810Y-7752724D01*
X2343333Y-7743200D01*
X2362381Y-7733676D01*
X2514762Y-7933676D02*
X2514762Y-7800343D01*
X2514762Y-7819390D02*
X2524286Y-7809867D01*
X2543333Y-7800343D01*
X2571905Y-7800343D01*
X2590952Y-7809867D01*
X2600476Y-7828914D01*
X2600476Y-7933676D01*
X2600476Y-7828914D02*
X2610000Y-7809867D01*
X2629048Y-7800343D01*
X2657619Y-7800343D01*
X2676667Y-7809867D01*
X2686190Y-7828914D01*
X2686190Y-7933676D01*
X2781429Y-7933676D02*
X2781429Y-7800343D01*
X2781429Y-7819390D02*
X2790952Y-7809867D01*
X2810000Y-7800343D01*
X2838571Y-7800343D01*
X2857619Y-7809867D01*
X2867143Y-7828914D01*
X2867143Y-7933676D01*
X2867143Y-7828914D02*
X2876667Y-7809867D01*
X2895714Y-7800343D01*
X2924286Y-7800343D01*
X2943333Y-7809867D01*
X2952857Y-7828914D01*
X2952857Y-7933676D01*
X3343333Y-7724152D02*
X3171905Y-7981295D01*
X3600476Y-7733676D02*
X3619524Y-7733676D01*
X3638571Y-7743200D01*
X3648095Y-7752724D01*
X3657619Y-7771771D01*
X3667143Y-7809867D01*
X3667143Y-7857486D01*
X3657619Y-7895581D01*
X3648095Y-7914628D01*
X3638571Y-7924152D01*
X3619524Y-7933676D01*
X3600476Y-7933676D01*
X3581428Y-7924152D01*
X3571905Y-7914628D01*
X3562381Y-7895581D01*
X3552857Y-7857486D01*
X3552857Y-7809867D01*
X3562381Y-7771771D01*
X3571905Y-7752724D01*
X3581428Y-7743200D01*
X3600476Y-7733676D01*
X3752857Y-7914628D02*
X3762381Y-7924152D01*
X3752857Y-7933676D01*
X3743333Y-7924152D01*
X3752857Y-7914628D01*
X3752857Y-7933676D01*
X3886190Y-7733676D02*
X3905238Y-7733676D01*
X3924286Y-7743200D01*
X3933809Y-7752724D01*
X3943333Y-7771771D01*
X3952857Y-7809867D01*
X3952857Y-7857486D01*
X3943333Y-7895581D01*
X3933809Y-7914628D01*
X3924286Y-7924152D01*
X3905238Y-7933676D01*
X3886190Y-7933676D01*
X3867143Y-7924152D01*
X3857619Y-7914628D01*
X3848095Y-7895581D01*
X3838571Y-7857486D01*
X3838571Y-7809867D01*
X3848095Y-7771771D01*
X3857619Y-7752724D01*
X3867143Y-7743200D01*
X3886190Y-7733676D01*
X4143333Y-7933676D02*
X4029048Y-7933676D01*
X4086190Y-7933676D02*
X4086190Y-7733676D01*
X4067143Y-7762248D01*
X4048095Y-7781295D01*
X4029048Y-7790819D01*
X4333810Y-7933676D02*
X4219524Y-7933676D01*
X4276667Y-7933676D02*
X4276667Y-7733676D01*
X4257619Y-7762248D01*
X4238571Y-7781295D01*
X4219524Y-7790819D01*
X4448095Y-7819390D02*
X4429048Y-7809867D01*
X4419524Y-7800343D01*
X4410000Y-7781295D01*
X4410000Y-7771771D01*
X4419524Y-7752724D01*
X4429048Y-7743200D01*
X4448095Y-7733676D01*
X4486190Y-7733676D01*
X4505238Y-7743200D01*
X4514762Y-7752724D01*
X4524286Y-7771771D01*
X4524286Y-7781295D01*
X4514762Y-7800343D01*
X4505238Y-7809867D01*
X4486190Y-7819390D01*
X4448095Y-7819390D01*
X4429048Y-7828914D01*
X4419524Y-7838438D01*
X4410000Y-7857486D01*
X4410000Y-7895581D01*
X4419524Y-7914628D01*
X4429048Y-7924152D01*
X4448095Y-7933676D01*
X4486190Y-7933676D01*
X4505238Y-7924152D01*
X4514762Y-7914628D01*
X4524286Y-7895581D01*
X4524286Y-7857486D01*
X4514762Y-7838438D01*
X4505238Y-7828914D01*
X4486190Y-7819390D01*
X4600476Y-7733676D02*
X4600476Y-7771771D01*
X4676667Y-7733676D02*
X4676667Y-7771771D01*
X4971905Y-8009867D02*
X4962381Y-8000343D01*
X4943333Y-7971771D01*
X4933810Y-7952724D01*
X4924286Y-7924152D01*
X4914762Y-7876533D01*
X4914762Y-7838438D01*
X4924286Y-7790819D01*
X4933810Y-7762248D01*
X4943333Y-7743200D01*
X4962381Y-7714628D01*
X4971905Y-7705105D01*
X5057619Y-7933676D02*
X5095714Y-7933676D01*
X5114762Y-7924152D01*
X5124286Y-7914628D01*
X5143333Y-7886057D01*
X5152857Y-7847962D01*
X5152857Y-7771771D01*
X5143333Y-7752724D01*
X5133810Y-7743200D01*
X5114762Y-7733676D01*
X5076667Y-7733676D01*
X5057619Y-7743200D01*
X5048095Y-7752724D01*
X5038571Y-7771771D01*
X5038571Y-7819390D01*
X5048095Y-7838438D01*
X5057619Y-7847962D01*
X5076667Y-7857486D01*
X5114762Y-7857486D01*
X5133810Y-7847962D01*
X5143333Y-7838438D01*
X5152857Y-7819390D01*
X5390952Y-7933676D02*
X5390952Y-7733676D01*
X5476667Y-7933676D02*
X5476667Y-7828914D01*
X5467143Y-7809867D01*
X5448095Y-7800343D01*
X5419524Y-7800343D01*
X5400476Y-7809867D01*
X5390952Y-7819390D01*
X5600476Y-7933676D02*
X5581429Y-7924152D01*
X5571905Y-7914628D01*
X5562381Y-7895581D01*
X5562381Y-7838438D01*
X5571905Y-7819390D01*
X5581429Y-7809867D01*
X5600476Y-7800343D01*
X5629048Y-7800343D01*
X5648095Y-7809867D01*
X5657619Y-7819390D01*
X5667143Y-7838438D01*
X5667143Y-7895581D01*
X5657619Y-7914628D01*
X5648095Y-7924152D01*
X5629048Y-7933676D01*
X5600476Y-7933676D01*
X5781428Y-7933676D02*
X5762381Y-7924152D01*
X5752857Y-7905105D01*
X5752857Y-7733676D01*
X5933809Y-7924152D02*
X5914762Y-7933676D01*
X5876667Y-7933676D01*
X5857619Y-7924152D01*
X5848095Y-7905105D01*
X5848095Y-7828914D01*
X5857619Y-7809867D01*
X5876667Y-7800343D01*
X5914762Y-7800343D01*
X5933809Y-7809867D01*
X5943333Y-7828914D01*
X5943333Y-7847962D01*
X5848095Y-7867009D01*
X6019524Y-7924152D02*
X6038571Y-7933676D01*
X6076667Y-7933676D01*
X6095714Y-7924152D01*
X6105238Y-7905105D01*
X6105238Y-7895581D01*
X6095714Y-7876533D01*
X6076667Y-7867009D01*
X6048095Y-7867009D01*
X6029048Y-7857486D01*
X6019524Y-7838438D01*
X6019524Y-7828914D01*
X6029048Y-7809867D01*
X6048095Y-7800343D01*
X6076667Y-7800343D01*
X6095714Y-7809867D01*
X6171905Y-8009867D02*
X6181428Y-8000343D01*
X6200476Y-7971771D01*
X6210000Y-7952724D01*
X6219524Y-7924152D01*
X6229048Y-7876533D01*
X6229048Y-7838438D01*
X6219524Y-7790819D01*
X6210000Y-7762248D01*
X6200476Y-7743200D01*
X6181428Y-7714628D01*
X6171905Y-7705105D01*
D14*
X1370000Y-8077200D02*
X1370000Y-8137200D01*
X1340000Y-8107200D02*
X1400000Y-8107200D01*
D11*
X1695714Y-7997676D02*
X1714762Y-7997676D01*
X1733809Y-8007200D01*
X1743333Y-8016724D01*
X1752857Y-8035771D01*
X1762381Y-8073867D01*
X1762381Y-8121486D01*
X1752857Y-8159581D01*
X1743333Y-8178628D01*
X1733809Y-8188152D01*
X1714762Y-8197676D01*
X1695714Y-8197676D01*
X1676667Y-8188152D01*
X1667143Y-8178628D01*
X1657619Y-8159581D01*
X1648095Y-8121486D01*
X1648095Y-8073867D01*
X1657619Y-8035771D01*
X1667143Y-8016724D01*
X1676667Y-8007200D01*
X1695714Y-7997676D01*
X1848095Y-8178628D02*
X1857619Y-8188152D01*
X1848095Y-8197676D01*
X1838571Y-8188152D01*
X1848095Y-8178628D01*
X1848095Y-8197676D01*
X2029048Y-7997676D02*
X1990952Y-7997676D01*
X1971905Y-8007200D01*
X1962381Y-8016724D01*
X1943333Y-8045295D01*
X1933809Y-8083390D01*
X1933809Y-8159581D01*
X1943333Y-8178628D01*
X1952857Y-8188152D01*
X1971905Y-8197676D01*
X2010000Y-8197676D01*
X2029048Y-8188152D01*
X2038571Y-8178628D01*
X2048095Y-8159581D01*
X2048095Y-8111962D01*
X2038571Y-8092914D01*
X2029048Y-8083390D01*
X2010000Y-8073867D01*
X1971905Y-8073867D01*
X1952857Y-8083390D01*
X1943333Y-8092914D01*
X1933809Y-8111962D01*
X2171905Y-7997676D02*
X2190952Y-7997676D01*
X2210000Y-8007200D01*
X2219524Y-8016724D01*
X2229048Y-8035771D01*
X2238571Y-8073867D01*
X2238571Y-8121486D01*
X2229048Y-8159581D01*
X2219524Y-8178628D01*
X2210000Y-8188152D01*
X2190952Y-8197676D01*
X2171905Y-8197676D01*
X2152857Y-8188152D01*
X2143333Y-8178628D01*
X2133810Y-8159581D01*
X2124286Y-8121486D01*
X2124286Y-8073867D01*
X2133810Y-8035771D01*
X2143333Y-8016724D01*
X2152857Y-8007200D01*
X2171905Y-7997676D01*
X2362381Y-7997676D02*
X2381429Y-7997676D01*
X2400476Y-8007200D01*
X2410000Y-8016724D01*
X2419524Y-8035771D01*
X2429048Y-8073867D01*
X2429048Y-8121486D01*
X2419524Y-8159581D01*
X2410000Y-8178628D01*
X2400476Y-8188152D01*
X2381429Y-8197676D01*
X2362381Y-8197676D01*
X2343333Y-8188152D01*
X2333810Y-8178628D01*
X2324286Y-8159581D01*
X2314762Y-8121486D01*
X2314762Y-8073867D01*
X2324286Y-8035771D01*
X2333810Y-8016724D01*
X2343333Y-8007200D01*
X2362381Y-7997676D01*
X2514762Y-8197676D02*
X2514762Y-8064343D01*
X2514762Y-8083390D02*
X2524286Y-8073867D01*
X2543333Y-8064343D01*
X2571905Y-8064343D01*
X2590952Y-8073867D01*
X2600476Y-8092914D01*
X2600476Y-8197676D01*
X2600476Y-8092914D02*
X2610000Y-8073867D01*
X2629048Y-8064343D01*
X2657619Y-8064343D01*
X2676667Y-8073867D01*
X2686190Y-8092914D01*
X2686190Y-8197676D01*
X2781429Y-8197676D02*
X2781429Y-8064343D01*
X2781429Y-8083390D02*
X2790952Y-8073867D01*
X2810000Y-8064343D01*
X2838571Y-8064343D01*
X2857619Y-8073867D01*
X2867143Y-8092914D01*
X2867143Y-8197676D01*
X2867143Y-8092914D02*
X2876667Y-8073867D01*
X2895714Y-8064343D01*
X2924286Y-8064343D01*
X2943333Y-8073867D01*
X2952857Y-8092914D01*
X2952857Y-8197676D01*
X3343333Y-7988152D02*
X3171905Y-8245295D01*
X3600476Y-7997676D02*
X3619524Y-7997676D01*
X3638571Y-8007200D01*
X3648095Y-8016724D01*
X3657619Y-8035771D01*
X3667143Y-8073867D01*
X3667143Y-8121486D01*
X3657619Y-8159581D01*
X3648095Y-8178628D01*
X3638571Y-8188152D01*
X3619524Y-8197676D01*
X3600476Y-8197676D01*
X3581428Y-8188152D01*
X3571905Y-8178628D01*
X3562381Y-8159581D01*
X3552857Y-8121486D01*
X3552857Y-8073867D01*
X3562381Y-8035771D01*
X3571905Y-8016724D01*
X3581428Y-8007200D01*
X3600476Y-7997676D01*
X3752857Y-8178628D02*
X3762381Y-8188152D01*
X3752857Y-8197676D01*
X3743333Y-8188152D01*
X3752857Y-8178628D01*
X3752857Y-8197676D01*
X3886190Y-7997676D02*
X3905238Y-7997676D01*
X3924286Y-8007200D01*
X3933809Y-8016724D01*
X3943333Y-8035771D01*
X3952857Y-8073867D01*
X3952857Y-8121486D01*
X3943333Y-8159581D01*
X3933809Y-8178628D01*
X3924286Y-8188152D01*
X3905238Y-8197676D01*
X3886190Y-8197676D01*
X3867143Y-8188152D01*
X3857619Y-8178628D01*
X3848095Y-8159581D01*
X3838571Y-8121486D01*
X3838571Y-8073867D01*
X3848095Y-8035771D01*
X3857619Y-8016724D01*
X3867143Y-8007200D01*
X3886190Y-7997676D01*
X4029048Y-8016724D02*
X4038571Y-8007200D01*
X4057619Y-7997676D01*
X4105238Y-7997676D01*
X4124286Y-8007200D01*
X4133809Y-8016724D01*
X4143333Y-8035771D01*
X4143333Y-8054819D01*
X4133809Y-8083390D01*
X4019524Y-8197676D01*
X4143333Y-8197676D01*
X4210000Y-7997676D02*
X4333810Y-7997676D01*
X4267143Y-8073867D01*
X4295714Y-8073867D01*
X4314762Y-8083390D01*
X4324286Y-8092914D01*
X4333810Y-8111962D01*
X4333810Y-8159581D01*
X4324286Y-8178628D01*
X4314762Y-8188152D01*
X4295714Y-8197676D01*
X4238571Y-8197676D01*
X4219524Y-8188152D01*
X4210000Y-8178628D01*
X4505238Y-7997676D02*
X4467143Y-7997676D01*
X4448095Y-8007200D01*
X4438571Y-8016724D01*
X4419524Y-8045295D01*
X4410000Y-8083390D01*
X4410000Y-8159581D01*
X4419524Y-8178628D01*
X4429048Y-8188152D01*
X4448095Y-8197676D01*
X4486190Y-8197676D01*
X4505238Y-8188152D01*
X4514762Y-8178628D01*
X4524286Y-8159581D01*
X4524286Y-8111962D01*
X4514762Y-8092914D01*
X4505238Y-8083390D01*
X4486190Y-8073867D01*
X4448095Y-8073867D01*
X4429048Y-8083390D01*
X4419524Y-8092914D01*
X4410000Y-8111962D01*
X4600476Y-7997676D02*
X4600476Y-8035771D01*
X4676667Y-7997676D02*
X4676667Y-8035771D01*
X4971905Y-8273867D02*
X4962381Y-8264343D01*
X4943333Y-8235771D01*
X4933810Y-8216724D01*
X4924286Y-8188152D01*
X4914762Y-8140533D01*
X4914762Y-8102438D01*
X4924286Y-8054819D01*
X4933810Y-8026248D01*
X4943333Y-8007200D01*
X4962381Y-7978628D01*
X4971905Y-7969105D01*
X5086190Y-7997676D02*
X5105238Y-7997676D01*
X5124286Y-8007200D01*
X5133810Y-8016724D01*
X5143333Y-8035771D01*
X5152857Y-8073867D01*
X5152857Y-8121486D01*
X5143333Y-8159581D01*
X5133810Y-8178628D01*
X5124286Y-8188152D01*
X5105238Y-8197676D01*
X5086190Y-8197676D01*
X5067143Y-8188152D01*
X5057619Y-8178628D01*
X5048095Y-8159581D01*
X5038571Y-8121486D01*
X5038571Y-8073867D01*
X5048095Y-8035771D01*
X5057619Y-8016724D01*
X5067143Y-8007200D01*
X5086190Y-7997676D01*
X5390952Y-8197676D02*
X5390952Y-7997676D01*
X5476667Y-8197676D02*
X5476667Y-8092914D01*
X5467143Y-8073867D01*
X5448095Y-8064343D01*
X5419524Y-8064343D01*
X5400476Y-8073867D01*
X5390952Y-8083390D01*
X5600476Y-8197676D02*
X5581429Y-8188152D01*
X5571905Y-8178628D01*
X5562381Y-8159581D01*
X5562381Y-8102438D01*
X5571905Y-8083390D01*
X5581429Y-8073867D01*
X5600476Y-8064343D01*
X5629048Y-8064343D01*
X5648095Y-8073867D01*
X5657619Y-8083390D01*
X5667143Y-8102438D01*
X5667143Y-8159581D01*
X5657619Y-8178628D01*
X5648095Y-8188152D01*
X5629048Y-8197676D01*
X5600476Y-8197676D01*
X5781428Y-8197676D02*
X5762381Y-8188152D01*
X5752857Y-8169105D01*
X5752857Y-7997676D01*
X5933809Y-8188152D02*
X5914762Y-8197676D01*
X5876667Y-8197676D01*
X5857619Y-8188152D01*
X5848095Y-8169105D01*
X5848095Y-8092914D01*
X5857619Y-8073867D01*
X5876667Y-8064343D01*
X5914762Y-8064343D01*
X5933809Y-8073867D01*
X5943333Y-8092914D01*
X5943333Y-8111962D01*
X5848095Y-8131009D01*
X6019524Y-8188152D02*
X6038571Y-8197676D01*
X6076667Y-8197676D01*
X6095714Y-8188152D01*
X6105238Y-8169105D01*
X6105238Y-8159581D01*
X6095714Y-8140533D01*
X6076667Y-8131009D01*
X6048095Y-8131009D01*
X6029048Y-8121486D01*
X6019524Y-8102438D01*
X6019524Y-8092914D01*
X6029048Y-8073867D01*
X6048095Y-8064343D01*
X6076667Y-8064343D01*
X6095714Y-8073867D01*
X6343333Y-8121486D02*
X6495714Y-8121486D01*
X6419524Y-8197676D02*
X6419524Y-8045295D01*
X6829048Y-8064343D02*
X6829048Y-8197676D01*
X6781428Y-7988152D02*
X6733809Y-8131009D01*
X6857619Y-8131009D01*
X7076667Y-8188152D02*
X7095714Y-8197676D01*
X7133809Y-8197676D01*
X7152857Y-8188152D01*
X7162381Y-8169105D01*
X7162381Y-8159581D01*
X7152857Y-8140533D01*
X7133809Y-8131009D01*
X7105238Y-8131009D01*
X7086190Y-8121486D01*
X7076667Y-8102438D01*
X7076667Y-8092914D01*
X7086190Y-8073867D01*
X7105238Y-8064343D01*
X7133809Y-8064343D01*
X7152857Y-8073867D01*
X7276667Y-8197676D02*
X7257619Y-8188152D01*
X7248095Y-8169105D01*
X7248095Y-7997676D01*
X7381428Y-8197676D02*
X7362381Y-8188152D01*
X7352857Y-8178628D01*
X7343333Y-8159581D01*
X7343333Y-8102438D01*
X7352857Y-8083390D01*
X7362381Y-8073867D01*
X7381428Y-8064343D01*
X7410000Y-8064343D01*
X7429048Y-8073867D01*
X7438571Y-8083390D01*
X7448095Y-8102438D01*
X7448095Y-8159581D01*
X7438571Y-8178628D01*
X7429048Y-8188152D01*
X7410000Y-8197676D01*
X7381428Y-8197676D01*
X7505238Y-8064343D02*
X7581428Y-8064343D01*
X7533809Y-7997676D02*
X7533809Y-8169105D01*
X7543333Y-8188152D01*
X7562381Y-8197676D01*
X7581428Y-8197676D01*
X7638571Y-8188152D02*
X7657619Y-8197676D01*
X7695714Y-8197676D01*
X7714762Y-8188152D01*
X7724286Y-8169105D01*
X7724286Y-8159581D01*
X7714762Y-8140533D01*
X7695714Y-8131009D01*
X7667143Y-8131009D01*
X7648095Y-8121486D01*
X7638571Y-8102438D01*
X7638571Y-8092914D01*
X7648095Y-8073867D01*
X7667143Y-8064343D01*
X7695714Y-8064343D01*
X7714762Y-8073867D01*
X7790952Y-8273867D02*
X7800476Y-8264343D01*
X7819524Y-8235771D01*
X7829048Y-8216724D01*
X7838571Y-8188152D01*
X7848095Y-8140533D01*
X7848095Y-8102438D01*
X7838571Y-8054819D01*
X7829048Y-8026248D01*
X7819524Y-8007200D01*
X7800476Y-7978628D01*
X7790952Y-7969105D01*
D15*
X1389017Y-8397717D02*
X1389017Y-8344683D01*
X1335983Y-8344683D01*
X1335983Y-8397717D01*
X1389017Y-8397717D01*
D11*
X1695714Y-8261676D02*
X1714762Y-8261676D01*
X1733809Y-8271200D01*
X1743333Y-8280724D01*
X1752857Y-8299771D01*
X1762381Y-8337867D01*
X1762381Y-8385486D01*
X1752857Y-8423581D01*
X1743333Y-8442629D01*
X1733809Y-8452152D01*
X1714762Y-8461676D01*
X1695714Y-8461676D01*
X1676667Y-8452152D01*
X1667143Y-8442629D01*
X1657619Y-8423581D01*
X1648095Y-8385486D01*
X1648095Y-8337867D01*
X1657619Y-8299771D01*
X1667143Y-8280724D01*
X1676667Y-8271200D01*
X1695714Y-8261676D01*
X1848095Y-8442629D02*
X1857619Y-8452152D01*
X1848095Y-8461676D01*
X1838571Y-8452152D01*
X1848095Y-8442629D01*
X1848095Y-8461676D01*
X1924286Y-8261676D02*
X2057619Y-8261676D01*
X1971905Y-8461676D01*
X2229048Y-8261676D02*
X2133810Y-8261676D01*
X2124286Y-8356914D01*
X2133810Y-8347390D01*
X2152857Y-8337867D01*
X2200476Y-8337867D01*
X2219524Y-8347390D01*
X2229048Y-8356914D01*
X2238571Y-8375962D01*
X2238571Y-8423581D01*
X2229048Y-8442629D01*
X2219524Y-8452152D01*
X2200476Y-8461676D01*
X2152857Y-8461676D01*
X2133810Y-8452152D01*
X2124286Y-8442629D01*
X2362381Y-8261676D02*
X2381429Y-8261676D01*
X2400476Y-8271200D01*
X2410000Y-8280724D01*
X2419524Y-8299771D01*
X2429048Y-8337867D01*
X2429048Y-8385486D01*
X2419524Y-8423581D01*
X2410000Y-8442629D01*
X2400476Y-8452152D01*
X2381429Y-8461676D01*
X2362381Y-8461676D01*
X2343333Y-8452152D01*
X2333810Y-8442629D01*
X2324286Y-8423581D01*
X2314762Y-8385486D01*
X2314762Y-8337867D01*
X2324286Y-8299771D01*
X2333810Y-8280724D01*
X2343333Y-8271200D01*
X2362381Y-8261676D01*
X2514762Y-8461676D02*
X2514762Y-8328343D01*
X2514762Y-8347390D02*
X2524286Y-8337867D01*
X2543333Y-8328343D01*
X2571905Y-8328343D01*
X2590952Y-8337867D01*
X2600476Y-8356914D01*
X2600476Y-8461676D01*
X2600476Y-8356914D02*
X2610000Y-8337867D01*
X2629048Y-8328343D01*
X2657619Y-8328343D01*
X2676667Y-8337867D01*
X2686190Y-8356914D01*
X2686190Y-8461676D01*
X2781429Y-8461676D02*
X2781429Y-8328343D01*
X2781429Y-8347390D02*
X2790952Y-8337867D01*
X2810000Y-8328343D01*
X2838571Y-8328343D01*
X2857619Y-8337867D01*
X2867143Y-8356914D01*
X2867143Y-8461676D01*
X2867143Y-8356914D02*
X2876667Y-8337867D01*
X2895714Y-8328343D01*
X2924286Y-8328343D01*
X2943333Y-8337867D01*
X2952857Y-8356914D01*
X2952857Y-8461676D01*
X3343333Y-8252152D02*
X3171905Y-8509295D01*
X3600476Y-8261676D02*
X3619524Y-8261676D01*
X3638571Y-8271200D01*
X3648095Y-8280724D01*
X3657619Y-8299771D01*
X3667143Y-8337867D01*
X3667143Y-8385486D01*
X3657619Y-8423581D01*
X3648095Y-8442629D01*
X3638571Y-8452152D01*
X3619524Y-8461676D01*
X3600476Y-8461676D01*
X3581428Y-8452152D01*
X3571905Y-8442629D01*
X3562381Y-8423581D01*
X3552857Y-8385486D01*
X3552857Y-8337867D01*
X3562381Y-8299771D01*
X3571905Y-8280724D01*
X3581428Y-8271200D01*
X3600476Y-8261676D01*
X3752857Y-8442629D02*
X3762381Y-8452152D01*
X3752857Y-8461676D01*
X3743333Y-8452152D01*
X3752857Y-8442629D01*
X3752857Y-8461676D01*
X3886190Y-8261676D02*
X3905238Y-8261676D01*
X3924286Y-8271200D01*
X3933809Y-8280724D01*
X3943333Y-8299771D01*
X3952857Y-8337867D01*
X3952857Y-8385486D01*
X3943333Y-8423581D01*
X3933809Y-8442629D01*
X3924286Y-8452152D01*
X3905238Y-8461676D01*
X3886190Y-8461676D01*
X3867143Y-8452152D01*
X3857619Y-8442629D01*
X3848095Y-8423581D01*
X3838571Y-8385486D01*
X3838571Y-8337867D01*
X3848095Y-8299771D01*
X3857619Y-8280724D01*
X3867143Y-8271200D01*
X3886190Y-8261676D01*
X4029048Y-8280724D02*
X4038571Y-8271200D01*
X4057619Y-8261676D01*
X4105238Y-8261676D01*
X4124286Y-8271200D01*
X4133809Y-8280724D01*
X4143333Y-8299771D01*
X4143333Y-8318819D01*
X4133809Y-8347390D01*
X4019524Y-8461676D01*
X4143333Y-8461676D01*
X4238571Y-8461676D02*
X4276667Y-8461676D01*
X4295714Y-8452152D01*
X4305238Y-8442629D01*
X4324286Y-8414057D01*
X4333810Y-8375962D01*
X4333810Y-8299771D01*
X4324286Y-8280724D01*
X4314762Y-8271200D01*
X4295714Y-8261676D01*
X4257619Y-8261676D01*
X4238571Y-8271200D01*
X4229048Y-8280724D01*
X4219524Y-8299771D01*
X4219524Y-8347390D01*
X4229048Y-8366438D01*
X4238571Y-8375962D01*
X4257619Y-8385486D01*
X4295714Y-8385486D01*
X4314762Y-8375962D01*
X4324286Y-8366438D01*
X4333810Y-8347390D01*
X4514762Y-8261676D02*
X4419524Y-8261676D01*
X4410000Y-8356914D01*
X4419524Y-8347390D01*
X4438571Y-8337867D01*
X4486190Y-8337867D01*
X4505238Y-8347390D01*
X4514762Y-8356914D01*
X4524286Y-8375962D01*
X4524286Y-8423581D01*
X4514762Y-8442629D01*
X4505238Y-8452152D01*
X4486190Y-8461676D01*
X4438571Y-8461676D01*
X4419524Y-8452152D01*
X4410000Y-8442629D01*
X4600476Y-8261676D02*
X4600476Y-8299771D01*
X4676667Y-8261676D02*
X4676667Y-8299771D01*
X4971905Y-8537867D02*
X4962381Y-8528343D01*
X4943333Y-8499771D01*
X4933810Y-8480724D01*
X4924286Y-8452152D01*
X4914762Y-8404533D01*
X4914762Y-8366438D01*
X4924286Y-8318819D01*
X4933810Y-8290248D01*
X4943333Y-8271200D01*
X4962381Y-8242628D01*
X4971905Y-8233105D01*
X5038571Y-8280724D02*
X5048095Y-8271200D01*
X5067143Y-8261676D01*
X5114762Y-8261676D01*
X5133810Y-8271200D01*
X5143333Y-8280724D01*
X5152857Y-8299771D01*
X5152857Y-8318819D01*
X5143333Y-8347390D01*
X5029048Y-8461676D01*
X5152857Y-8461676D01*
X5390952Y-8461676D02*
X5390952Y-8261676D01*
X5476667Y-8461676D02*
X5476667Y-8356914D01*
X5467143Y-8337867D01*
X5448095Y-8328343D01*
X5419524Y-8328343D01*
X5400476Y-8337867D01*
X5390952Y-8347390D01*
X5600476Y-8461676D02*
X5581429Y-8452152D01*
X5571905Y-8442629D01*
X5562381Y-8423581D01*
X5562381Y-8366438D01*
X5571905Y-8347390D01*
X5581429Y-8337867D01*
X5600476Y-8328343D01*
X5629048Y-8328343D01*
X5648095Y-8337867D01*
X5657619Y-8347390D01*
X5667143Y-8366438D01*
X5667143Y-8423581D01*
X5657619Y-8442629D01*
X5648095Y-8452152D01*
X5629048Y-8461676D01*
X5600476Y-8461676D01*
X5781428Y-8461676D02*
X5762381Y-8452152D01*
X5752857Y-8433105D01*
X5752857Y-8261676D01*
X5933809Y-8452152D02*
X5914762Y-8461676D01*
X5876667Y-8461676D01*
X5857619Y-8452152D01*
X5848095Y-8433105D01*
X5848095Y-8356914D01*
X5857619Y-8337867D01*
X5876667Y-8328343D01*
X5914762Y-8328343D01*
X5933809Y-8337867D01*
X5943333Y-8356914D01*
X5943333Y-8375962D01*
X5848095Y-8395010D01*
X6019524Y-8452152D02*
X6038571Y-8461676D01*
X6076667Y-8461676D01*
X6095714Y-8452152D01*
X6105238Y-8433105D01*
X6105238Y-8423581D01*
X6095714Y-8404533D01*
X6076667Y-8395010D01*
X6048095Y-8395010D01*
X6029048Y-8385486D01*
X6019524Y-8366438D01*
X6019524Y-8356914D01*
X6029048Y-8337867D01*
X6048095Y-8328343D01*
X6076667Y-8328343D01*
X6095714Y-8337867D01*
X6171905Y-8537867D02*
X6181428Y-8528343D01*
X6200476Y-8499771D01*
X6210000Y-8480724D01*
X6219524Y-8452152D01*
X6229048Y-8404533D01*
X6229048Y-8366438D01*
X6219524Y-8318819D01*
X6210000Y-8290248D01*
X6200476Y-8271200D01*
X6181428Y-8242628D01*
X6171905Y-8233105D01*
D16*
X1360000Y-8675200D02*
X1400000Y-8635200D01*
X1360000Y-8595200D01*
X1320000Y-8635200D01*
X1360000Y-8675200D01*
D11*
X1695714Y-8525676D02*
X1714762Y-8525676D01*
X1733809Y-8535200D01*
X1743333Y-8544724D01*
X1752857Y-8563771D01*
X1762381Y-8601867D01*
X1762381Y-8649486D01*
X1752857Y-8687581D01*
X1743333Y-8706629D01*
X1733809Y-8716152D01*
X1714762Y-8725676D01*
X1695714Y-8725676D01*
X1676667Y-8716152D01*
X1667143Y-8706629D01*
X1657619Y-8687581D01*
X1648095Y-8649486D01*
X1648095Y-8601867D01*
X1657619Y-8563771D01*
X1667143Y-8544724D01*
X1676667Y-8535200D01*
X1695714Y-8525676D01*
X1848095Y-8706629D02*
X1857619Y-8716152D01*
X1848095Y-8725676D01*
X1838571Y-8716152D01*
X1848095Y-8706629D01*
X1848095Y-8725676D01*
X1971905Y-8611390D02*
X1952857Y-8601867D01*
X1943333Y-8592343D01*
X1933809Y-8573295D01*
X1933809Y-8563771D01*
X1943333Y-8544724D01*
X1952857Y-8535200D01*
X1971905Y-8525676D01*
X2010000Y-8525676D01*
X2029048Y-8535200D01*
X2038571Y-8544724D01*
X2048095Y-8563771D01*
X2048095Y-8573295D01*
X2038571Y-8592343D01*
X2029048Y-8601867D01*
X2010000Y-8611390D01*
X1971905Y-8611390D01*
X1952857Y-8620914D01*
X1943333Y-8630438D01*
X1933809Y-8649486D01*
X1933809Y-8687581D01*
X1943333Y-8706629D01*
X1952857Y-8716152D01*
X1971905Y-8725676D01*
X2010000Y-8725676D01*
X2029048Y-8716152D01*
X2038571Y-8706629D01*
X2048095Y-8687581D01*
X2048095Y-8649486D01*
X2038571Y-8630438D01*
X2029048Y-8620914D01*
X2010000Y-8611390D01*
X2171905Y-8525676D02*
X2190952Y-8525676D01*
X2210000Y-8535200D01*
X2219524Y-8544724D01*
X2229048Y-8563771D01*
X2238571Y-8601867D01*
X2238571Y-8649486D01*
X2229048Y-8687581D01*
X2219524Y-8706629D01*
X2210000Y-8716152D01*
X2190952Y-8725676D01*
X2171905Y-8725676D01*
X2152857Y-8716152D01*
X2143333Y-8706629D01*
X2133810Y-8687581D01*
X2124286Y-8649486D01*
X2124286Y-8601867D01*
X2133810Y-8563771D01*
X2143333Y-8544724D01*
X2152857Y-8535200D01*
X2171905Y-8525676D01*
X2362381Y-8525676D02*
X2381429Y-8525676D01*
X2400476Y-8535200D01*
X2410000Y-8544724D01*
X2419524Y-8563771D01*
X2429048Y-8601867D01*
X2429048Y-8649486D01*
X2419524Y-8687581D01*
X2410000Y-8706629D01*
X2400476Y-8716152D01*
X2381429Y-8725676D01*
X2362381Y-8725676D01*
X2343333Y-8716152D01*
X2333810Y-8706629D01*
X2324286Y-8687581D01*
X2314762Y-8649486D01*
X2314762Y-8601867D01*
X2324286Y-8563771D01*
X2333810Y-8544724D01*
X2343333Y-8535200D01*
X2362381Y-8525676D01*
X2514762Y-8725676D02*
X2514762Y-8592343D01*
X2514762Y-8611390D02*
X2524286Y-8601867D01*
X2543333Y-8592343D01*
X2571905Y-8592343D01*
X2590952Y-8601867D01*
X2600476Y-8620914D01*
X2600476Y-8725676D01*
X2600476Y-8620914D02*
X2610000Y-8601867D01*
X2629048Y-8592343D01*
X2657619Y-8592343D01*
X2676667Y-8601867D01*
X2686190Y-8620914D01*
X2686190Y-8725676D01*
X2781429Y-8725676D02*
X2781429Y-8592343D01*
X2781429Y-8611390D02*
X2790952Y-8601867D01*
X2810000Y-8592343D01*
X2838571Y-8592343D01*
X2857619Y-8601867D01*
X2867143Y-8620914D01*
X2867143Y-8725676D01*
X2867143Y-8620914D02*
X2876667Y-8601867D01*
X2895714Y-8592343D01*
X2924286Y-8592343D01*
X2943333Y-8601867D01*
X2952857Y-8620914D01*
X2952857Y-8725676D01*
X3343333Y-8516152D02*
X3171905Y-8773295D01*
X3600476Y-8525676D02*
X3619524Y-8525676D01*
X3638571Y-8535200D01*
X3648095Y-8544724D01*
X3657619Y-8563771D01*
X3667143Y-8601867D01*
X3667143Y-8649486D01*
X3657619Y-8687581D01*
X3648095Y-8706629D01*
X3638571Y-8716152D01*
X3619524Y-8725676D01*
X3600476Y-8725676D01*
X3581428Y-8716152D01*
X3571905Y-8706629D01*
X3562381Y-8687581D01*
X3552857Y-8649486D01*
X3552857Y-8601867D01*
X3562381Y-8563771D01*
X3571905Y-8544724D01*
X3581428Y-8535200D01*
X3600476Y-8525676D01*
X3752857Y-8706629D02*
X3762381Y-8716152D01*
X3752857Y-8725676D01*
X3743333Y-8716152D01*
X3752857Y-8706629D01*
X3752857Y-8725676D01*
X3886190Y-8525676D02*
X3905238Y-8525676D01*
X3924286Y-8535200D01*
X3933809Y-8544724D01*
X3943333Y-8563771D01*
X3952857Y-8601867D01*
X3952857Y-8649486D01*
X3943333Y-8687581D01*
X3933809Y-8706629D01*
X3924286Y-8716152D01*
X3905238Y-8725676D01*
X3886190Y-8725676D01*
X3867143Y-8716152D01*
X3857619Y-8706629D01*
X3848095Y-8687581D01*
X3838571Y-8649486D01*
X3838571Y-8601867D01*
X3848095Y-8563771D01*
X3857619Y-8544724D01*
X3867143Y-8535200D01*
X3886190Y-8525676D01*
X4019524Y-8525676D02*
X4143333Y-8525676D01*
X4076667Y-8601867D01*
X4105238Y-8601867D01*
X4124286Y-8611390D01*
X4133809Y-8620914D01*
X4143333Y-8639962D01*
X4143333Y-8687581D01*
X4133809Y-8706629D01*
X4124286Y-8716152D01*
X4105238Y-8725676D01*
X4048095Y-8725676D01*
X4029048Y-8716152D01*
X4019524Y-8706629D01*
X4333810Y-8725676D02*
X4219524Y-8725676D01*
X4276667Y-8725676D02*
X4276667Y-8525676D01*
X4257619Y-8554248D01*
X4238571Y-8573295D01*
X4219524Y-8582819D01*
X4514762Y-8525676D02*
X4419524Y-8525676D01*
X4410000Y-8620914D01*
X4419524Y-8611390D01*
X4438571Y-8601867D01*
X4486190Y-8601867D01*
X4505238Y-8611390D01*
X4514762Y-8620914D01*
X4524286Y-8639962D01*
X4524286Y-8687581D01*
X4514762Y-8706629D01*
X4505238Y-8716152D01*
X4486190Y-8725676D01*
X4438571Y-8725676D01*
X4419524Y-8716152D01*
X4410000Y-8706629D01*
X4600476Y-8525676D02*
X4600476Y-8563771D01*
X4676667Y-8525676D02*
X4676667Y-8563771D01*
X4971905Y-8801867D02*
X4962381Y-8792343D01*
X4943333Y-8763771D01*
X4933810Y-8744724D01*
X4924286Y-8716152D01*
X4914762Y-8668533D01*
X4914762Y-8630438D01*
X4924286Y-8582819D01*
X4933810Y-8554248D01*
X4943333Y-8535200D01*
X4962381Y-8506629D01*
X4971905Y-8497105D01*
X5086190Y-8525676D02*
X5105238Y-8525676D01*
X5124286Y-8535200D01*
X5133810Y-8544724D01*
X5143333Y-8563771D01*
X5152857Y-8601867D01*
X5152857Y-8649486D01*
X5143333Y-8687581D01*
X5133810Y-8706629D01*
X5124286Y-8716152D01*
X5105238Y-8725676D01*
X5086190Y-8725676D01*
X5067143Y-8716152D01*
X5057619Y-8706629D01*
X5048095Y-8687581D01*
X5038571Y-8649486D01*
X5038571Y-8601867D01*
X5048095Y-8563771D01*
X5057619Y-8544724D01*
X5067143Y-8535200D01*
X5086190Y-8525676D01*
X5390952Y-8725676D02*
X5390952Y-8525676D01*
X5476667Y-8725676D02*
X5476667Y-8620914D01*
X5467143Y-8601867D01*
X5448095Y-8592343D01*
X5419524Y-8592343D01*
X5400476Y-8601867D01*
X5390952Y-8611390D01*
X5600476Y-8725676D02*
X5581429Y-8716152D01*
X5571905Y-8706629D01*
X5562381Y-8687581D01*
X5562381Y-8630438D01*
X5571905Y-8611390D01*
X5581429Y-8601867D01*
X5600476Y-8592343D01*
X5629048Y-8592343D01*
X5648095Y-8601867D01*
X5657619Y-8611390D01*
X5667143Y-8630438D01*
X5667143Y-8687581D01*
X5657619Y-8706629D01*
X5648095Y-8716152D01*
X5629048Y-8725676D01*
X5600476Y-8725676D01*
X5781428Y-8725676D02*
X5762381Y-8716152D01*
X5752857Y-8697105D01*
X5752857Y-8525676D01*
X5933809Y-8716152D02*
X5914762Y-8725676D01*
X5876667Y-8725676D01*
X5857619Y-8716152D01*
X5848095Y-8697105D01*
X5848095Y-8620914D01*
X5857619Y-8601867D01*
X5876667Y-8592343D01*
X5914762Y-8592343D01*
X5933809Y-8601867D01*
X5943333Y-8620914D01*
X5943333Y-8639962D01*
X5848095Y-8659010D01*
X6019524Y-8716152D02*
X6038571Y-8725676D01*
X6076667Y-8725676D01*
X6095714Y-8716152D01*
X6105238Y-8697105D01*
X6105238Y-8687581D01*
X6095714Y-8668533D01*
X6076667Y-8659010D01*
X6048095Y-8659010D01*
X6029048Y-8649486D01*
X6019524Y-8630438D01*
X6019524Y-8620914D01*
X6029048Y-8601867D01*
X6048095Y-8592343D01*
X6076667Y-8592343D01*
X6095714Y-8601867D01*
X6343333Y-8649486D02*
X6495714Y-8649486D01*
X6419524Y-8725676D02*
X6419524Y-8573295D01*
X6838571Y-8525676D02*
X6743333Y-8525676D01*
X6733809Y-8620914D01*
X6743333Y-8611390D01*
X6762381Y-8601867D01*
X6810000Y-8601867D01*
X6829048Y-8611390D01*
X6838571Y-8620914D01*
X6848095Y-8639962D01*
X6848095Y-8687581D01*
X6838571Y-8706629D01*
X6829048Y-8716152D01*
X6810000Y-8725676D01*
X6762381Y-8725676D01*
X6743333Y-8716152D01*
X6733809Y-8706629D01*
X7019524Y-8525676D02*
X6981428Y-8525676D01*
X6962381Y-8535200D01*
X6952857Y-8544724D01*
X6933809Y-8573295D01*
X6924286Y-8611390D01*
X6924286Y-8687581D01*
X6933809Y-8706629D01*
X6943333Y-8716152D01*
X6962381Y-8725676D01*
X7000476Y-8725676D01*
X7019524Y-8716152D01*
X7029048Y-8706629D01*
X7038571Y-8687581D01*
X7038571Y-8639962D01*
X7029048Y-8620914D01*
X7019524Y-8611390D01*
X7000476Y-8601867D01*
X6962381Y-8601867D01*
X6943333Y-8611390D01*
X6933809Y-8620914D01*
X6924286Y-8639962D01*
X7267143Y-8716152D02*
X7286190Y-8725676D01*
X7324286Y-8725676D01*
X7343333Y-8716152D01*
X7352857Y-8697105D01*
X7352857Y-8687581D01*
X7343333Y-8668533D01*
X7324286Y-8659010D01*
X7295714Y-8659010D01*
X7276667Y-8649486D01*
X7267143Y-8630438D01*
X7267143Y-8620914D01*
X7276667Y-8601867D01*
X7295714Y-8592343D01*
X7324286Y-8592343D01*
X7343333Y-8601867D01*
X7467143Y-8725676D02*
X7448095Y-8716152D01*
X7438571Y-8697105D01*
X7438571Y-8525676D01*
X7571905Y-8725676D02*
X7552857Y-8716152D01*
X7543333Y-8706629D01*
X7533809Y-8687581D01*
X7533809Y-8630438D01*
X7543333Y-8611390D01*
X7552857Y-8601867D01*
X7571905Y-8592343D01*
X7600476Y-8592343D01*
X7619524Y-8601867D01*
X7629048Y-8611390D01*
X7638571Y-8630438D01*
X7638571Y-8687581D01*
X7629048Y-8706629D01*
X7619524Y-8716152D01*
X7600476Y-8725676D01*
X7571905Y-8725676D01*
X7695714Y-8592343D02*
X7771905Y-8592343D01*
X7724286Y-8525676D02*
X7724286Y-8697105D01*
X7733809Y-8716152D01*
X7752857Y-8725676D01*
X7771905Y-8725676D01*
X7829048Y-8716152D02*
X7848095Y-8725676D01*
X7886190Y-8725676D01*
X7905238Y-8716152D01*
X7914762Y-8697105D01*
X7914762Y-8687581D01*
X7905238Y-8668533D01*
X7886190Y-8659010D01*
X7857619Y-8659010D01*
X7838571Y-8649486D01*
X7829048Y-8630438D01*
X7829048Y-8620914D01*
X7838571Y-8601867D01*
X7857619Y-8592343D01*
X7886190Y-8592343D01*
X7905238Y-8601867D01*
X7981428Y-8801867D02*
X7990952Y-8792343D01*
X8010000Y-8763771D01*
X8019524Y-8744724D01*
X8029048Y-8716152D01*
X8038571Y-8668533D01*
X8038571Y-8630438D01*
X8029048Y-8582819D01*
X8019524Y-8554248D01*
X8010000Y-8535200D01*
X7990952Y-8506629D01*
X7981428Y-8497105D01*
M02*
