G04 #@! TF.GenerationSoftware,KiCad,Pcbnew,6.0.7-1.fc36*
G04 #@! TF.CreationDate,2022-10-12T21:36:36-05:00*
G04 #@! TF.ProjectId,ardux_mini,61726475-785f-46d6-996e-692e6b696361,rev?*
G04 #@! TF.SameCoordinates,Original*
G04 #@! TF.FileFunction,Copper,L4,Bot*
G04 #@! TF.FilePolarity,Positive*
%FSLAX46Y46*%
G04 Gerber Fmt 4.6, Leading zero omitted, Abs format (unit mm)*
G04 Created by KiCad (PCBNEW 6.0.7-1.fc36) date 2022-10-12 21:36:36*
%MOMM*%
%LPD*%
G01*
G04 APERTURE LIST*
G04 Aperture macros list*
%AMRoundRect*
0 Rectangle with rounded corners*
0 $1 Rounding radius*
0 $2 $3 $4 $5 $6 $7 $8 $9 X,Y pos of 4 corners*
0 Add a 4 corners polygon primitive as box body*
4,1,4,$2,$3,$4,$5,$6,$7,$8,$9,$2,$3,0*
0 Add four circle primitives for the rounded corners*
1,1,$1+$1,$2,$3*
1,1,$1+$1,$4,$5*
1,1,$1+$1,$6,$7*
1,1,$1+$1,$8,$9*
0 Add four rect primitives between the rounded corners*
20,1,$1+$1,$2,$3,$4,$5,0*
20,1,$1+$1,$4,$5,$6,$7,0*
20,1,$1+$1,$6,$7,$8,$9,0*
20,1,$1+$1,$8,$9,$2,$3,0*%
G04 Aperture macros list end*
G04 #@! TA.AperFunction,EtchedComponent*
%ADD10C,0.200000*%
G04 #@! TD*
G04 #@! TA.AperFunction,ComponentPad*
%ADD11RoundRect,0.250000X0.625000X-0.350000X0.625000X0.350000X-0.625000X0.350000X-0.625000X-0.350000X0*%
G04 #@! TD*
G04 #@! TA.AperFunction,ComponentPad*
%ADD12O,1.750000X1.200000*%
G04 #@! TD*
G04 #@! TA.AperFunction,WasherPad*
%ADD13C,2.100000*%
G04 #@! TD*
G04 #@! TA.AperFunction,WasherPad*
%ADD14C,1.900000*%
G04 #@! TD*
G04 #@! TA.AperFunction,ComponentPad*
%ADD15O,2.500000X2.000000*%
G04 #@! TD*
G04 #@! TA.AperFunction,ComponentPad*
%ADD16O,1.000000X1.600000*%
G04 #@! TD*
G04 #@! TA.AperFunction,ComponentPad*
%ADD17O,1.000000X2.100000*%
G04 #@! TD*
G04 #@! TA.AperFunction,ComponentPad*
%ADD18C,0.500000*%
G04 #@! TD*
G04 #@! TA.AperFunction,SMDPad,CuDef*
%ADD19C,2.000000*%
G04 #@! TD*
G04 #@! TA.AperFunction,SMDPad,CuDef*
%ADD20R,1.700000X1.000000*%
G04 #@! TD*
G04 #@! TA.AperFunction,ViaPad*
%ADD21C,0.400000*%
G04 #@! TD*
G04 #@! TA.AperFunction,Conductor*
%ADD22C,0.127000*%
G04 #@! TD*
G04 #@! TA.AperFunction,Conductor*
%ADD23C,0.293370*%
G04 #@! TD*
G04 #@! TA.AperFunction,Conductor*
%ADD24C,0.200000*%
G04 #@! TD*
G04 #@! TA.AperFunction,Conductor*
%ADD25C,0.175006*%
G04 #@! TD*
G04 APERTURE END LIST*
G36*
X31529308Y-22818333D02*
G01*
X16035308Y-22818333D01*
X16035308Y-21463667D01*
X31529308Y-21463667D01*
X31529308Y-22818333D01*
G37*
D10*
X31529308Y-22818333D02*
X16035308Y-22818333D01*
X16035308Y-21463667D01*
X31529308Y-21463667D01*
X31529308Y-22818333D01*
D11*
X95350000Y-21900000D03*
D12*
X95350000Y-19900000D03*
D13*
X52892974Y-55372000D03*
X41892974Y-55372000D03*
D14*
X52472974Y-55372000D03*
X42312974Y-55372000D03*
D15*
X43582974Y-52832000D03*
X42292974Y-59272000D03*
X52492974Y-59272000D03*
X51202974Y-52832000D03*
X44852974Y-50292000D03*
X49932974Y-50292000D03*
X47392974Y-61272000D03*
D14*
X82667974Y-56642000D03*
D13*
X82247974Y-56642000D03*
X93247974Y-56642000D03*
D14*
X92827974Y-56642000D03*
D15*
X92847974Y-60542000D03*
X83937974Y-54102000D03*
X82647974Y-60542000D03*
X91557974Y-54102000D03*
X87747974Y-62542000D03*
X90287974Y-51562000D03*
X85207974Y-51562000D03*
D13*
X21692974Y-59182000D03*
D14*
X22112974Y-59182000D03*
X32272974Y-59182000D03*
D13*
X32692974Y-59182000D03*
D15*
X22092974Y-63082000D03*
X31002974Y-56642000D03*
X23382974Y-56642000D03*
X32292974Y-63082000D03*
X27192974Y-65082000D03*
X24652974Y-54102000D03*
X29732974Y-54102000D03*
D14*
X62347974Y-54102000D03*
D13*
X61927974Y-54102000D03*
X72927974Y-54102000D03*
D14*
X72507974Y-54102000D03*
D15*
X63617974Y-51562000D03*
X62327974Y-58002000D03*
X72527974Y-58002000D03*
X71237974Y-51562000D03*
X64887974Y-49022000D03*
X67427974Y-60002000D03*
X69967974Y-49022000D03*
D14*
X52472974Y-35172000D03*
X42312974Y-35172000D03*
D13*
X41892974Y-35172000D03*
X52892974Y-35172000D03*
D15*
X52492974Y-39072000D03*
X43582974Y-32632000D03*
X51202974Y-32632000D03*
X42292974Y-39072000D03*
X47392974Y-41072000D03*
X44852974Y-30092000D03*
X49932974Y-30092000D03*
D16*
X69282292Y-14341870D03*
D17*
X69282292Y-18521870D03*
D16*
X77922292Y-14341870D03*
D17*
X77922292Y-18521870D03*
D13*
X72927974Y-33902000D03*
X61927974Y-33902000D03*
D14*
X62347974Y-33902000D03*
X72507974Y-33902000D03*
D15*
X71237974Y-31362000D03*
X72527974Y-37802000D03*
X62327974Y-37802000D03*
X63617974Y-31362000D03*
X67427974Y-39802000D03*
X64887974Y-28822000D03*
X69967974Y-28822000D03*
D14*
X92827974Y-36442000D03*
X82667974Y-36442000D03*
D13*
X93247974Y-36442000D03*
X82247974Y-36442000D03*
D15*
X92847974Y-40342000D03*
X83937974Y-33902000D03*
X82647974Y-40342000D03*
X91557974Y-33902000D03*
X90287974Y-31362000D03*
X87747974Y-42342000D03*
X85207974Y-31362000D03*
D13*
X32692974Y-38982000D03*
X21692974Y-38982000D03*
D14*
X22112974Y-38982000D03*
X32272974Y-38982000D03*
D15*
X22092974Y-42882000D03*
X23382974Y-36442000D03*
X31002974Y-36442000D03*
X32292974Y-42882000D03*
X27192974Y-44882000D03*
X29732974Y-33902000D03*
X24652974Y-33902000D03*
D18*
X18129974Y-22141000D03*
X27739974Y-22141000D03*
X26139974Y-22141000D03*
X22939974Y-22141000D03*
X30939974Y-22141000D03*
X24539974Y-22141000D03*
X21339974Y-22141000D03*
X16539974Y-22141000D03*
X29339974Y-22141000D03*
D19*
X52600000Y-16300000D03*
D20*
X46076000Y-21458000D03*
X39776000Y-21458000D03*
X46076000Y-17658000D03*
X39776000Y-17658000D03*
D19*
X49500000Y-16300000D03*
D21*
X70200000Y-16700000D03*
X66025772Y-21274228D03*
X68300000Y-24700000D03*
X65500000Y-23700000D03*
X65600000Y-22700000D03*
X65566731Y-19189543D03*
X54600000Y-30600000D03*
X59100000Y-28700000D03*
X56490000Y-19800000D03*
X58951500Y-21229941D03*
X53900000Y-23000000D03*
X56000000Y-28800000D03*
X56000000Y-27700000D03*
X63800000Y-24400000D03*
X63200000Y-25000000D03*
X62600000Y-25000000D03*
X62000000Y-25000000D03*
X61400000Y-25000000D03*
X60595578Y-24986418D03*
X59900000Y-24039002D03*
X59700000Y-24900000D03*
X65116000Y-24500000D03*
X78900000Y-19500000D03*
X57700000Y-27000000D03*
X58511740Y-23375306D03*
X59300000Y-25600000D03*
X59039998Y-23700000D03*
X66900000Y-27600000D03*
X64543002Y-19700000D03*
X65000000Y-18800000D03*
X67600000Y-18400000D03*
X84700000Y-26900000D03*
X76600000Y-23400000D03*
X61811869Y-17614003D03*
X63100000Y-18535998D03*
X62700000Y-17614003D03*
X64196102Y-18496718D03*
X59800000Y-17200000D03*
X59100000Y-18500000D03*
X58500000Y-18100000D03*
X44142000Y-21458000D03*
X41642000Y-21458000D03*
X44042000Y-17658000D03*
X41642000Y-17658000D03*
X59000000Y-21800000D03*
X52000000Y-22100000D03*
X65100000Y-18000000D03*
X61800000Y-23000000D03*
X60200000Y-23000000D03*
X60200000Y-21300000D03*
X61800000Y-21287500D03*
X63300000Y-23000000D03*
X63300000Y-21300000D03*
X63300000Y-19600000D03*
X61800000Y-19600000D03*
X60200000Y-19600000D03*
X59200000Y-26600000D03*
X57900000Y-23510500D03*
X56864597Y-25274071D03*
X92300000Y-18400000D03*
X64620000Y-16480000D03*
X62120000Y-16480000D03*
X62080000Y-15520000D03*
X63280000Y-15520000D03*
X59780000Y-15520000D03*
X68250753Y-21200000D03*
X70830753Y-20480000D03*
X70950753Y-22100000D03*
X75950753Y-22200000D03*
X78550753Y-21200000D03*
X76150753Y-20500000D03*
X87800000Y-18400000D03*
X86095000Y-21405000D03*
X85800000Y-25100000D03*
X91200000Y-26900000D03*
X93000000Y-21400000D03*
X90600000Y-21400000D03*
X85900000Y-23900000D03*
X83700000Y-19500000D03*
X83800000Y-22800000D03*
X88300000Y-21100000D03*
X85300000Y-20800000D03*
X81300000Y-19500000D03*
X81400000Y-24100000D03*
D22*
X63100000Y-22000000D02*
X60347749Y-22000000D01*
X83937974Y-33902000D02*
X81202000Y-33902000D01*
X81202000Y-33902000D02*
X73000000Y-25700000D01*
X73000000Y-25700000D02*
X66947749Y-25700000D01*
X66947749Y-25700000D02*
X64200000Y-22952251D01*
X64200000Y-22952251D02*
X64200000Y-22900000D01*
X64200000Y-22900000D02*
X63300000Y-22000000D01*
X63300000Y-22000000D02*
X63100000Y-22000000D01*
D23*
X51200000Y-16100000D02*
X51400000Y-15900000D01*
X51200000Y-17400000D02*
X51200000Y-16100000D01*
X51400000Y-15900000D02*
X52200000Y-15900000D01*
X52200000Y-15900000D02*
X52600000Y-16300000D01*
X58500000Y-18100000D02*
X51900000Y-18100000D01*
X51900000Y-18100000D02*
X51200000Y-17400000D01*
X51800000Y-16300000D02*
X52600000Y-16300000D01*
X69701815Y-17198185D02*
X70200000Y-16700000D01*
X67501815Y-17198185D02*
X69701815Y-17198185D01*
X67100000Y-17600000D02*
X67501815Y-17198185D01*
D22*
X65600000Y-23600000D02*
X65500000Y-23700000D01*
X65600000Y-22700000D02*
X65600000Y-23600000D01*
D23*
X67100000Y-17600000D02*
X65500000Y-17600000D01*
X65500000Y-17600000D02*
X65100000Y-18000000D01*
D22*
X55800000Y-29400000D02*
X54600000Y-30600000D01*
X60595578Y-27895578D02*
X60600000Y-27900000D01*
X58900000Y-29400000D02*
X55800000Y-29400000D01*
X60595578Y-24986418D02*
X60595578Y-27895578D01*
X60600000Y-27900000D02*
X59100000Y-29400000D01*
X59100000Y-29400000D02*
X58900000Y-29400000D01*
X60090500Y-27709500D02*
X59100000Y-28700000D01*
X60090500Y-24229502D02*
X60090500Y-27709500D01*
X59900000Y-24039002D02*
X60090500Y-24229502D01*
X63800000Y-24500000D02*
X63800000Y-22947749D01*
X63800000Y-22947749D02*
X63452251Y-22600000D01*
X63452251Y-22600000D02*
X59287046Y-22600000D01*
X59287046Y-22600000D02*
X58511740Y-23375306D01*
X60347749Y-22000000D02*
X59577690Y-21229941D01*
X59577690Y-21229941D02*
X58951500Y-21229941D01*
X69797474Y-45297474D02*
X72200000Y-47700000D01*
X69797474Y-31747951D02*
X69797474Y-45297474D01*
X63200000Y-25150477D02*
X69797474Y-31747951D01*
X63200000Y-25000000D02*
X63200000Y-25150477D01*
X72200000Y-47700000D02*
X72200000Y-50599974D01*
X72200000Y-50599974D02*
X71237974Y-51562000D01*
X62600000Y-25000000D02*
X62209500Y-24609500D01*
X62209500Y-24609500D02*
X61238249Y-24609500D01*
X61238249Y-24609500D02*
X60986078Y-24861671D01*
X56159473Y-30000000D02*
X55300000Y-30859473D01*
X60986078Y-24861671D02*
X60986078Y-28513922D01*
X59500000Y-30000000D02*
X56159473Y-30000000D01*
X60986078Y-28513922D02*
X59500000Y-30000000D01*
X55300000Y-30859473D02*
X55300000Y-36400000D01*
X55300000Y-36400000D02*
X54600000Y-37100000D01*
X54600000Y-37100000D02*
X50500000Y-37100000D01*
X50500000Y-37100000D02*
X49000000Y-38600000D01*
X49000000Y-38600000D02*
X46500000Y-38600000D01*
X46500000Y-38600000D02*
X42218000Y-42882000D01*
X42218000Y-42882000D02*
X32292974Y-42882000D01*
X62000000Y-25000000D02*
X62000000Y-29744026D01*
X62000000Y-29744026D02*
X63617974Y-31362000D01*
X61400000Y-25000000D02*
X61400000Y-32098595D01*
X43412474Y-52661500D02*
X43582974Y-52832000D01*
X61400000Y-32098595D02*
X44397095Y-49101500D01*
X44397095Y-49101500D02*
X44109853Y-49101500D01*
X44109853Y-49101500D02*
X43412474Y-49798879D01*
X43412474Y-49798879D02*
X43412474Y-52661500D01*
D23*
X46042000Y-17658000D02*
X46076000Y-17658000D01*
D22*
X53900000Y-29934974D02*
X51202974Y-32632000D01*
X53900000Y-23000000D02*
X53900000Y-29934974D01*
X58511740Y-26188260D02*
X57700000Y-27000000D01*
X58511740Y-23375306D02*
X58511740Y-26188260D01*
X59300000Y-23960002D02*
X59300000Y-25600000D01*
X59039998Y-23700000D02*
X59300000Y-23960002D01*
X68547133Y-23151880D02*
X68447627Y-23052373D01*
X68447627Y-23052373D02*
X64495253Y-19100000D01*
X68447627Y-23052373D02*
X68931754Y-23536500D01*
X68931754Y-23536500D02*
X76463500Y-23536500D01*
X76463500Y-23536500D02*
X76600000Y-23400000D01*
X63490500Y-18609500D02*
X63490500Y-18709500D01*
X63490500Y-18609500D02*
X63490500Y-18702577D01*
X63490500Y-18374247D02*
X63490500Y-18609500D01*
X63490500Y-18702577D02*
X64100000Y-19312077D01*
X64100000Y-19312077D02*
X64100000Y-19900000D01*
X64100000Y-19900000D02*
X67990500Y-23790500D01*
X79600000Y-26900000D02*
X84700000Y-26900000D01*
X67990500Y-23790500D02*
X76490500Y-23790500D01*
X76490500Y-23790500D02*
X79600000Y-26900000D01*
X64495253Y-19100000D02*
X64247133Y-19100000D01*
X64247133Y-19100000D02*
X63800000Y-18652867D01*
X63800000Y-18324537D02*
X63089466Y-17614003D01*
X63800000Y-18652867D02*
X63800000Y-18324537D01*
X63089466Y-17614003D02*
X62700000Y-17614003D01*
D24*
X67600000Y-18400000D02*
X65400000Y-18400000D01*
X65400000Y-18400000D02*
X65000000Y-18800000D01*
D25*
X56842000Y-21458000D02*
X56058000Y-21458000D01*
X56058000Y-21458000D02*
X46076000Y-21458000D01*
D24*
X63100000Y-18535998D02*
X60660132Y-18535998D01*
X60660132Y-18535998D02*
X57738130Y-21458000D01*
X57738130Y-21458000D02*
X56058000Y-21458000D01*
D22*
X64196102Y-17596102D02*
X63800000Y-17200000D01*
X64196102Y-18496718D02*
X64196102Y-17596102D01*
X63800000Y-17200000D02*
X62899384Y-17200000D01*
X63120756Y-18004503D02*
X63490500Y-18374247D01*
X62202369Y-18004503D02*
X63120756Y-18004503D01*
X61811869Y-17614003D02*
X62202369Y-18004503D01*
D25*
X59800000Y-17200000D02*
X62899384Y-17200000D01*
D23*
X52021000Y-15900000D02*
X52421000Y-16300000D01*
X59100000Y-18500000D02*
X59026315Y-18573685D01*
X59026315Y-18573685D02*
X51773685Y-18573685D01*
X51773685Y-18573685D02*
X49500000Y-16300000D01*
X46076000Y-21458000D02*
X39776000Y-21458000D01*
X39776000Y-17658000D02*
X46076000Y-17658000D01*
X52000000Y-22100000D02*
X58700000Y-22100000D01*
X58700000Y-22100000D02*
X59000000Y-21800000D01*
D24*
X87800000Y-18400000D02*
X86095000Y-20105000D01*
X86095000Y-20105000D02*
X86095000Y-21405000D01*
M02*
